<?xml version="1.0" encoding="utf-8"?>
<!-- Generator: Adobe Illustrator 16.0.0, SVG Export Plug-In . SVG Version: 6.00 Build 0)  -->
<!DOCTYPE svg PUBLIC "-//W3C//DTD SVG 1.1//EN" "http://www.w3.org/Graphics/SVG/1.1/DTD/svg11.dtd">
<svg version="1.1" id="Layer_1" xmlns="http://www.w3.org/2000/svg" xmlns:xlink="http://www.w3.org/1999/xlink" x="0px" y="0px"
	 width="60px" height="60px" viewBox="0 0 60 60" enable-background="new 0 0 60 60" xml:space="preserve">
<g>
	<g>
		<path fill="#D2D3D4" d="M345.988,1589.729c-2.106,2.105-5.522,2.106-7.629,0l-7.63-7.63c-2.106-2.106-2.106-5.523,0-7.629
			l2.861-2.862c2.106-2.105,5.522-2.105,7.629,0l7.63,7.63c2.106,2.107,2.106,5.523,0,7.629L345.988,1589.729z"/>
		<path fill="#231F20" d="M342.174,1593.308c-1.976,0-3.832-0.769-5.229-2.165l-7.63-7.63c-1.396-1.396-2.166-3.253-2.166-5.229
			s0.77-3.833,2.166-5.229l2.861-2.862c1.396-1.396,3.254-2.165,5.229-2.165s3.832,0.769,5.229,2.165l7.63,7.63
			c2.884,2.885,2.883,7.575,0,10.457l-2.861,2.862C346.006,1592.539,344.148,1593.308,342.174,1593.308z M337.405,1572.028
			c-0.907,0-1.76,0.353-2.4,0.993l-2.861,2.862c-0.641,0.641-0.994,1.493-0.994,2.4c0,0.906,0.354,1.759,0.994,2.4l7.63,7.63
			c1.281,1.281,3.518,1.283,4.801,0l2.861-2.862c1.323-1.323,1.323-3.477,0-4.801l-7.63-7.63
			C339.165,1572.381,338.313,1572.028,337.405,1572.028z"/>
	</g>
	<g>
		<path fill="#D2D3D4" d="M297.59,1589.729c2.106,2.105,5.522,2.106,7.629,0l7.63-7.63c2.106-2.106,2.106-5.523,0-7.629
			l-2.861-2.862c-2.106-2.105-5.522-2.105-7.629,0l-7.63,7.63c-2.106,2.107-2.106,5.523,0,7.629L297.59,1589.729z"/>
		<path fill="#231F20" d="M301.405,1593.308C301.404,1593.308,301.404,1593.308,301.405,1593.308c-1.976,0-3.833-0.769-5.229-2.165
			l-2.861-2.862c-2.883-2.882-2.883-7.572,0-10.457l7.63-7.63c1.396-1.396,3.253-2.165,5.229-2.165s3.832,0.769,5.229,2.165
			l2.862,2.862c1.396,1.396,2.164,3.253,2.164,5.229s-0.769,3.832-2.165,5.229l-7.63,7.63
			C305.236,1592.539,303.38,1593.308,301.405,1593.308z M306.173,1572.028c-0.907,0-1.759,0.353-2.4,0.993l-7.63,7.63
			c-1.323,1.324-1.323,3.478,0,4.801l2.861,2.862c0.641,0.641,1.494,0.993,2.4,0.993h0.001c0.906,0,1.759-0.353,2.399-0.993
			l7.63-7.63c0.642-0.642,0.993-1.494,0.993-2.4c0-0.907-0.352-1.76-0.993-2.4l-2.862-2.862
			C307.932,1572.381,307.08,1572.028,306.173,1572.028z"/>
	</g>
	<g>
		<circle fill="#FFFFFF" cx="322.108" cy="1600.892" r="22.892"/>
		<path fill="#231F20" d="M322.108,1625.783c-13.726,0-24.892-11.166-24.892-24.892S308.383,1576,322.108,1576
			S347,1587.166,347,1600.892S335.834,1625.783,322.108,1625.783z M322.108,1580c-11.52,0-20.892,9.372-20.892,20.892
			s9.372,20.892,20.892,20.892S343,1612.411,343,1600.892S333.628,1580,322.108,1580z"/>
	</g>
	<g>
		<path fill="#231F20" d="M299.215,1629.5c-0.416,0-0.834-0.129-1.193-0.396c-0.886-0.66-1.068-1.914-0.408-2.799l7.327-9.826
			c0.661-0.885,1.915-1.067,2.799-0.408c0.886,0.66,1.068,1.914,0.408,2.799l-7.327,9.826
			C300.428,1629.222,299.825,1629.5,299.215,1629.5z"/>
	</g>
	<g>
		<path fill="#231F20" d="M345.546,1629.5c-0.61,0-1.213-0.278-1.605-0.805l-7.327-9.826c-0.66-0.885-0.478-2.139,0.408-2.799
			c0.886-0.661,2.14-0.477,2.799,0.408l7.327,9.826c0.66,0.885,0.478,2.139-0.408,2.799
			C346.381,1629.371,345.961,1629.5,345.546,1629.5z"/>
	</g>
	<g>
		<polyline fill="#FFFFFF" points="322.108,1585.25 322.108,1600.892 331.858,1610.642 		"/>
		<path fill="#231F20" d="M331.858,1612.642c-0.512,0-1.023-0.195-1.414-0.586l-9.75-9.75c-0.375-0.375-0.586-0.884-0.586-1.414
			v-15.642c0-1.104,0.896-2,2-2s2,0.896,2,2v14.813l9.164,9.164c0.781,0.781,0.781,2.047,0,2.828
			C332.882,1612.446,332.37,1612.642,331.858,1612.642z"/>
	</g>
</g>
<g>
	<g>
		<path fill="#D2D3D4" d="M53.62,21.181c-2.057,2.056-5.391,2.057-7.446,0l-7.447-7.447c-2.057-2.056-2.057-5.391,0-7.446
			l2.793-2.793c2.056-2.056,5.39-2.056,7.446,0l7.447,7.446c2.056,2.058,2.056,5.392,0,7.446L53.62,21.181z"/>
		<path fill="#231F20" d="M49.896,24.675c-1.928,0-3.74-0.751-5.104-2.113l-7.447-7.447c-1.362-1.363-2.113-3.176-2.113-5.104
			c0-1.929,0.751-3.741,2.113-5.104l2.793-2.794C41.502,0.75,43.315,0,45.242,0c1.928,0,3.74,0.75,5.104,2.113l7.447,7.447
			c2.814,2.815,2.813,7.394,0,10.207L55,22.562C53.637,23.924,51.824,24.675,49.896,24.675z M45.242,3.904
			c-0.886,0-1.718,0.345-2.343,0.97l-2.793,2.794c-0.625,0.625-0.97,1.457-0.97,2.343c0,0.885,0.345,1.717,0.97,2.343l7.447,7.447
			c1.251,1.251,3.434,1.252,4.686,0l2.793-2.794c1.292-1.291,1.292-3.394,0-4.686l-7.447-7.447
			C46.96,4.249,46.128,3.904,45.242,3.904z"/>
	</g>
	<g>
		<path fill="#D2D3D4" d="M6.38,21.181c2.056,2.056,5.391,2.057,7.446,0l7.447-7.447c2.056-2.056,2.056-5.391,0-7.446l-2.792-2.793
			c-2.056-2.056-5.391-2.056-7.446,0L3.587,10.94c-2.056,2.058-2.056,5.392,0,7.446L6.38,21.181z"/>
		<path fill="#231F20" d="M10.104,24.675C10.104,24.675,10.104,24.675,10.104,24.675c-1.929,0-3.741-0.751-5.104-2.113l-2.793-2.794
			c-2.814-2.813-2.814-7.392,0-10.207l7.448-7.447C11.018,0.75,12.83,0,14.758,0s3.74,0.75,5.103,2.113l2.793,2.794
			c1.363,1.362,2.113,3.175,2.113,5.104c0,1.928-0.75,3.74-2.114,5.104l-7.447,7.447C13.844,23.924,12.032,24.675,10.104,24.675z
			 M14.758,3.904c-0.885,0-1.717,0.345-2.343,0.97l-7.447,7.447c-1.292,1.292-1.292,3.395,0,4.686l2.793,2.794
			c0.625,0.625,1.458,0.97,2.343,0.97h0c0.885,0,1.716-0.345,2.342-0.97l7.447-7.447c0.625-0.626,0.97-1.458,0.97-2.343
			c0-0.886-0.344-1.718-0.97-2.343L17.1,4.874C16.475,4.249,15.643,3.904,14.758,3.904z"/>
	</g>
	<g>
		<circle fill="#FFFFFF" cx="30.312" cy="32.077" r="22.344"/>
		<path fill="#231F20" d="M30.312,56.373c-13.396,0-24.295-10.899-24.295-24.296c0-13.397,10.899-24.296,24.295-24.296
			c13.397,0,24.296,10.898,24.296,24.296C54.607,45.474,43.709,56.373,30.312,56.373z M30.312,11.686
			c-11.244,0-20.391,9.147-20.391,20.392c0,11.243,9.147,20.392,20.391,20.392c11.244,0,20.392-9.148,20.392-20.392
			C50.703,20.833,41.556,11.686,30.312,11.686z"/>
	</g>
	<g>
		<path fill="#231F20" d="M7.967,60c-0.406,0-0.815-0.125-1.166-0.387c-0.864-0.645-1.042-1.868-0.398-2.731l7.152-9.591
			c0.645-0.864,1.869-1.042,2.732-0.398c0.864,0.645,1.042,1.868,0.398,2.731l-7.152,9.591C9.15,59.729,8.562,60,7.967,60z"/>
	</g>
	<g>
		<path fill="#231F20" d="M53.188,60c-0.596,0-1.185-0.271-1.567-0.785l-7.151-9.591c-0.645-0.863-0.467-2.087,0.398-2.731
			c0.864-0.646,2.088-0.466,2.731,0.398l7.151,9.591c0.645,0.863,0.467,2.087-0.398,2.731C54.003,59.875,53.593,60,53.188,60z"/>
	</g>
	<g>
		<polyline fill="#FFFFFF" points="30.312,16.81 30.312,32.077 39.828,41.594 		"/>
		<path fill="#231F20" d="M39.828,43.546c-0.499,0-0.999-0.19-1.38-0.572l-9.517-9.517c-0.366-0.366-0.572-0.862-0.572-1.38V16.81
			c0-1.078,0.874-1.952,1.952-1.952s1.952,0.874,1.952,1.952v14.459l8.944,8.944c0.763,0.763,0.763,1.998,0,2.761
			C40.827,43.355,40.328,43.546,39.828,43.546z"/>
	</g>
</g>
</svg>
