<?xml version="1.0" encoding="utf-8"?>
<!-- Generator: Adobe Illustrator 19.2.1, SVG Export Plug-In . SVG Version: 6.00 Build 0)  -->
<svg version="1.1" id="Layer_1" xmlns="http://www.w3.org/2000/svg" xmlns:xlink="http://www.w3.org/1999/xlink" x="0px" y="0px"
	 viewBox="0 0 60 60" style="enable-background:new 0 0 60 60;" xml:space="preserve">
<style type="text/css">
	.st0{fill:#231F20;}
</style>
<g>
	<g>
		<path class="st0" d="M29.8,60C29.7,60,29.7,60,29.8,60c-0.3,0-24.6-1.3-24.6-24.6c0-1.3,1-2.3,2.3-2.3h5.4c1.3,0,2.3,1,2.3,2.3
			s-1,2.3-2.3,2.3H9.9c1.5,16.7,19.2,17.7,20,17.7c1.3,0.1,2.3,1.1,2.2,2.4C32,59,31,60,29.8,60z"/>
	</g>
	<g>
		<path class="st0" d="M30.2,60c-0.6,0-1.2-0.2-1.6-0.6c-0.5-0.4-0.7-1-0.7-1.7l-0.4-42.4c0-1.3,1-2.3,2.3-2.3c0,0,0,0,0,0
			c1.3,0,2.3,1,2.3,2.3l0.4,39.9c5.1-0.8,16.4-4.2,17.6-17.4h-4.3c-1.3,0-2.3-1-2.3-2.3s1-2.3,2.3-2.3h6.7c1.3,0,2.3,1,2.3,2.3
			C54.9,58.7,30.6,60,30.2,60C30.3,60,30.3,60,30.2,60z"/>
	</g>
	<g>
		<path class="st0" d="M41.2,17.6H18.6c-1.3,0-2.3-1-2.3-2.3s1-2.3,2.3-2.3h22.5c1.3,0,2.3,1,2.3,2.3S42.4,17.6,41.2,17.6z"/>
	</g>
	<g>
		<path class="st0" d="M29.8,17.1c-4.7,0-8.6-3.8-8.6-8.6S25.1,0,29.8,0c4.7,0,8.6,3.8,8.6,8.6S34.5,17.1,29.8,17.1z M29.8,4.6
			c-2.2,0-3.9,1.8-3.9,3.9s1.8,3.9,3.9,3.9c2.2,0,3.9-1.8,3.9-3.9S31.9,4.6,29.8,4.6z"/>
	</g>
</g>
</svg>
