<?xml version="1.0" encoding="utf-8"?>
<!-- Generator: Adobe Illustrator 16.0.0, SVG Export Plug-In . SVG Version: 6.00 Build 0)  -->
<!DOCTYPE svg PUBLIC "-//W3C//DTD SVG 1.1//EN" "http://www.w3.org/Graphics/SVG/1.1/DTD/svg11.dtd">
<svg version="1.1" id="Layer_1" xmlns="http://www.w3.org/2000/svg" xmlns:xlink="http://www.w3.org/1999/xlink" x="0px" y="0px"
	 width="60px" height="60px" viewBox="0 0 60 60" enable-background="new 0 0 60 60" xml:space="preserve">
<g>
	<g>
		<path fill="#FFFFFF" d="M11.455,47.792c0,1.118-0.906,2.023-2.023,2.023H3.865c-1.117,0-2.023-0.905-2.023-2.023V30.333
			c0-1.118,0.906-2.024,2.023-2.024h5.566c1.117,0,2.023,0.906,2.023,2.024V47.792z"/>
		<path fill="#231F20" d="M9.432,51.658H3.865C1.734,51.658,0,49.924,0,47.792V30.333c0-2.132,1.734-3.866,3.865-3.866h5.566
			c2.132,0,3.865,1.734,3.865,3.866v17.459C13.297,49.924,11.563,51.658,9.432,51.658z M3.865,30.151
			c-0.1,0-0.182,0.082-0.182,0.182v17.459c0,0.1,0.082,0.182,0.182,0.182h5.566c0.101,0,0.182-0.082,0.182-0.182V30.333
			c0-0.1-0.081-0.182-0.182-0.182H3.865z"/>
	</g>
	<g>
		<path fill="#FFFFFF" d="M32.895,10.455c0,0-20.83-4.058-21.439,19.478"/>
		<path fill="#231F20" d="M13.297,29.98l-3.684-0.096c0.206-7.931,2.628-13.813,7.199-17.481c6.899-5.537,16.048-3.832,16.435-3.757
			l-0.701,3.617c-0.077-0.015-7.904-1.439-13.45,3.032C15.424,18.256,13.473,23.196,13.297,29.98z"/>
	</g>
	<g>
		<path fill="#D2D3D4" d="M11.455,47.792c0,1.118-0.906,2.023-2.023,2.023H3.865c-1.117,0-2.023-0.905-2.023-2.023V30.333
			c0-1.118,0.906-2.024,2.023-2.024h5.566c1.117,0,2.023,0.906,2.023,2.024V47.792z"/>
		<path fill="#231F20" d="M9.432,51.658H3.865C1.734,51.658,0,49.924,0,47.792V30.333c0-2.132,1.734-3.866,3.865-3.866h5.566
			c2.132,0,3.865,1.734,3.865,3.866v17.459C13.297,49.924,11.563,51.658,9.432,51.658z M3.865,30.151
			c-0.1,0-0.182,0.082-0.182,0.182v17.459c0,0.1,0.082,0.182,0.182,0.182h5.566c0.101,0,0.182-0.082,0.182-0.182V30.333
			c0-0.1-0.081-0.182-0.182-0.182H3.865z"/>
	</g>
	<g>
		<path fill="#FFFFFF" d="M32.895,10.455c0,0-20.83-4.058-21.439,19.478"/>
		<path fill="#231F20" d="M13.297,29.98l-3.684-0.096c0.206-7.931,2.628-13.813,7.199-17.481c6.899-5.537,16.048-3.832,16.435-3.757
			l-0.701,3.617c-0.077-0.015-7.904-1.439-13.45,3.032C15.424,18.256,13.473,23.196,13.297,29.98z"/>
	</g>
	<g>
		<path fill="#FFFFFF" d="M48.544,47.792c0,1.118,0.906,2.023,2.023,2.023h5.567c1.117,0,2.022-0.905,2.022-2.023V30.333
			c0-1.118-0.905-2.024-2.022-2.024h-5.567c-1.117,0-2.023,0.906-2.023,2.024V47.792z"/>
		<path fill="#231F20" d="M56.135,51.658h-5.567c-2.131,0-3.865-1.734-3.865-3.866V30.333c0-2.132,1.734-3.866,3.865-3.866h5.567
			c2.131,0,3.865,1.734,3.865,3.866v17.459C60,49.924,58.266,51.658,56.135,51.658z M50.567,30.151
			c-0.101,0-0.182,0.082-0.182,0.182v17.459c0,0.1,0.081,0.182,0.182,0.182h5.567c0.1,0,0.181-0.082,0.181-0.182V30.333
			c0-0.1-0.081-0.182-0.181-0.182H50.567z"/>
	</g>
	<g>
		<path fill="#FFFFFF" d="M27.104,10.455c0,0,20.831-4.058,21.439,19.478"/>
		<path fill="#231F20" d="M46.703,29.98c-0.176-6.784-2.128-11.724-5.799-14.685c-5.546-4.471-13.372-3.047-13.451-3.032l-0.7-3.617
			c0.386-0.075,9.535-1.779,16.434,3.757c4.572,3.668,6.993,9.55,7.198,17.481L46.703,29.98z"/>
	</g>
	<g>
		<path fill="#D2D3D4" d="M48.544,47.792c0,1.118,0.906,2.023,2.023,2.023h5.567c1.117,0,2.022-0.905,2.022-2.023V30.333
			c0-1.118-0.905-2.024-2.022-2.024h-5.567c-1.117,0-2.023,0.906-2.023,2.024V47.792z"/>
		<path fill="#231F20" d="M56.135,51.658h-5.567c-2.131,0-3.865-1.734-3.865-3.866V30.333c0-2.132,1.734-3.866,3.865-3.866h5.567
			c2.131,0,3.865,1.734,3.865,3.866v17.459C60,49.924,58.266,51.658,56.135,51.658z M50.567,30.151
			c-0.101,0-0.182,0.082-0.182,0.182v17.459c0,0.1,0.081,0.182,0.182,0.182h5.567c0.1,0,0.181-0.082,0.181-0.182V30.333
			c0-0.1-0.081-0.182-0.181-0.182H50.567z"/>
	</g>
	<g>
		<path fill="#FFFFFF" d="M27.104,10.455c0,0,20.831-4.058,21.439,19.478"/>
		<path fill="#231F20" d="M46.703,29.98c-0.176-6.784-2.128-11.724-5.799-14.685c-5.546-4.471-13.372-3.047-13.451-3.032l-0.7-3.617
			c0.386-0.075,9.535-1.779,16.434,3.757c4.572,3.668,6.993,9.55,7.198,17.481L46.703,29.98z"/>
	</g>
	<g>
		<path fill="#231F20" d="M31.468,45.322c-0.114,0-0.23-0.011-0.346-0.032c-0.681-0.131-1.232-0.634-1.424-1.3l-2.666-9.26
			l-2.356,3.93c-0.333,0.555-0.933,0.895-1.58,0.895h-5.366c-1.017,0-1.842-0.824-1.842-1.842s0.825-1.842,1.842-1.842h4.323
			l3.998-6.667c0.378-0.628,1.09-0.975,1.819-0.879c0.727,0.095,1.328,0.612,1.531,1.317l2.831,9.834l2.229-2.888
			c0.35-0.453,0.887-0.717,1.458-0.717h5.526c1.018,0,1.842,0.824,1.842,1.842s-0.824,1.842-1.842,1.842h-4.621l-3.899,5.052
			C32.573,45.063,32.032,45.322,31.468,45.322z"/>
	</g>
</g>
</svg>
