<?xml version="1.0" encoding="utf-8"?>
<!-- Generator: Adobe Illustrator 19.2.1, SVG Export Plug-In . SVG Version: 6.00 Build 0)  -->
<svg version="1.1" id="Layer_1" xmlns="http://www.w3.org/2000/svg" xmlns:xlink="http://www.w3.org/1999/xlink" x="0px" y="0px"
	 viewBox="0 0 60 60" style="enable-background:new 0 0 60 60;" xml:space="preserve">
<style type="text/css">
	.st0{fill:#FFFFFF;}
	.st1{fill:#231F20;}
	.st2{fill:#D2D3D4;}
</style>
<g>
	<g>
		<path class="st0" d="M11.5,47.8c0,1.1-0.9,2-2,2H3.9c-1.1,0-2-0.9-2-2V30.3c0-1.1,0.9-2,2-2h5.6c1.1,0,2,0.9,2,2L11.5,47.8
			L11.5,47.8z"/>
		<path class="st1" d="M9.4,51.7H3.9c-2.1,0-3.9-1.7-3.9-3.9V30.3c0-2.1,1.7-3.9,3.9-3.9h5.6c2.1,0,3.9,1.7,3.9,3.9v17.5
			C13.3,49.9,11.6,51.7,9.4,51.7z M3.9,30.2c-0.1,0-0.2,0.1-0.2,0.2v17.5c0,0.1,0.1,0.2,0.2,0.2h5.6c0.1,0,0.2-0.1,0.2-0.2V30.3
			c0-0.1-0.1-0.2-0.2-0.2C9.4,30.2,3.9,30.2,3.9,30.2z"/>
	</g>
	<g>
		<path class="st1" d="M13.3,30l-3.7-0.1c0.2-7.9,2.6-13.8,7.2-17.5c6.9-5.5,16-3.8,16.4-3.8l-0.7,3.6c-0.1,0-7.9-1.4-13.5,3
			C15.4,18.3,13.5,23.2,13.3,30z"/>
	</g>
	<g>
		<path class="st2" d="M11.5,47.8c0,1.1-0.9,2-2,2H3.9c-1.1,0-2-0.9-2-2V30.3c0-1.1,0.9-2,2-2h5.6c1.1,0,2,0.9,2,2L11.5,47.8
			L11.5,47.8z"/>
		<path class="st1" d="M9.4,51.7H3.9c-2.1,0-3.9-1.7-3.9-3.9V30.3c0-2.1,1.7-3.9,3.9-3.9h5.6c2.1,0,3.9,1.7,3.9,3.9v17.5
			C13.3,49.9,11.6,51.7,9.4,51.7z M3.9,30.2c-0.1,0-0.2,0.1-0.2,0.2v17.5c0,0.1,0.1,0.2,0.2,0.2h5.6c0.1,0,0.2-0.1,0.2-0.2V30.3
			c0-0.1-0.1-0.2-0.2-0.2C9.4,30.2,3.9,30.2,3.9,30.2z"/>
	</g>
	<g>
		<path class="st1" d="M13.3,30l-3.7-0.1c0.2-7.9,2.6-13.8,7.2-17.5c6.9-5.5,16-3.8,16.4-3.8l-0.7,3.6c-0.1,0-7.9-1.4-13.5,3
			C15.4,18.3,13.5,23.2,13.3,30z"/>
	</g>
	<g>
		<path class="st0" d="M48.5,47.8c0,1.1,0.9,2,2,2h5.6c1.1,0,2-0.9,2-2V30.3c0-1.1-0.9-2-2-2h-5.6c-1.1,0-2,0.9-2,2V47.8z"/>
		<path class="st1" d="M56.1,51.7h-5.6c-2.1,0-3.9-1.7-3.9-3.9V30.3c0-2.1,1.7-3.9,3.9-3.9h5.6c2.1,0,3.9,1.7,3.9,3.9v17.5
			C60,49.9,58.3,51.7,56.1,51.7z M50.6,30.2c-0.1,0-0.2,0.1-0.2,0.2v17.5c0,0.1,0.1,0.2,0.2,0.2h5.6c0.1,0,0.2-0.1,0.2-0.2V30.3
			c0-0.1-0.1-0.2-0.2-0.2C56.1,30.2,50.6,30.2,50.6,30.2z"/>
	</g>
	<g>
		<path class="st1" d="M46.7,30c-0.2-6.8-2.1-11.7-5.8-14.7c-5.5-4.5-13.4-3-13.5-3l-0.7-3.6c0.4-0.1,9.5-1.8,16.4,3.8
			c4.6,3.7,7,9.6,7.2,17.5L46.7,30z"/>
	</g>
	<g>
		<path class="st2" d="M48.5,47.8c0,1.1,0.9,2,2,2h5.6c1.1,0,2-0.9,2-2V30.3c0-1.1-0.9-2-2-2h-5.6c-1.1,0-2,0.9-2,2V47.8z"/>
		<path class="st1" d="M56.1,51.7h-5.6c-2.1,0-3.9-1.7-3.9-3.9V30.3c0-2.1,1.7-3.9,3.9-3.9h5.6c2.1,0,3.9,1.7,3.9,3.9v17.5
			C60,49.9,58.3,51.7,56.1,51.7z M50.6,30.2c-0.1,0-0.2,0.1-0.2,0.2v17.5c0,0.1,0.1,0.2,0.2,0.2h5.6c0.1,0,0.2-0.1,0.2-0.2V30.3
			c0-0.1-0.1-0.2-0.2-0.2C56.1,30.2,50.6,30.2,50.6,30.2z"/>
	</g>
	<g>
		<path class="st1" d="M46.7,30c-0.2-6.8-2.1-11.7-5.8-14.7c-5.5-4.5-13.4-3-13.5-3l-0.7-3.6c0.4-0.1,9.5-1.8,16.4,3.8
			c4.6,3.7,7,9.6,7.2,17.5L46.7,30z"/>
	</g>
	<g>
		<path class="st1" d="M31.5,45.3c-0.1,0-0.2,0-0.3,0c-0.7-0.1-1.2-0.6-1.4-1.3L27,34.7l-2.4,3.9c-0.3,0.6-0.9,0.9-1.6,0.9h-5.4
			c-1,0-1.8-0.8-1.8-1.8s0.8-1.8,1.8-1.8h4.3l4-6.7c0.4-0.6,1.1-1,1.8-0.9c0.7,0.1,1.3,0.6,1.5,1.3l2.8,9.8l2.2-2.9
			c0.3-0.5,0.9-0.7,1.5-0.7h5.5c1,0,1.8,0.8,1.8,1.8s-0.8,1.8-1.8,1.8h-4.6l-3.9,5.1C32.6,45.1,32,45.3,31.5,45.3z"/>
	</g>
</g>
</svg>
