<?xml version="1.0" encoding="utf-8"?>
<!-- Generator: Adobe Illustrator 19.2.1, SVG Export Plug-In . SVG Version: 6.00 Build 0)  -->
<svg version="1.1" id="Layer_1" xmlns="http://www.w3.org/2000/svg" xmlns:xlink="http://www.w3.org/1999/xlink" x="0px" y="0px"
	 viewBox="0 0 60 60" style="enable-background:new 0 0 60 60;" xml:space="preserve">
<style type="text/css">
	.st0{fill:#D1D2D3;}
	.st1{fill:#231F20;}
	.st2{fill:#FFFFFF;}
</style>
<g>
	<g>
		<rect x="5.5" y="32.7" class="st0" width="48.9" height="25.7"/>
		<path class="st1" d="M54.5,60H5.5c-0.9,0-1.6-0.7-1.6-1.6V32.7c0-0.9,0.7-1.6,1.6-1.6h48.9c0.9,0,1.6,0.7,1.6,1.6v25.7
			C56.1,59.3,55.4,60,54.5,60z M7.2,56.7h45.7V34.3H7.2V56.7z"/>
	</g>
	<g>
		<path class="st1" d="M51.2,34.3H8.8c-0.9,0-1.6-0.7-1.6-1.6V7c0-0.9,0.7-1.6,1.6-1.6h42.5c0.9,0,1.6,0.7,1.6,1.6v25.7
			C52.9,33.6,52.1,34.3,51.2,34.3z M10.4,31.1h39.2V8.6H10.4V31.1z"/>
	</g>
	<g>
		<rect x="26.4" y="15.7" transform="matrix(0.7073 -0.707 0.707 0.7073 -5.091 27.3968)" class="st0" width="8.2" height="8.2"/>
		<path class="st1" d="M30.5,27.3c-0.4,0-0.8-0.2-1.2-0.5L23.6,21c-0.6-0.6-0.6-1.7,0-2.3l5.8-5.8c0.6-0.6,1.7-0.6,2.3,0l5.8,5.8
			c0.3,0.3,0.5,0.7,0.5,1.2c0,0.4-0.2,0.8-0.5,1.2l-5.8,5.8C31.4,27.1,31,27.3,30.5,27.3z M27,19.8l3.5,3.5l3.5-3.5l-3.5-3.5
			L27,19.8z"/>
	</g>
	<g>
		<rect x="12.9" y="1.6" class="st0" width="9.4" height="5.3"/>
		<path class="st1" d="M22.3,8.6h-9.4c-0.9,0-1.6-0.7-1.6-1.6V1.6C11.3,0.7,12,0,12.9,0h9.4C23.2,0,24,0.7,24,1.6V7
			C24,7.9,23.2,8.6,22.3,8.6z M14.5,5.3h6.2V3.3h-6.2V5.3z"/>
	</g>
	<g>
		<rect x="37.5" y="1.6" class="st0" width="9.4" height="5.3"/>
		<path class="st1" d="M46.9,8.6h-9.4c-0.9,0-1.6-0.7-1.6-1.6V1.6c0-0.9,0.7-1.6,1.6-1.6h9.4c0.9,0,1.6,0.7,1.6,1.6V7
			C48.6,7.9,47.8,8.6,46.9,8.6z M39.1,5.3h6.2V3.3h-6.2V5.3z"/>
	</g>
	<g>
		<line class="st2" x1="16.1" y1="18.4" x2="16.1" y2="41.9"/>
		<path class="st1" d="M16.1,43.5c-0.9,0-1.6-0.7-1.6-1.6V18.4c0-0.9,0.7-1.6,1.6-1.6c0.9,0,1.6,0.7,1.6,1.6v23.5
			C17.7,42.8,17,43.5,16.1,43.5z"/>
	</g>
	<g>
		<line class="st2" x1="43.9" y1="18.4" x2="43.9" y2="41.9"/>
		<path class="st1" d="M43.9,43.5c-0.9,0-1.6-0.7-1.6-1.6V18.4c0-0.9,0.7-1.6,1.6-1.6c0.9,0,1.6,0.7,1.6,1.6v23.5
			C45.5,42.8,44.8,43.5,43.9,43.5z"/>
	</g>
</g>
</svg>
