<?xml version="1.0" encoding="utf-8"?>
<!-- Generator: Adobe Illustrator 19.2.1, SVG Export Plug-In . SVG Version: 6.00 Build 0)  -->
<svg version="1.1" id="Layer_1" xmlns="http://www.w3.org/2000/svg" xmlns:xlink="http://www.w3.org/1999/xlink" x="0px" y="0px"
	 viewBox="0 0 60 60" style="enable-background:new 0 0 60 60;" xml:space="preserve">
<style type="text/css">
	.st0{fill:#D2D3D4;}
	.st1{fill:#231F20;}
</style>
<g>
	<g>
		<polygon class="st0" points="1.2,33.2 5.5,43.4 10.9,50.4 16.4,54.4 16.4,48.3 12.8,39.5 8.3,33.7 2.1,31.7 		"/>
	</g>
	<g>
		<polygon class="st0" points="37.9,3.8 34.4,17.5 36.4,26.3 40.5,30.7 47.6,33.6 57.9,34.9 57.6,25.8 54,15.7 46.7,8.8 		"/>
	</g>
	<g>
		<path class="st1" d="M30,60C13.5,60,0,46.5,0,30C0,13.5,13.5,0,30,0c16.5,0,30,13.5,30,30C60,46.5,46.5,60,30,60z M30,4.1
			C15.7,4.1,4.1,15.7,4.1,30S15.7,55.9,30,55.9c14.3,0,25.9-11.6,25.9-25.9S44.3,4.1,30,4.1z"/>
	</g>
	<g>
		<path class="st1" d="M43.6,56.5c-0.2,0-0.5,0-0.7-0.1C6.5,42.7,17.1,4.1,17.2,3.7c0.3-1.1,1.5-1.7,2.6-1.4
			c1.1,0.3,1.7,1.5,1.4,2.6c-0.4,1.5-9.6,35.3,23.1,47.6c1.1,0.4,1.6,1.6,1.2,2.7C45.2,55.9,44.4,56.5,43.6,56.5z"/>
	</g>
	<g>
		<path class="st1" d="M54.8,36.4c-4.9,0-14.4-0.9-19.4-7.7c-4.4-6-4.2-14.8,0.7-26.3c0.4-1.1,1.7-1.5,2.7-1.1C40,1.8,40.4,3,40,4.1
			c-4.3,10-4.7,17.5-1.2,22.2c5.3,7.2,18.5,5.9,18.6,5.9c1.1-0.1,2.2,0.7,2.3,1.8c0.1,1.1-0.7,2.2-1.8,2.3
			C57.7,36.3,56.5,36.4,54.8,36.4z"/>
	</g>
	<g>
		<path class="st1" d="M17.7,57.1c-1,0-1.9-0.7-2-1.8c-0.8-5.6-4.5-20.3-11.9-21.6c-1.1-0.2-1.9-1.3-1.7-2.4
			c0.2-1.1,1.3-1.9,2.4-1.7c11.8,2.2,15.1,24.2,15.3,25.1c0.2,1.1-0.6,2.2-1.8,2.3C17.9,57.1,17.8,57.1,17.7,57.1z"/>
	</g>
	<g>
		<path class="st1" d="M8.3,49.6c-0.1,0-0.1,0-0.2,0c-1.1-0.1-2-1.1-1.9-2.2c1.9-25.2,47.2-30.4,49.1-30.7c1.1-0.1,2.2,0.7,2.3,1.8
			s-0.7,2.2-1.8,2.3c-0.4,0-43.8,5-45.5,26.9C10.3,48.8,9.4,49.6,8.3,49.6z"/>
	</g>
</g>
</svg>
