<?xml version="1.0" encoding="utf-8"?>
<!-- Generator: Adobe Illustrator 16.0.0, SVG Export Plug-In . SVG Version: 6.00 Build 0)  -->
<!DOCTYPE svg PUBLIC "-//W3C//DTD SVG 1.1//EN" "http://www.w3.org/Graphics/SVG/1.1/DTD/svg11.dtd">
<svg version="1.1" id="Layer_1" xmlns="http://www.w3.org/2000/svg" xmlns:xlink="http://www.w3.org/1999/xlink" x="0px" y="0px"
	 width="60px" height="60px" viewBox="0 0 60 60" enable-background="new 0 0 60 60" xml:space="preserve">
<g>
	<g>
		<polygon fill="#D2D3D4" points="1.225,33.174 5.485,43.383 10.889,50.359 16.384,54.385 16.384,48.264 12.768,39.475 
			8.285,33.707 2.129,31.699 		"/>
	</g>
	<g>
		<polygon fill="#D2D3D4" points="37.864,3.802 34.402,17.483 36.355,26.286 40.531,30.682 47.561,33.557 57.927,34.924 
			57.611,25.786 53.976,15.672 46.739,8.763 		"/>
	</g>
	<g>
		<path fill="#231F20" d="M30,60C13.458,60,0,46.543,0,30C0,13.458,13.458,0,30,0C46.543,0,60,13.458,60,30
			C60,46.543,46.543,60,30,60z M30,4.147C15.745,4.147,4.146,15.744,4.146,30c0,14.256,11.599,25.854,25.854,25.854
			c14.257,0,25.854-11.598,25.854-25.854C55.854,15.744,44.257,4.147,30,4.147z"/>
	</g>
	<g>
		<path fill="#FFFFFF" d="M19.195,4.242c0,0-10.612,36.99,24.413,50.143"/>
		<path fill="#231F20" d="M43.608,56.459c-0.242,0-0.487-0.043-0.729-0.133C6.483,42.66,17.091,4.059,17.202,3.67
			c0.315-1.101,1.464-1.737,2.564-1.422c1.101,0.316,1.737,1.465,1.421,2.565c-0.417,1.467-9.617,35.325,23.15,47.629
			c1.072,0.402,1.615,1.598,1.213,2.67C45.237,55.945,44.448,56.459,43.608,56.459z"/>
	</g>
	<g>
		<path fill="#231F20" d="M54.839,36.402c-4.853,0-14.354-0.932-19.366-7.689c-4.414-5.953-4.176-14.787,0.706-26.258
			c0.448-1.054,1.667-1.546,2.72-1.095c1.054,0.449,1.544,1.666,1.096,2.719c-4.262,10.014-4.665,17.467-1.198,22.154
			c5.343,7.224,18.461,5.925,18.596,5.915c1.144-0.119,2.158,0.703,2.279,1.842c0.122,1.137-0.7,2.158-1.837,2.279
			C57.669,36.289,56.54,36.402,54.839,36.402z"/>
	</g>
	<g>
		<path fill="#231F20" d="M17.682,57.139c-1.014,0-1.9-0.744-2.049-1.777c-0.804-5.559-4.508-20.277-11.911-21.623
			c-1.126-0.205-1.874-1.285-1.669-2.412c0.206-1.125,1.287-1.867,2.411-1.668c11.846,2.156,15.139,24.176,15.272,25.113
			c0.163,1.133-0.623,2.184-1.756,2.346C17.88,57.131,17.78,57.139,17.682,57.139z"/>
	</g>
	<g>
		<path fill="#231F20" d="M8.287,49.625c-0.053,0-0.105-0.002-0.158-0.006c-1.143-0.086-1.998-1.082-1.911-2.225
			c1.91-25.233,47.212-30.45,49.14-30.659c1.137-0.121,2.161,0.698,2.285,1.836c0.124,1.138-0.699,2.161-1.837,2.286
			c-0.438,0.048-43.802,5.038-45.453,26.852C10.27,48.797,9.361,49.625,8.287,49.625z"/>
	</g>
</g>
</svg>
