<?xml version="1.0" encoding="utf-8"?>
<!-- Generator: Adobe Illustrator 19.2.1, SVG Export Plug-In . SVG Version: 6.00 Build 0)  -->
<svg version="1.1" id="Layer_1" xmlns="http://www.w3.org/2000/svg" xmlns:xlink="http://www.w3.org/1999/xlink" x="0px" y="0px"
	 viewBox="0 0 60 60" style="enable-background:new 0 0 60 60;" xml:space="preserve">
<style type="text/css">
	.st0{fill:#D2D3D4;}
	.st1{fill:#231F20;}
	.st2{fill:#FFFFFF;}
	.st3{fill:#010101;}
</style>
<g>
	<g>
		<circle class="st0" cx="30" cy="8.1" r="6"/>
		<path class="st1" d="M30,16.3c-4.5,0-8.1-3.6-8.1-8.1C21.9,3.6,25.5,0,30,0c4.5,0,8.1,3.6,8.1,8.1C38.1,12.6,34.5,16.3,30,16.3z
			 M30,4.2c-2.2,0-4,1.8-4,4c0,2.2,1.8,4,4,4s4-1.8,4-4C34,5.9,32.2,4.2,30,4.2z"/>
	</g>
	<g>
		<circle class="st0" cx="30" cy="51.9" r="6"/>
		<path class="st1" d="M30,60c-4.5,0-8.1-3.6-8.1-8.1c0-4.5,3.6-8.1,8.1-8.1c4.5,0,8.1,3.6,8.1,8.1C38.1,56.4,34.5,60,30,60z
			 M30,47.9c-2.2,0-4,1.8-4,4c0,2.2,1.8,4,4,4s4-1.8,4-4C34,49.7,32.2,47.9,30,47.9z"/>
	</g>
	<g>
		<circle class="st0" cx="51.9" cy="30" r="6"/>
		<path class="st1" d="M51.9,38.1c-4.5,0-8.1-3.6-8.1-8.1c0-4.5,3.6-8.1,8.1-8.1S60,25.5,60,30C60,34.5,56.4,38.1,51.9,38.1z
			 M51.9,26c-2.2,0-4,1.8-4,4s1.8,4,4,4s4-1.8,4-4S54.1,26,51.9,26z"/>
	</g>
	<g>
		<circle class="st0" cx="8.1" cy="30" r="6"/>
		<path class="st1" d="M8.1,38.1C3.6,38.1,0,34.5,0,30c0-4.5,3.6-8.1,8.1-8.1c4.5,0,8.1,3.6,8.1,8.1C16.3,34.5,12.6,38.1,8.1,38.1z
			 M8.1,26c-2.2,0-4,1.8-4,4s1.8,4,4,4c2.2,0,4-1.8,4-4S10.3,26,8.1,26z"/>
	</g>
	<g>
		<ellipse transform="matrix(0.5127 -0.8585 0.8585 0.5127 -11.6159 61.956)" class="st0" cx="48.8" cy="41.2" rx="6" ry="6"/>
		<path class="st1" d="M48.8,49.3c-1.4,0-2.9-0.4-4.2-1.1l0,0c-3.8-2.3-5.1-7.3-2.8-11.2c1.1-1.9,2.9-3.2,5-3.7
			c2.1-0.5,4.3-0.2,6.2,0.9c1.9,1.1,3.2,2.9,3.7,5c0.5,2.1,0.2,4.3-0.9,6.2C54.2,47.9,51.5,49.3,48.8,49.3z M46.7,44.6
			c1.9,1.1,4.3,0.5,5.4-1.4c0.5-0.9,0.7-2,0.4-3c-0.3-1-0.9-1.9-1.8-2.4c-0.9-0.5-2-0.7-3-0.4c-1,0.3-1.9,0.9-2.4,1.8
			C44.3,41.1,44.9,43.5,46.7,44.6L46.7,44.6z"/>
	</g>
	<g>
		<ellipse transform="matrix(0.5127 -0.8585 0.8585 0.5127 -10.6615 18.7918)" class="st0" cx="11.2" cy="18.8" rx="6" ry="6"/>
		<path class="st1" d="M11.2,26.9c-1.4,0-2.9-0.4-4.2-1.1l0,0c-1.9-1.1-3.2-2.9-3.7-5c-0.5-2.1-0.2-4.3,0.9-6.2
			c1.1-1.9,2.9-3.2,5-3.7c2.1-0.5,4.3-0.2,6.2,0.9c1.9,1.1,3.2,2.9,3.7,5s0.2,4.3-0.9,6.2C16.7,25.5,14,26.9,11.2,26.9z M9.2,22.2
			c0.9,0.5,2,0.7,3,0.4c1-0.3,1.9-0.9,2.4-1.8s0.7-2,0.4-3c-0.3-1-0.9-1.9-1.8-2.4c-0.9-0.5-2-0.7-3-0.4c-1,0.3-1.9,0.9-2.4,1.8
			c-0.5,0.9-0.7,2-0.4,3C7.6,20.8,8.3,21.6,9.2,22.2L9.2,22.2z"/>
	</g>
	<g>
		<ellipse transform="matrix(0.8716 -0.4903 0.4903 0.8716 -18.823 26.2672)" class="st0" cx="40.7" cy="49.1" rx="6" ry="6"/>
		<path class="st1" d="M40.7,57.2c-2.8,0-5.6-1.5-7.1-4.1c0,0,0,0,0,0c-1.1-1.9-1.3-4.1-0.7-6.2c0.6-2.1,2-3.8,3.8-4.9
			c3.9-2.2,8.9-0.8,11.1,3.1c2.2,3.9,0.8,8.9-3.1,11.1C43.5,56.9,42.1,57.2,40.7,57.2z M37.3,51c1.1,1.9,3.5,2.6,5.4,1.5
			c1.9-1.1,2.6-3.5,1.5-5.4c-1.1-1.9-3.5-2.6-5.4-1.5C36.9,46.7,36.2,49.1,37.3,51L37.3,51z"/>
	</g>
	<g>
		<ellipse transform="matrix(0.8715 -0.4903 0.4903 0.8715 -2.8878 10.8586)" class="st0" cx="19.3" cy="10.9" rx="6" ry="6"/>
		<path class="st1" d="M19.3,19.1c-0.7,0-1.5-0.1-2.2-0.3c-2.1-0.6-3.8-2-4.9-3.8s-1.3-4.1-0.7-6.2c0.6-2.1,2-3.8,3.8-4.9
			c1.9-1.1,4.1-1.3,6.2-0.7c2.1,0.6,3.8,2,4.9,3.8c2.2,3.9,0.8,8.9-3.1,11.1C22,18.7,20.7,19.1,19.3,19.1z M19.3,7
			c-0.7,0-1.3,0.2-1.9,0.5c-0.9,0.5-1.6,1.4-1.9,2.4c-0.3,1-0.2,2.1,0.4,3s1.4,1.6,2.4,1.9c1,0.3,2.1,0.2,3-0.4
			c1.9-1.1,2.6-3.5,1.5-5.4c-0.5-0.9-1.4-1.6-2.4-1.9C20,7,19.6,7,19.3,7z"/>
	</g>
	<g>
		<ellipse transform="matrix(0.4685 -0.8835 0.8835 0.4685 -33.0726 43.6685)" class="st0" cx="19.8" cy="49.3" rx="6" ry="6"/>
		<path class="st1" d="M19.7,57.5c-1.3,0-2.6-0.3-3.8-0.9c-4-2.1-5.5-7-3.4-11c0,0,0,0,0,0c2.1-4,7-5.5,11-3.4c4,2.1,5.5,7,3.4,11
			C25.5,55.9,22.7,57.5,19.7,57.5z M16.3,47.5c-1,1.9-0.3,4.3,1.6,5.4c1.9,1,4.3,0.3,5.4-1.6c1-1.9,0.3-4.3-1.6-5.4
			C19.7,44.8,17.3,45.5,16.3,47.5L16.3,47.5z"/>
	</g>
	<g>
		<ellipse transform="matrix(0.4685 -0.8835 0.8835 0.4685 11.9562 41.2315)" class="st0" cx="40.2" cy="10.7" rx="6" ry="6"/>
		<path class="st1" d="M40.2,18.8c-1.3,0-2.6-0.3-3.8-0.9c-4-2.1-5.5-7-3.4-11c0,0,0,0,0,0c1-1.9,2.7-3.3,4.8-4
			c2.1-0.6,4.3-0.4,6.2,0.6c1.9,1,3.3,2.7,4,4.8c0.6,2.1,0.4,4.3-0.6,6.2C46,17.2,43.1,18.8,40.2,18.8z M36.7,8.8
			c-1,1.9-0.3,4.3,1.6,5.4c1.9,1,4.3,0.3,5.4-1.6c0.5-0.9,0.6-2,0.3-3s-1-1.8-1.9-2.3c-0.9-0.5-2-0.6-3-0.3
			C38.1,7.2,37.2,7.9,36.7,8.8z"/>
	</g>
	<g>
		<ellipse transform="matrix(0.8941 -0.448 0.448 0.8941 -16.7195 8.8966)" class="st0" cx="10.4" cy="39.8" rx="6" ry="6"/>
		<path class="st1" d="M10.5,47.9c-3,0-5.9-1.6-7.3-4.5c-2-4-0.4-8.9,3.6-10.9c0,0,0,0,0,0c4-2,8.9-0.4,10.9,3.6
			c2,4,0.4,8.9-3.6,10.9C12.9,47.6,11.7,47.9,10.5,47.9z M8.7,36.3c-2,1-2.7,3.4-1.8,5.3s3.4,2.7,5.3,1.8c1.9-1,2.7-3.4,1.8-5.3
			c-0.5-0.9-1.3-1.6-2.3-2C10.7,35.7,9.6,35.8,8.7,36.3L8.7,36.3z"/>
	</g>
	<g>
		<ellipse transform="matrix(0.8941 -0.4479 0.4479 0.8941 -3.8015 24.3313)" class="st0" cx="49.6" cy="20.2" rx="6" ry="6"/>
		<path class="st1" d="M49.6,28.3c-0.9,0-1.7-0.1-2.6-0.4c-2.1-0.7-3.7-2.1-4.7-4.1c-2-4-0.4-8.9,3.6-10.9l0,0
			c1.9-1,4.1-1.1,6.2-0.4c2.1,0.7,3.7,2.1,4.7,4.1c1,1.9,1.1,4.1,0.4,6.2c-0.7,2.1-2.1,3.7-4.1,4.7C52,28.1,50.8,28.3,49.6,28.3z
			 M47.8,16.7c-2,1-2.7,3.4-1.8,5.3c0.5,0.9,1.3,1.6,2.3,2c1,0.3,2.1,0.3,3-0.2c0.9-0.5,1.7-1.3,2-2.3c0.3-1,0.3-2.1-0.2-3
			c-0.5-0.9-1.3-1.7-2.3-2C49.8,16.1,48.7,16.2,47.8,16.7L47.8,16.7z"/>
	</g>
	<g>
		<circle class="st2" cx="30" cy="30" r="18.7"/>
		<path class="st1" d="M30,50.8C18.5,50.8,9.2,41.5,9.2,30C9.2,18.5,18.5,9.2,30,9.2S50.8,18.5,50.8,30C50.8,41.5,41.5,50.8,30,50.8
			z M30,13.4c-9.2,0-16.6,7.5-16.6,16.6S20.8,46.6,30,46.6S46.6,39.2,46.6,30S39.2,13.4,30,13.4z"/>
	</g>
	<g>
		<g>
			<path class="st3" d="M29.5,37.1V25.8h-2.6v-2.9h6.2v14.2H29.5z"/>
		</g>
	</g>
</g>
</svg>
