<?xml version="1.0" encoding="utf-8"?>
<!-- Generator: Adobe Illustrator 16.0.0, SVG Export Plug-In . SVG Version: 6.00 Build 0)  -->
<!DOCTYPE svg PUBLIC "-//W3C//DTD SVG 1.1//EN" "http://www.w3.org/Graphics/SVG/1.1/DTD/svg11.dtd">
<svg version="1.1" id="Layer_1" xmlns="http://www.w3.org/2000/svg" xmlns:xlink="http://www.w3.org/1999/xlink" x="0px" y="0px"
	 width="60px" height="60px" viewBox="0 0 60 60" enable-background="new 0 0 60 60" xml:space="preserve">
<g>
	<g>
		<path fill="#D2D3D4" d="M58.212,45.472c0,2.332-1.892,4.223-4.223,4.223H6.012c-2.331,0-4.223-1.891-4.223-4.223V37.11
			c0-2.332,1.892-4.223,4.223-4.223h47.978c2.331,0,4.223,1.891,4.223,4.223V45.472z"/>
		<path fill="#231F20" d="M53.989,51.483H6.012C2.697,51.483,0,48.787,0,45.472V37.11C0,33.796,2.697,31.1,6.012,31.1h47.978
			C57.304,31.1,60,33.796,60,37.11v8.361C60,48.787,57.304,51.483,53.989,51.483z M6.012,34.677c-1.342,0-2.434,1.092-2.434,2.434
			v8.361c0,1.342,1.092,2.434,2.434,2.434h47.978c1.342,0,2.434-1.092,2.434-2.434V37.11c0-1.342-1.092-2.434-2.434-2.434H6.012z"/>
	</g>
	<g>
		<path fill="#231F20" d="M5.342,34.678c-0.783,0-1.502-0.519-1.723-1.311c-0.123-0.442-2.948-10.917,2.609-18.23
			c3.338-4.393,8.882-6.62,16.479-6.62h12.146c0.988,0,1.789,0.801,1.789,1.789c0,0.988-0.801,1.789-1.789,1.789H22.707
			c-6.419,0-11.005,1.751-13.63,5.207c-4.495,5.916-2.036,15.016-2.011,15.107c0.265,0.952-0.292,1.938-1.244,2.203
			C5.662,34.656,5.501,34.678,5.342,34.678z"/>
	</g>
	<g>
		<path fill="#231F20" d="M54.659,34.678c-0.157,0-0.319-0.021-0.48-0.066c-0.951-0.265-1.508-1.25-1.244-2.201
			c0.042-0.153,2.451-9.256-2.021-15.123c-2.627-3.446-7.21-5.193-13.621-5.193H25.147c-0.988,0-1.789-0.801-1.789-1.789
			c0-0.988,0.801-1.789,1.789-1.789h12.146c7.598,0,13.143,2.227,16.479,6.62c5.558,7.313,2.733,17.788,2.609,18.23
			C56.162,34.159,55.443,34.678,54.659,34.678z"/>
	</g>
	<g>
		<path fill="#231F20" d="M34.948,27.344c-0.301,0-0.605-0.076-0.886-0.236l-9.898-5.653c-0.857-0.49-1.155-1.583-0.666-2.441
			c0.491-0.857,1.585-1.155,2.441-0.666l9.897,5.654c0.858,0.49,1.156,1.583,0.666,2.441C36.173,27.02,35.569,27.344,34.948,27.344z
			"/>
	</g>
	<g>
		<path fill="#231F20" d="M25.054,27.344c-0.621,0-1.226-0.324-1.556-0.902c-0.489-0.858-0.191-1.951,0.666-2.441l9.898-5.654
			c0.861-0.49,1.951-0.191,2.44,0.666c0.49,0.858,0.192,1.951-0.666,2.441l-9.897,5.653C25.659,27.268,25.354,27.344,25.054,27.344z
			"/>
	</g>
</g>
</svg>
