<?xml version="1.0" encoding="utf-8"?>
<!-- Generator: Adobe Illustrator 19.2.1, SVG Export Plug-In . SVG Version: 6.00 Build 0)  -->
<svg version="1.1" id="Layer_1" xmlns="http://www.w3.org/2000/svg" xmlns:xlink="http://www.w3.org/1999/xlink" x="0px" y="0px"
	 viewBox="0 0 60 60" style="enable-background:new 0 0 60 60;" xml:space="preserve">
<style type="text/css">
	.st0{fill:#231F20;}
	.st1{fill:#FFFFFF;}
	.st2{fill:#D2D3D4;}
</style>
<g>
	<g>
		<path class="st0" d="M56.3,49.4H45.1c-1.2,0-2.2-1-2.2-2.2c0-1.2,1-2.2,2.2-2.2h9V26.8h-9c-1.2,0-2.2-1-2.2-2.2
			c0-1.2,1-2.2,2.2-2.2h11.1c1.2,0,2.2,1,2.2,2.2v22.6C58.4,48.4,57.5,49.4,56.3,49.4z"/>
	</g>
	<g>
		<rect x="8.2" y="10.8" class="st1" width="39.4" height="47.1"/>
		<path class="st0" d="M47.7,60H8.2c-1.2,0-2.2-1-2.2-2.2V10.8c0-1.2,1-2.2,2.2-2.2h39.4c1.2,0,2.2,1,2.2,2.2v47.1
			C49.8,59,48.8,60,47.7,60z M10.4,55.7h35.1V12.9H10.4V55.7z"/>
	</g>
	<g>
		<path class="st2" d="M43.5,2.2c-3.7,0-6.9,2.3-8.1,5.6c-1.2-3.3-4.4-5.6-8.1-5.6c-3.2,0-6.1,1.8-7.5,4.4c-1.5-2.6-4.3-4.4-7.5-4.4
			c-4.8,0-8.6,3.9-8.6,8.6c0,4.8,3.9,8.6,8.6,8.6c3.2,0,6.1-1.8,7.5-4.4c1.5,2.6,4.3,4.4,7.5,4.4c3.7,0,6.9-2.3,8.1-5.6
			c1.2,3.3,4.4,5.6,8.1,5.6c4.8,0,8.6-3.9,8.6-8.6C52.1,6,48.3,2.2,43.5,2.2z"/>
		<path class="st0" d="M43.5,21.5c-3.1,0-6.1-1.4-8.1-3.7c-2,2.3-4.9,3.7-8.1,3.7c-2.9,0-5.5-1.1-7.5-3.1c-2,1.9-4.7,3.1-7.5,3.1
			c-5.9,0-10.8-4.8-10.8-10.8S6.4,0,12.3,0c2.9,0,5.5,1.1,7.5,3.1c2-1.9,4.7-3.1,7.5-3.1c3.1,0,6.1,1.4,8.1,3.7
			c2-2.3,4.9-3.7,8.1-3.7c5.9,0,10.8,4.8,10.8,10.8S49.5,21.5,43.5,21.5z M35.5,11.6c0.9,0,1.7,0.6,2,1.4c0.9,2.5,3.4,4.2,6,4.2
			c3.6,0,6.5-2.9,6.5-6.5s-2.9-6.5-6.5-6.5c-2.7,0-5.1,1.7-6,4.2c-0.3,0.8-1.1,1.4-2,1.4s-1.7-0.6-2-1.4c-0.9-2.5-3.4-4.2-6-4.2
			c-2.3,0-4.5,1.3-5.6,3.3c-0.4,0.7-1.1,1.1-1.9,1.1c-0.8,0-1.5-0.4-1.9-1.1c-1.1-2.1-3.3-3.3-5.6-3.3c-3.6,0-6.5,2.9-6.5,6.5
			s2.9,6.5,6.5,6.5c2.3,0,4.5-1.3,5.6-3.3c0.4-0.7,1.1-1.1,1.9-1.1c0.8,0,1.5,0.4,1.9,1.1c1.1,2.1,3.3,3.3,5.6,3.3
			c2.7,0,5.1-1.7,6-4.2C33.8,12.1,34.6,11.6,35.5,11.6z"/>
	</g>
	<g>
		<line class="st2" x1="21.5" y1="26.7" x2="21.5" y2="46.5"/>
		<path class="st0" d="M21.5,48.6c-1.2,0-2.2-1-2.2-2.2V26.7c0-1.2,1-2.2,2.2-2.2c1.2,0,2.2,1,2.2,2.2v19.8
			C23.6,47.7,22.7,48.6,21.5,48.6z"/>
	</g>
	<g>
		<line class="st2" x1="33.3" y1="26.7" x2="33.3" y2="46.5"/>
		<path class="st0" d="M33.3,48.6c-1.2,0-2.2-1-2.2-2.2V26.7c0-1.2,1-2.2,2.2-2.2c1.2,0,2.2,1,2.2,2.2v19.8
			C35.5,47.7,34.5,48.6,33.3,48.6z"/>
	</g>
</g>
</svg>
