<?xml version="1.0" encoding="utf-8"?>
<!-- Generator: Adobe Illustrator 16.0.0, SVG Export Plug-In . SVG Version: 6.00 Build 0)  -->
<!DOCTYPE svg PUBLIC "-//W3C//DTD SVG 1.1//EN" "http://www.w3.org/Graphics/SVG/1.1/DTD/svg11.dtd">
<svg version="1.1" id="Layer_1" xmlns="http://www.w3.org/2000/svg" xmlns:xlink="http://www.w3.org/1999/xlink" x="0px" y="0px"
	 width="60px" height="60px" viewBox="0 0 60 60" enable-background="new 0 0 60 60" xml:space="preserve">
<g>
	<g>
		<polygon fill="#D2D3D4" points="32.549,9.377 58.077,18.777 29.322,36.602 5.554,25.452 		"/>
		<path fill="#231F20" d="M29.322,38.523c-0.278,0-0.557-0.06-0.816-0.182L4.737,27.191c-0.644-0.302-1.068-0.935-1.103-1.645
			c-0.035-0.71,0.325-1.382,0.936-1.746L31.565,7.726c0.499-0.296,1.103-0.352,1.647-0.152l25.529,9.401
			c0.688,0.254,1.174,0.879,1.248,1.61c0.073,0.731-0.276,1.439-0.9,1.827L30.334,38.235C30.025,38.427,29.674,38.523,29.322,38.523
			z M9.648,25.25l19.546,9.169l24.522-15.2l-20.973-7.723L9.648,25.25z"/>
	</g>
	<g>
		<path fill="#231F20" d="M28.774,52.544c-0.292,0-0.584-0.066-0.854-0.2L4.699,40.813C4.47,40.7,4.267,40.543,4.1,40.35
			c-3.251-3.762-4.58-7.322-3.946-10.583c0.789-4.065,4.371-5.946,4.522-6.024c0.943-0.485,2.102-0.113,2.587,0.832
			c0.482,0.94,0.116,2.092-0.819,2.581c-0.063,0.035-2.117,1.177-2.525,3.38c-0.359,1.939,0.623,4.359,2.843,7.013l21.92,10.883
			l27.474-16.665V19.397c0-1.062,0.86-1.922,1.921-1.922c1.062,0,1.922,0.86,1.922,1.922v13.451c0,0.672-0.351,1.295-0.925,1.643
			L29.771,52.266C29.466,52.45,29.121,52.544,28.774,52.544z"/>
	</g>
	<g>
		<polygon fill="#231F20" points="33.418,13.792 48.39,19.557 44.714,21.841 30.001,16.143 		"/>
	</g>
</g>
</svg>
