<?xml version="1.0" encoding="utf-8"?>
<!-- Generator: Adobe Illustrator 19.2.1, SVG Export Plug-In . SVG Version: 6.00 Build 0)  -->
<svg version="1.1" id="Layer_1" xmlns="http://www.w3.org/2000/svg" xmlns:xlink="http://www.w3.org/1999/xlink" x="0px" y="0px"
	 viewBox="0 0 60 60" style="enable-background:new 0 0 60 60;" xml:space="preserve">
<style type="text/css">
	.st0{fill:#D1D2D3;}
	.st1{fill:#231F20;}
	.st2{fill:#FFFFFF;}
</style>
<g>
	<g>
		<path class="st0" d="M34.7,44.1H2.1c0,0-6.3-12.5,22.5-16.9c28.8-4.4,22.5,8.5,22.5,8.5L34.7,44.1z"/>
		<path class="st1" d="M34.7,45.6H2.1c-0.6,0-1.1-0.3-1.4-0.9c-0.1-0.2-1.8-3.8,0.4-8c2.8-5.5,10.7-9.2,23.3-11.1
			C37.1,23.7,45,24.8,48,28.9c2.5,3.4,0.6,7.2,0.6,7.4c-0.1,0.2-0.3,0.5-0.5,0.6l-12.5,8.5C35.3,45.5,35,45.6,34.7,45.6z M3.2,42.5
			h31l11.7-7.9c0.2-0.7,0.7-2.4-0.4-3.9c-1.3-1.7-5.7-4.3-20.6-2c-14.4,2.2-19.4,6.3-21,9.4C2.9,39.9,3,41.6,3.2,42.5z"/>
	</g>
	<g>
		<path class="st2" d="M58.5,44.1c0,0,0-29.5-4.4-33.8H32.6c0,0-0.4,13.3-13.6,17.9l8.8,15.9H58.5z"/>
		<path class="st1" d="M58.5,45.6H27.8c-0.6,0-1.1-0.3-1.4-0.8l-8.8-15.9c-0.2-0.4-0.3-0.9-0.1-1.3c0.2-0.4,0.5-0.8,0.9-0.9
			c12.1-4.2,12.6-16.4,12.6-16.5c0-0.8,0.7-1.5,1.5-1.5h21.4c0.4,0,0.8,0.2,1.1,0.5C59.8,13.7,60,39,60,44.1
			C60,44.9,59.3,45.6,58.5,45.6z M28.7,42.5h28.2c-0.1-18.5-2.1-28.3-3.6-30.7H34c-0.5,3.6-2.9,12.9-12.8,17.2L28.7,42.5z"/>
	</g>
	<g>
		<line class="st2" x1="26.8" y1="23.4" x2="31.2" y2="26.8"/>
		<path class="st1" d="M31.2,28.4c-0.3,0-0.7-0.1-1-0.3l-4.4-3.4c-0.7-0.5-0.8-1.5-0.3-2.2c0.5-0.7,1.5-0.8,2.2-0.3l4.4,3.4
			c0.7,0.5,0.8,1.5,0.3,2.2C32.1,28.2,31.7,28.4,31.2,28.4z"/>
	</g>
	<g>
		<line class="st2" x1="31.4" y1="17.1" x2="36.9" y2="18.4"/>
		<path class="st1" d="M36.9,19.9c-0.1,0-0.2,0-0.3,0L31,18.6c-0.8-0.2-1.4-1-1.2-1.9c0.2-0.8,1-1.3,1.9-1.2l5.5,1.3
			c0.8,0.2,1.4,1,1.2,1.9C38.2,19.4,37.6,19.9,36.9,19.9z"/>
	</g>
	<g>
		<rect x="2.1" y="44.1" class="st0" width="30.4" height="4.5"/>
		<path class="st1" d="M32.5,50.1H2.1c-0.9,0-1.5-0.7-1.5-1.5v-4.5c0-0.9,0.7-1.5,1.5-1.5h30.4c0.9,0,1.5,0.7,1.5,1.5v4.5
			C34,49.4,33.3,50.1,32.5,50.1z M3.7,47h27.3v-1.4H3.7V47z"/>
	</g>
	<g>
		<rect x="38.7" y="44.1" class="st0" width="19.7" height="5.7"/>
		<path class="st1" d="M58.5,51.3H38.7c-0.9,0-1.5-0.7-1.5-1.5v-5.7c0-0.9,0.7-1.5,1.5-1.5h19.7c0.9,0,1.5,0.7,1.5,1.5v5.7
			C60,50.6,59.3,51.3,58.5,51.3z M40.3,48.2h16.6v-2.6H40.3V48.2z"/>
	</g>
</g>
</svg>
