<?xml version="1.0" encoding="utf-8"?>
<!-- Generator: Adobe Illustrator 19.2.1, SVG Export Plug-In . SVG Version: 6.00 Build 0)  -->
<svg version="1.1" id="Layer_1" xmlns="http://www.w3.org/2000/svg" xmlns:xlink="http://www.w3.org/1999/xlink" x="0px" y="0px"
	 viewBox="0 0 60 60" style="enable-background:new 0 0 60 60;" xml:space="preserve">
<style type="text/css">
	.st0{fill:#FFFFFF;}
	.st1{fill:#231F20;}
	.st2{fill:#D1D2D3;}
</style>
<g>
	<g>
		<rect x="1.5" y="14.5" class="st0" width="56.9" height="38.1"/>
		<path class="st1" d="M58.5,54.2H1.5c-0.9,0-1.5-0.7-1.5-1.5V14.5C0,13.7,0.7,13,1.5,13h56.9c0.9,0,1.5,0.7,1.5,1.5v38.1
			C60,53.5,59.3,54.2,58.5,54.2z M3.1,51.1h53.8V16.1H3.1V51.1z"/>
	</g>
	<g>
		<path class="st1" d="M33,24.6H27c-5.2,0-9.4-4.2-9.4-9.4s4.2-9.4,9.4-9.4H33c5.2,0,9.4,4.2,9.4,9.4S38.1,24.6,33,24.6z M27,8.9
			c-3.5,0-6.3,2.8-6.3,6.3s2.8,6.3,6.3,6.3H33c3.5,0,6.3-2.8,6.3-6.3S36.4,8.9,33,8.9H27z"/>
	</g>
	<g>
		<path class="st2" d="M1.5,14.5v6.6c0,6.2,5.1,11.3,11.3,11.3h34.3c6.2,0,11.3-5.1,11.3-11.3v-6.6H1.5z"/>
		<path class="st1" d="M47.2,33.9H12.8C5.8,33.9,0,28.2,0,21.1v-6.6C0,13.7,0.7,13,1.5,13h56.9c0.9,0,1.5,0.7,1.5,1.5v6.6
			C60,28.2,54.2,33.9,47.2,33.9z M3.1,16.1v5c0,5.4,4.4,9.7,9.7,9.7h34.3c5.4,0,9.7-4.4,9.7-9.7v-5H3.1z"/>
	</g>
	<g>
		<path class="st1" d="M14.7,40.5c-0.9,0-1.5-0.7-1.5-1.5V25.8c0-0.9,0.7-1.5,1.5-1.5c0.9,0,1.5,0.7,1.5,1.5v13.1
			C16.3,39.8,15.6,40.5,14.7,40.5z"/>
	</g>
	<g>
		<path class="st1" d="M44.8,40.5c-0.9,0-1.5-0.7-1.5-1.5V25.8c0-0.9,0.7-1.5,1.5-1.5c0.9,0,1.5,0.7,1.5,1.5v13.1
			C46.4,39.8,45.7,40.5,44.8,40.5z"/>
	</g>
</g>
</svg>
