<?xml version="1.0" encoding="utf-8"?>
<!-- Generator: Adobe Illustrator 19.2.1, SVG Export Plug-In . SVG Version: 6.00 Build 0)  -->
<svg version="1.1" id="Layer_1" xmlns="http://www.w3.org/2000/svg" xmlns:xlink="http://www.w3.org/1999/xlink" x="0px" y="0px"
	 viewBox="0 0 60 60" style="enable-background:new 0 0 60 60;" xml:space="preserve">
<style type="text/css">
	.st0{fill:#D1D2D3;}
	.st1{fill:#231F20;}
	.st2{fill:#FFFFFF;}
</style>
<g>
	<g>
		<circle class="st0" cx="30" cy="21.6" r="16.8"/>
		<path class="st1" d="M30,39.8c-10,0-18.2-8.2-18.2-18.2c0-10,8.2-18.2,18.2-18.2c10,0,18.2,8.2,18.2,18.2
			C48.2,31.6,40,39.8,30,39.8z M30,6.1c-8.6,0-15.5,7-15.5,15.5s7,15.5,15.5,15.5c8.6,0,15.5-7,15.5-15.5S38.6,6.1,30,6.1z"/>
	</g>
	<g>
		<path class="st2" d="M54.5,32.6c0,14.4-11,26-24.5,26c-13.5,0-24.5-11.7-24.5-26c0-6.4,2.2-12.2,5.8-16.8l38.1,0.8
			C52.6,21.1,54.5,26.6,54.5,32.6z"/>
		<path class="st1" d="M30,60C15.8,60,4.2,47.7,4.2,32.6c0-6.4,2.1-12.7,6-17.6c0.3-0.3,0.7-0.5,1.1-0.5l38.1,0.8
			c0.4,0,0.8,0.2,1,0.5c3.5,4.8,5.4,10.6,5.4,16.8C55.8,47.7,44.2,60,30,60z M11.9,17.2C8.6,21.6,6.8,27,6.8,32.6
			c0,13.6,10.4,24.7,23.2,24.7c12.8,0,23.2-11.1,23.2-24.7c0-5.3-1.6-10.4-4.5-14.7L11.9,17.2z"/>
	</g>
	<g>
		<line class="st2" x1="22.8" y1="6.4" x2="19.9" y2="1.3"/>
		<path class="st1" d="M22.8,7.7c-0.5,0-0.9-0.2-1.2-0.7L18.8,2c-0.4-0.6-0.1-1.5,0.5-1.8c0.6-0.4,1.5-0.1,1.8,0.5l2.8,5.1
			c0.4,0.6,0.1,1.5-0.5,1.8C23.2,7.7,23,7.7,22.8,7.7z"/>
	</g>
	<g>
		<line class="st2" x1="38" y1="6.4" x2="40.8" y2="1.3"/>
		<path class="st1" d="M38,7.7c-0.2,0-0.4-0.1-0.6-0.2c-0.6-0.4-0.9-1.2-0.5-1.8l2.8-5.1C40,0,40.8-0.2,41.4,0.2
			C42.1,0.5,42.3,1.3,42,2l-2.8,5.1C38.9,7.5,38.4,7.7,38,7.7z"/>
	</g>
	<g>
		<line class="st2" x1="30" y1="16.2" x2="30" y2="58.7"/>
		<path class="st1" d="M30,60c-0.7,0-1.3-0.6-1.3-1.3V16.2c0-0.7,0.6-1.3,1.3-1.3c0.7,0,1.3,0.6,1.3,1.3v42.4
			C31.3,59.4,30.7,60,30,60z"/>
	</g>
	<g>
		<circle class="st0" cx="16.2" cy="25.4" r="3.8"/>
	</g>
	<g>
		<circle class="st0" cx="45.9" cy="28.6" r="2"/>
	</g>
	<g>
		<circle class="st0" cx="21" cy="42.6" r="1.6"/>
	</g>
	<g>
		<circle class="st0" cx="39.4" cy="34.3" r="2"/>
	</g>
	<g>
		<circle class="st0" cx="41.8" cy="47.2" r="1"/>
	</g>
</g>
</svg>
