<?xml version="1.0" encoding="utf-8"?>
<!-- Generator: Adobe Illustrator 19.2.1, SVG Export Plug-In . SVG Version: 6.00 Build 0)  -->
<svg version="1.1" id="Layer_1" xmlns="http://www.w3.org/2000/svg" xmlns:xlink="http://www.w3.org/1999/xlink" x="0px" y="0px"
	 viewBox="0 0 60 60" style="enable-background:new 0 0 60 60;" xml:space="preserve">
<style type="text/css">
	.st0{fill:#D2D3D4;}
	.st1{fill:#231F20;}
	.st2{fill:#FFFFFF;}
</style>
<g>
	<g>
		<rect x="9.6" y="34.6" class="st0" width="38.9" height="23.2"/>
		<path class="st1" d="M48.5,60H9.6c-1.2,0-2.2-1-2.2-2.2V34.6c0-1.2,1-2.2,2.2-2.2h38.9c1.2,0,2.2,1,2.2,2.2v23.2
			C50.7,59,49.7,60,48.5,60z M11.8,55.5h34.4V36.8H11.8V55.5z"/>
	</g>
	<g>
		<g>
			<circle class="st0" cx="35" cy="9.6" r="7.4"/>
			<path class="st1" d="M35,19.2c-5.3,0-9.6-4.3-9.6-9.6C25.4,4.3,29.7,0,35,0c5.3,0,9.6,4.3,9.6,9.6C44.6,14.9,40.3,19.2,35,19.2z
				 M35,4.5c-2.8,0-5.2,2.3-5.2,5.2c0,2.8,2.3,5.2,5.2,5.2c2.8,0,5.2-2.3,5.2-5.2C40.1,6.8,37.8,4.5,35,4.5z"/>
		</g>
		<g>
			<path class="st2" d="M52.8,30.9h-4.4c1.8-2.2,2.9-3.6,2.9-6.7c0-6.8-5.5-12.3-12.3-12.3c-2.2,0-4.3,0.6-6.1,1.6
				c-2.6-3.4-6.7-5.7-11.4-5.7c-7.9,0-14.3,6.4-14.3,14.3c0,3.9,1.6,6.1,4.1,8.7H7.2c-1.4,0-2.6,1.2-2.6,2.6v2.1
				c0,1.4,1.2,2.6,2.6,2.6h45.6c1.4,0,2.6-1.2,2.6-2.6v-2.1C55.4,32.1,54.2,30.9,52.8,30.9z"/>
			<path class="st1" d="M52.8,40.4H7.2c-2.7,0-4.8-2.2-4.8-4.8v-2.1c0-2.5,1.9-4.5,4.3-4.8C5.6,26.9,5,24.8,5,22.2
				c0-9.1,7.4-16.6,16.6-16.6c4.6,0,8.9,1.9,12,5.1c1.8-0.7,3.7-1.1,5.6-1.1c8,0,14.6,6.5,14.6,14.5c0,1.8-0.3,3.2-0.9,4.4h0.1
				c2.7,0,4.8,2.2,4.8,4.8v2.1C57.6,38.3,55.5,40.4,52.8,40.4z M7.2,33.1c-0.2,0-0.4,0.2-0.4,0.4v2.1C6.8,35.8,7,36,7.2,36h45.6
				c0.2,0,0.4-0.2,0.4-0.4v-2.1c0-0.2-0.2-0.4-0.4-0.4h-4.4c-0.9,0-1.7-0.5-2-1.3c-0.4-0.8-0.2-1.7,0.3-2.4c1.8-2.1,2.4-3,2.4-5.2
				c0-5.6-4.5-10.1-10.1-10.1c-1.8,0-3.5,0.5-5,1.3c-1,0.6-2.2,0.3-2.9-0.6c-2.3-3-5.8-4.8-9.6-4.8c-6.7,0-12.1,5.4-12.1,12.1
				c0,3.1,1.1,4.7,3.4,7.1c0.6,0.6,0.8,1.6,0.5,2.4c-0.3,0.8-1.2,1.4-2.1,1.4H7.2z"/>
		</g>
	</g>
	<g>
		<line class="st0" x1="19.6" y1="55.6" x2="19.6" y2="40"/>
		<path class="st1" d="M19.6,57.8c-1.2,0-2.2-1-2.2-2.2V40c0-1.2,1-2.2,2.2-2.2c1.2,0,2.2,1,2.2,2.2v15.5
			C21.9,56.8,20.9,57.8,19.6,57.8z"/>
	</g>
	<g>
		<line class="st0" x1="29.2" y1="55.6" x2="29.2" y2="40"/>
		<path class="st1" d="M29.2,57.8c-1.2,0-2.2-1-2.2-2.2V40c0-1.2,1-2.2,2.2-2.2c1.2,0,2.2,1,2.2,2.2v15.5
			C31.4,56.8,30.4,57.8,29.2,57.8z"/>
	</g>
	<g>
		<line class="st0" x1="38.7" y1="55.6" x2="38.7" y2="40"/>
		<path class="st1" d="M38.7,57.8c-1.2,0-2.2-1-2.2-2.2V40c0-1.2,1-2.2,2.2-2.2s2.2,1,2.2,2.2v15.5C41,56.8,40,57.8,38.7,57.8z"/>
	</g>
</g>
</svg>
