<?xml version="1.0" encoding="utf-8"?>
<!-- Generator: Adobe Illustrator 19.2.1, SVG Export Plug-In . SVG Version: 6.00 Build 0)  -->
<svg version="1.1" id="Layer_1" xmlns="http://www.w3.org/2000/svg" xmlns:xlink="http://www.w3.org/1999/xlink" x="0px" y="0px"
	 viewBox="0 0 60 60" style="enable-background:new 0 0 60 60;" xml:space="preserve">
<style type="text/css">
	.st0{fill:#FFFFFF;}
	.st1{fill:#231F20;}
	.st2{fill:#D1D2D3;}
</style>
<g>
	<g>
		<rect x="1.8" y="2.4" class="st0" width="28.2" height="28.2"/>
		<path class="st1" d="M30,32.4H1.8c-1,0-1.8-0.8-1.8-1.8V2.4c0-1,0.8-1.8,1.8-1.8H30c1,0,1.8,0.8,1.8,1.8v28.2
			C31.8,31.6,31,32.4,30,32.4z M3.5,28.9h24.7V4.1H3.5V28.9z"/>
	</g>
	<g>
		<rect x="30" y="2.4" class="st2" width="28.2" height="28.2"/>
		<path class="st1" d="M58.2,32.4H30c-1,0-1.8-0.8-1.8-1.8V2.4c0-1,0.8-1.8,1.8-1.8h28.2c1,0,1.8,0.8,1.8,1.8v28.2
			C60,31.6,59.2,32.4,58.2,32.4z M31.8,28.9h24.7V4.1H31.8V28.9z"/>
	</g>
	<g>
		<rect x="1.8" y="29.4" class="st0" width="28.2" height="28.2"/>
		<path class="st1" d="M30,59.4H1.8c-1,0-1.8-0.8-1.8-1.8V29.4c0-1,0.8-1.8,1.8-1.8H30c1,0,1.8,0.8,1.8,1.8v28.2
			C31.8,58.6,31,59.4,30,59.4z M3.5,55.9h24.7V31.1H3.5V55.9z"/>
	</g>
	<g>
		<rect x="30" y="29.4" class="st0" width="28.2" height="28.2"/>
		<path class="st1" d="M58.2,59.4H30c-1,0-1.8-0.8-1.8-1.8V29.4c0-1,0.8-1.8,1.8-1.8h28.2c1,0,1.8,0.8,1.8,1.8v28.2
			C60,58.6,59.2,59.4,58.2,59.4z M31.8,55.9h24.7V31.1H31.8V55.9z"/>
	</g>
	<g>
		<line class="st0" x1="40.8" y1="11.9" x2="48.6" y2="11.9"/>
		<path class="st1" d="M48.6,13.6h-7.8c-1,0-1.8-0.8-1.8-1.8s0.8-1.8,1.8-1.8h7.8c1,0,1.8,0.8,1.8,1.8S49.6,13.6,48.6,13.6z"/>
	</g>
	<g>
		<line class="st0" x1="40.8" y1="17.9" x2="48.6" y2="17.9"/>
		<path class="st1" d="M48.6,19.7h-7.8c-1,0-1.8-0.8-1.8-1.8c0-1,0.8-1.8,1.8-1.8h7.8c1,0,1.8,0.8,1.8,1.8
			C50.4,18.9,49.6,19.7,48.6,19.7z"/>
	</g>
	<g>
		<line class="st1" x1="12" y1="15.5" x2="19.8" y2="15.5"/>
		<path class="st2" d="M19.8,17.3H12c-1,0-1.8-0.8-1.8-1.8s0.8-1.8,1.8-1.8h7.8c1,0,1.8,0.8,1.8,1.8S20.8,17.3,19.8,17.3z"/>
	</g>
	<g>
		<line class="st1" x1="12" y1="43.1" x2="19.8" y2="43.1"/>
		<path class="st2" d="M19.8,44.9H12c-1,0-1.8-0.8-1.8-1.8s0.8-1.8,1.8-1.8h7.8c1,0,1.8,0.8,1.8,1.8S20.8,44.9,19.8,44.9z"/>
	</g>
	<g>
		<line class="st1" x1="15.9" y1="39.2" x2="15.9" y2="47"/>
		<path class="st2" d="M15.9,48.8c-1,0-1.8-0.8-1.8-1.8v-7.8c0-1,0.8-1.8,1.8-1.8c1,0,1.8,0.8,1.8,1.8V47
			C17.6,48,16.9,48.8,15.9,48.8z"/>
	</g>
	<g>
		<circle class="st2" cx="44.5" cy="40.5" r="1.9"/>
	</g>
	<g>
		<circle class="st2" cx="44.5" cy="45.9" r="1.9"/>
	</g>
</g>
</svg>
