<?xml version="1.0" encoding="utf-8"?>
<!-- Generator: Adobe Illustrator 19.2.1, SVG Export Plug-In . SVG Version: 6.00 Build 0)  -->
<svg version="1.1" id="Layer_1" xmlns="http://www.w3.org/2000/svg" xmlns:xlink="http://www.w3.org/1999/xlink" x="0px" y="0px"
	 viewBox="0 0 60 60" style="enable-background:new 0 0 60 60;" xml:space="preserve">
<style type="text/css">
	.st0{fill:#FFFFFF;}
	.st1{fill:#231F20;}
	.st2{fill:#D2D3D4;}
</style>
<g>
	<g>
		<line class="st0" x1="9.7" y1="4.7" x2="9.7" y2="12"/>
		<path class="st1" d="M9.7,14.1c-1.2,0-2.1-0.9-2.1-2.1V4.7c0-1.2,0.9-2.1,2.1-2.1s2.1,0.9,2.1,2.1V12
			C11.7,13.2,10.8,14.1,9.7,14.1z"/>
	</g>
	<g>
		<line class="st0" x1="51.4" y1="4.7" x2="51.4" y2="12"/>
		<path class="st1" d="M51.4,14.1c-1.2,0-2.1-0.9-2.1-2.1V4.7c0-1.2,0.9-2.1,2.1-2.1c1.2,0,2.1,0.9,2.1,2.1V12
			C53.5,13.2,52.5,14.1,51.4,14.1z"/>
	</g>
	<g>
		<rect x="4.2" y="17.2" class="st0" width="51.7" height="38.1"/>
		<path class="st1" d="M55.8,57.4H4.2c-1.2,0-2.1-0.9-2.1-2.1V17.2c0-1.2,0.9-2.1,2.1-2.1h51.7c1.2,0,2.1,0.9,2.1,2.1v38.1
			C57.9,56.5,57,57.4,55.8,57.4z M6.3,53.2h47.5V19.3H6.3V53.2z"/>
	</g>
	<g>
		<rect x="2.1" y="8.9" class="st2" width="55.8" height="13"/>
		<path class="st1" d="M57.9,24H2.1C0.9,24,0,23.1,0,21.9v-13c0-1.2,0.9-2.1,2.1-2.1h55.8c1.2,0,2.1,0.9,2.1,2.1v13
			C60,23.1,59.1,24,57.9,24z M4.2,19.8h51.7V11H4.2V19.8z"/>
	</g>
	<g>
		<circle class="st2" cx="16.4" cy="33.3" r="2.7"/>
	</g>
	<g>
		<circle class="st2" cx="29.4" cy="33.3" r="2.7"/>
	</g>
	<g>
		<circle class="st2" cx="42.4" cy="33.3" r="2.7"/>
	</g>
	<g>
		<circle class="st2" cx="16.4" cy="43.7" r="2.7"/>
	</g>
	<g>
		<circle class="st2" cx="29.4" cy="43.7" r="2.7"/>
	</g>
</g>
</svg>
