<?xml version="1.0" encoding="utf-8"?>
<!-- Generator: Adobe Illustrator 16.0.0, SVG Export Plug-In . SVG Version: 6.00 Build 0)  -->
<!DOCTYPE svg PUBLIC "-//W3C//DTD SVG 1.1//EN" "http://www.w3.org/Graphics/SVG/1.1/DTD/svg11.dtd">
<svg version="1.1" id="Layer_1" xmlns="http://www.w3.org/2000/svg" xmlns:xlink="http://www.w3.org/1999/xlink" x="0px" y="0px"
	 width="60px" height="60px" viewBox="0 0 60 60" enable-background="new 0 0 60 60" xml:space="preserve">
<g>
	<g>
		<path fill="#D2D3D4" d="M15.231,29.745c0,1.022-0.83,1.853-1.853,1.853H9.057c-1.022,0-1.853-0.83-1.853-1.853V11.246
			c0-1.023,0.83-1.853,1.853-1.853h4.322c1.022,0,1.853,0.829,1.853,1.853V29.745z"/>
		<path fill="#231F20" d="M13.379,33.449H9.057c-2.043,0-3.704-1.661-3.704-3.704V11.246c0-2.043,1.661-3.705,3.704-3.705h4.322
			c2.043,0,3.704,1.662,3.704,3.705v18.499C17.083,31.788,15.422,33.449,13.379,33.449z M9.057,11.246v18.499h4.324l-0.002-18.499
			H9.057z"/>
	</g>
	<g>
		<path fill="#FFFFFF" d="M55.979,46.901c0,1.023-0.829,1.853-1.853,1.853H3.704c-1.022,0-1.853-0.829-1.853-1.853V18.973
			c0-1.022,0.83-1.853,1.853-1.853h50.422c1.023,0,1.853,0.83,1.853,1.853V46.901z"/>
		<path fill="#231F20" d="M54.126,50.606H3.704C1.662,50.606,0,48.945,0,46.901V18.973c0-2.043,1.662-3.704,3.704-3.704h50.422
			c2.043,0,3.705,1.661,3.705,3.704v27.929C57.831,48.945,56.169,50.606,54.126,50.606z M3.704,18.973v27.929h50.425l-0.003-27.929
			H3.704z"/>
	</g>
	<g>
		<circle fill="#FFFFFF" cx="40.394" cy="32.853" r="17.754"/>
		<path fill="#231F20" d="M40.394,52.459c-10.811,0-19.605-8.796-19.605-19.606c0-10.812,8.795-19.606,19.605-19.606
			S60,22.041,60,32.853C60,43.663,51.204,52.459,40.394,52.459z M40.394,16.95c-8.769,0-15.901,7.134-15.901,15.902
			s7.133,15.901,15.901,15.901s15.901-7.133,15.901-15.901S49.162,16.95,40.394,16.95z"/>
	</g>
	<g>
		<circle fill="#D2D3D4" cx="40.394" cy="32.853" r="11.879"/>
	</g>
	<g>
		<line fill="#D2D3D4" x1="14.922" y1="22.977" x2="14.922" y2="39.029"/>
		<path fill="#231F20" d="M14.922,40.882c-1.023,0-1.853-0.829-1.853-1.853V22.977c0-1.022,0.829-1.852,1.853-1.852
			c1.022,0,1.853,0.829,1.853,1.852v16.053C16.774,40.053,15.944,40.882,14.922,40.882z"/>
	</g>
	<g>
		<circle fill="#FFFFFF" cx="44.715" cy="29.151" r="4.322"/>
	</g>
</g>
</svg>
