<?xml version="1.0" encoding="utf-8"?>
<!-- Generator: Adobe Illustrator 19.2.1, SVG Export Plug-In . SVG Version: 6.00 Build 0)  -->
<svg version="1.1" id="Layer_1" xmlns="http://www.w3.org/2000/svg" xmlns:xlink="http://www.w3.org/1999/xlink" x="0px" y="0px"
	 viewBox="0 0 60 60" style="enable-background:new 0 0 60 60;" xml:space="preserve">
<style type="text/css">
	.st0{fill:#D1D2D3;}
	.st1{fill:#231F20;}
	.st2{fill:#FFFFFF;}
</style>
<g>
	<g>
		<ellipse transform="matrix(0.8178 -0.5755 0.5755 0.8178 -21.4705 13.1084)" class="st0" cx="10" cy="40.5" rx="4.7" ry="1.1"/>
	</g>
	<g>
		<ellipse transform="matrix(0.8178 -0.5755 0.5755 0.8178 -23.1908 15.3673)" class="st0" cx="12.7" cy="44.3" rx="4.7" ry="1.1"/>
	</g>
	<g>
		<ellipse transform="matrix(0.5755 -0.8178 0.8178 0.5755 -11.722 58.3384)" class="st0" cx="50.3" cy="40.5" rx="1.1" ry="4.7"/>
	</g>
	<g>
		<ellipse transform="matrix(0.5755 -0.8178 0.8178 0.5755 -16.0196 57.761)" class="st0" cx="47.6" cy="44.3" rx="1.1" ry="4.7"/>
	</g>
	<g>
		<path class="st1" d="M30,57.2c-16.5,0-30-13.5-30-30C0,17.7,4.5,8.7,12.2,3.1c0.3-0.3,0.8-0.3,1.2-0.2c0.4,0.1,0.8,0.4,0.9,0.8
			c2.8,6.2,8.9,10.2,15.7,10.2c6.8,0,12.9-4,15.7-10.2c0.2-0.4,0.5-0.7,0.9-0.8c0.4-0.1,0.9,0,1.2,0.2C55.5,8.7,60,17.7,60,27.2
			C60,43.7,46.5,57.2,30,57.2z M12.5,6.4c-6.1,5.1-9.7,12.8-9.7,20.8c0,15,12.2,27.2,27.2,27.2c15,0,27.2-12.2,27.2-27.2
			c0-8-3.6-15.7-9.7-20.8C44,12.7,37.3,16.7,30,16.7S16,12.7,12.5,6.4z"/>
	</g>
	<g>
		<g>
			<path class="st2" d="M30,39.3c0,2.3-1.8,4.1-4.1,4.1c-2.3,0-4.1-1.8-4.1-4.1"/>
			<path class="st1" d="M25.9,44.8c-3,0-5.5-2.5-5.5-5.5c0-0.8,0.6-1.4,1.4-1.4c0.8,0,1.4,0.6,1.4,1.4c0,1.5,1.2,2.7,2.7,2.7
				c1.5,0,2.7-1.2,2.7-2.7c0-0.8,0.6-1.4,1.4-1.4c0.8,0,1.4,0.6,1.4,1.4C31.4,42.3,29,44.8,25.9,44.8z"/>
		</g>
		<g>
			<path class="st2" d="M38.2,39.3c0,2.3-1.8,4.1-4.1,4.1c-2.3,0-4.1-1.8-4.1-4.1"/>
			<path class="st1" d="M34.1,44.8c-3,0-5.5-2.5-5.5-5.5c0-0.8,0.6-1.4,1.4-1.4c0.8,0,1.4,0.6,1.4,1.4c0,1.5,1.2,2.7,2.7,2.7
				c1.5,0,2.7-1.2,2.7-2.7c0-0.8,0.6-1.4,1.4-1.4c0.8,0,1.4,0.6,1.4,1.4C39.6,42.3,37.1,44.8,34.1,44.8z"/>
		</g>
	</g>
	<g>
		<polyline class="st2" points="14.8,28.8 18.3,25.2 21.8,28.8 		"/>
		<path class="st1" d="M21.8,30.2c-0.4,0-0.7-0.1-1-0.4l-2.5-2.6l-2.6,2.6c-0.6,0.6-1.4,0.6-2,0c-0.6-0.6-0.6-1.4,0-2l3.6-3.6
			c0.3-0.3,0.6-0.4,1-0.4c0.4,0,0.7,0.2,1,0.4l3.5,3.6c0.5,0.6,0.5,1.5,0,2C22.6,30,22.2,30.2,21.8,30.2z"/>
	</g>
	<g>
		<polyline class="st2" points="38.3,28.8 41.9,25.2 45.4,28.8 		"/>
		<path class="st1" d="M45.4,30.2c-0.4,0-0.7-0.1-1-0.4l-2.5-2.6l-2.6,2.6c-0.6,0.6-1.4,0.6-2,0c-0.6-0.6-0.6-1.4,0-2l3.6-3.6
			c0.3-0.3,0.6-0.4,1-0.4c0.4,0,0.7,0.2,1,0.4l3.5,3.6c0.5,0.6,0.5,1.5,0,2C46.1,30,45.7,30.2,45.4,30.2z"/>
	</g>
</g>
</svg>
