<?xml version="1.0" encoding="utf-8"?>
<!-- Generator: Adobe Illustrator 19.2.1, SVG Export Plug-In . SVG Version: 6.00 Build 0)  -->
<svg version="1.1" id="Layer_1" xmlns="http://www.w3.org/2000/svg" xmlns:xlink="http://www.w3.org/1999/xlink" x="0px" y="0px"
	 viewBox="0 0 60 60" style="enable-background:new 0 0 60 60;" xml:space="preserve">
<style type="text/css">
	.st0{fill:#D1D2D3;}
	.st1{fill:#231F20;}
	.st2{fill:#FFFFFF;}
</style>
<g>
	<g>
		<path class="st0" d="M23.5,53.2c8.7,2.4,18.3,0.2,25.1-6.6c10-10,10-26.3,0-36.4c-10-10-26.3-10-36.4,0l18.2,18.2L23.5,53.2z"/>
		<path class="st1" d="M30.4,55.6c-2.4,0-4.9-0.3-7.3-1c-0.3-0.1-0.6-0.3-0.8-0.6c-0.2-0.3-0.2-0.7-0.1-1l6.7-24L11.3,11.3
			c-0.3-0.3-0.4-0.6-0.4-1s0.1-0.7,0.4-1C21.9-1.2,39-1.2,49.6,9.3c10.6,10.6,10.6,27.7,0,38.3C44.5,52.8,37.5,55.6,30.4,55.6z
			 M25.2,52.3c8.1,1.8,16.6-0.7,22.5-6.6c9.5-9.5,9.5-25,0-34.5c-9.2-9.2-23.9-9.5-33.5-0.9l17.2,17.2c0.3,0.3,0.5,0.9,0.3,1.3
			L25.2,52.3z"/>
	</g>
	<g>
		<path class="st2" d="M16,3.6C7.2,8.5,1.4,17.9,1.4,28.6c0,15.8,12.8,28.6,28.6,28.6s28.6-12.8,28.6-28.6H30L16,3.6z"/>
		<path class="st1" d="M30,58.6c-16.5,0-30-13.5-30-30C0,17.8,5.9,7.7,15.3,2.4c0.3-0.2,0.7-0.2,1-0.1c0.3,0.1,0.6,0.3,0.8,0.6
			l13.6,24.3h27.8c0.7,0,1.4,0.6,1.4,1.4C60,45.1,46.5,58.6,30,58.6z M15.5,5.5c-7.9,5-12.7,13.7-12.7,23.1
			c0,15,12.2,27.3,27.3,27.3c14.6,0,26.5-11.5,27.3-25.9H30c-0.5,0-0.9-0.3-1.2-0.7L15.5,5.5z"/>
	</g>
	<g>
		<line class="st2" x1="30.4" y1="28.5" x2="48.6" y2="10.3"/>
		<path class="st1" d="M30.4,29.8c-0.3,0-0.7-0.1-1-0.4c-0.5-0.5-0.5-1.4,0-1.9L47.7,9.3c0.5-0.5,1.4-0.5,1.9,0
			c0.5,0.5,0.5,1.4,0,1.9L31.4,29.4C31.1,29.7,30.8,29.8,30.4,29.8z"/>
	</g>
</g>
</svg>
