<?xml version="1.0" encoding="utf-8"?>
<!-- Generator: Adobe Illustrator 16.0.0, SVG Export Plug-In . SVG Version: 6.00 Build 0)  -->
<!DOCTYPE svg PUBLIC "-//W3C//DTD SVG 1.1//EN" "http://www.w3.org/Graphics/SVG/1.1/DTD/svg11.dtd">
<svg version="1.1" id="Layer_1" xmlns="http://www.w3.org/2000/svg" xmlns:xlink="http://www.w3.org/1999/xlink" x="0px" y="0px"
	 width="60px" height="60px" viewBox="0 0 60 60" enable-background="new 0 0 60 60" xml:space="preserve">
<g>
	<g>
		<path fill="#D2D3D4" d="M1.871,22.257c0,3.755,3.045,6.8,6.801,6.8l-0.211,5.362l10.34-5.362h7.257c3.755,0,6.801-3.044,6.801-6.8
			v-9.566c0-3.755-3.046-6.8-6.801-6.8H8.672c-3.756,0-6.801,3.044-6.801,6.8V22.257z"/>
		<path fill="#231F20" d="M8.461,36.29c-0.35,0-0.698-0.098-1.003-0.292c-0.563-0.356-0.893-0.987-0.867-1.653l0.144-3.635
			C2.883,29.827,0,26.373,0,22.257v-9.566C0,7.91,3.891,4.021,8.672,4.021h17.386c4.782,0,8.672,3.889,8.672,8.671v9.566
			c0,4.781-3.89,8.671-8.672,8.671h-6.801L9.322,36.08C9.052,36.221,8.756,36.29,8.461,36.29z M8.672,7.763
			c-2.718,0-4.929,2.211-4.929,4.929v9.566c0,2.718,2.211,4.928,4.929,4.928c0.509,0,0.996,0.208,1.35,0.575
			c0.353,0.367,0.541,0.862,0.521,1.37l-0.084,2.145l7.48-3.879c0.267-0.138,0.563-0.21,0.862-0.21h7.257
			c2.719,0,4.929-2.21,4.929-4.928v-9.566c0-2.718-2.21-4.929-4.929-4.929H8.672z"/>
	</g>
	<g>
		<path fill="#FFFFFF" d="M58.129,36.405c0,5.467-4.432,9.898-9.899,9.898l0.307,7.805l-15.051-7.805H22.919
			c-5.467,0-9.898-4.432-9.898-9.898V22.479c0-5.466,4.432-9.899,9.898-9.899h25.311c5.468,0,9.899,4.433,9.899,9.899V36.405z"/>
		<path fill="#231F20" d="M48.536,55.979c-0.295,0-0.59-0.069-0.861-0.21L33.03,48.176H22.919c-6.49,0-11.771-5.28-11.771-11.771
			V22.479c0-6.49,5.28-11.77,11.771-11.77h25.311c6.49,0,11.771,5.28,11.771,11.77v13.926c0,5.829-4.26,10.683-9.831,11.61
			l0.227,5.753c0.021,0.11,0.03,0.224,0.03,0.34c0,1.033-0.837,1.871-1.871,1.871C48.55,55.979,48.544,55.98,48.536,55.979z
			 M22.919,14.452c-4.427,0-8.027,3.601-8.027,8.027v13.926c0,4.427,3.601,8.027,8.027,8.027h10.566c0.3,0,0.596,0.072,0.862,0.21
			l12.192,6.322l-0.181-4.587c-0.02-0.509,0.169-1.004,0.521-1.37c0.353-0.367,0.84-0.575,1.349-0.575
			c4.427,0,8.028-3.601,8.028-8.027V22.479c0-4.427-3.602-8.027-8.028-8.027H22.919z"/>
	</g>
	<g>
		<circle fill="#231F20" cx="46.373" cy="29.067" r="2.836"/>
	</g>
	<g>
		<circle fill="#231F20" cx="36.251" cy="29.067" r="2.836"/>
	</g>
	<g>
		<circle fill="#231F20" cx="26.128" cy="29.067" r="2.835"/>
	</g>
</g>
</svg>
