<?xml version="1.0" encoding="utf-8"?>
<!-- Generator: Adobe Illustrator 19.2.1, SVG Export Plug-In . SVG Version: 6.00 Build 0)  -->
<svg version="1.1" id="Layer_1" xmlns="http://www.w3.org/2000/svg" xmlns:xlink="http://www.w3.org/1999/xlink" x="0px" y="0px"
	 viewBox="0 0 60 60" style="enable-background:new 0 0 60 60;" xml:space="preserve">
<style type="text/css">
	.st0{fill:#D1D2D3;}
	.st1{fill:#231F20;}
	.st2{fill:#FFFFFF;}
</style>
<g>
	<g>
		<rect x="6.5" y="33.7" class="st0" width="47.2" height="23.9"/>
		<path class="st1" d="M53.7,59.1H6.5c-0.9,0-1.5-0.7-1.5-1.5V33.7c0-0.9,0.7-1.5,1.5-1.5h47.2c0.9,0,1.5,0.7,1.5,1.5v23.9
			C55.3,58.4,54.6,59.1,53.7,59.1z M8,56h44.1V35.2H8V56z"/>
	</g>
	<g>
		<polygon class="st2" points="40.7,31 29.7,11.3 18.7,31 18.5,31 18.5,57.7 40.9,57.7 40.9,31 		"/>
		<path class="st1" d="M40.9,59.2H18.5c-0.9,0-1.5-0.7-1.5-1.5V31c0-0.5,0.2-0.9,0.6-1.2l10.7-19.3c0.3-0.5,0.8-0.8,1.4-0.8
			s1.1,0.3,1.4,0.8l10.7,19.3c0.4,0.3,0.7,0.7,0.7,1.3v26.6C42.4,58.5,41.7,59.2,40.9,59.2z M20.1,56.1h19.2V31.8l-9.6-17.3
			l-9.6,17.3V56.1z"/>
	</g>
	<g>
		<path class="st1" d="M29.7,14.1c-0.9,0-1.5-0.7-1.5-1.5V2.3c0-0.9,0.7-1.5,1.5-1.5c0.9,0,1.5,0.7,1.5,1.5v10.3
			C31.3,13.4,30.6,14.1,29.7,14.1z"/>
	</g>
	<g>
		<path class="st1" d="M33.8,7.4h-8.1c-0.9,0-1.5-0.7-1.5-1.5s0.7-1.5,1.5-1.5h8.1c0.9,0,1.5,0.7,1.5,1.5S34.6,7.4,33.8,7.4z"/>
	</g>
	<g>
		<circle class="st0" cx="29.7" cy="32" r="4"/>
		<path class="st1" d="M29.7,37.5c-3.1,0-5.6-2.5-5.6-5.6c0-3.1,2.5-5.6,5.6-5.6c3.1,0,5.6,2.5,5.6,5.6C35.3,35,32.8,37.5,29.7,37.5
			z M29.7,29.5c-1.4,0-2.5,1.1-2.5,2.5c0,1.4,1.1,2.5,2.5,2.5c1.4,0,2.5-1.1,2.5-2.5C32.2,30.6,31.1,29.5,29.7,29.5z"/>
	</g>
	<g>
		<line class="st0" x1="1.5" y1="57.5" x2="58.5" y2="57.5"/>
		<path class="st1" d="M58.5,59.1H1.5c-0.9,0-1.5-0.7-1.5-1.5C0,56.7,0.7,56,1.5,56h56.9c0.9,0,1.5,0.7,1.5,1.5
			C60,58.4,59.3,59.1,58.5,59.1z"/>
	</g>
</g>
</svg>
