<?xml version="1.0" encoding="utf-8"?>
<!-- Generator: Adobe Illustrator 19.2.1, SVG Export Plug-In . SVG Version: 6.00 Build 0)  -->
<svg version="1.1" id="Layer_1" xmlns="http://www.w3.org/2000/svg" xmlns:xlink="http://www.w3.org/1999/xlink" x="0px" y="0px"
	 viewBox="0 0 60 60" style="enable-background:new 0 0 60 60;" xml:space="preserve">
<style type="text/css">
	.st0{fill:#D2D3D4;}
	.st1{fill:#231F20;}
	.st2{fill:#FFFFFF;}
</style>
<g>
	<g>
		<polygon class="st0" points="3,28.8 48.6,28.8 48.6,34.5 45.2,39.8 41.9,46 33.7,48.4 25.1,51.3 16.6,48.6 11.1,45.5 5.7,40 
			3.5,33.2 		"/>
	</g>
	<g>
		<path class="st1" d="M28.1,52.1h-3.9C11.4,52.1,1,41.6,1,28.8v-8.2c0-1.1,0.9-2,2-2h46.4c1.1,0,2,0.9,2,2v8.2
			C51.4,41.6,41,52.1,28.1,52.1z M5,22.6v6.2c0,10.6,8.6,19.2,19.2,19.2h3.9c10.6,0,19.2-8.6,19.2-19.2v-6.2H5z"/>
	</g>
	<g>
		<line class="st2" x1="3" y1="57.9" x2="49.4" y2="57.9"/>
		<path class="st1" d="M49.4,59.9H3c-1.1,0-2-0.9-2-2s0.9-2,2-2h46.4c1.1,0,2,0.9,2,2S50.5,59.9,49.4,59.9z"/>
	</g>
	<g>
		<path class="st1" d="M47.2,40.2c-1.1,0-2-0.9-2-2s0.9-2,2-2c3.2,0,5.5-0.8,6.7-2.5c1.5-2.1,1.2-5.1,0.8-6.9h-5.3c-1.1,0-2-0.9-2-2
			s0.9-2,2-2h8.3l0.5,1.4c0.1,0.3,2.3,7.1-1.1,11.8C55.1,38.8,51.8,40.2,47.2,40.2z"/>
	</g>
	<g>
		<path class="st2" d="M9.2,11.8c1.7-6.4,5.5-3.7,6.4-9.7"/>
		<path class="st1" d="M9.2,13.8c-0.2,0-0.3,0-0.5-0.1c-1.1-0.3-1.7-1.4-1.4-2.4c1-3.9,2.9-5.2,4.3-6.1c1.1-0.8,1.7-1.2,2.1-3.3
			c0.2-1.1,1.2-1.9,2.3-1.7c1.1,0.2,1.9,1.2,1.7,2.3c-0.6,3.9-2.3,5.1-3.8,6.1c-1.1,0.8-2,1.4-2.7,3.8C10.9,13.2,10,13.8,9.2,13.8z"
			/>
	</g>
	<g>
		<path class="st2" d="M23.1,11.8c1.7-6.4,5.5-3.7,6.4-9.7"/>
		<path class="st1" d="M23.1,13.8c-0.2,0-0.3,0-0.5-0.1c-1.1-0.3-1.7-1.4-1.4-2.4c1-3.9,2.9-5.2,4.3-6.1c1.1-0.8,1.7-1.2,2.1-3.3
			c0.2-1.1,1.2-1.9,2.3-1.7c1.1,0.2,1.9,1.2,1.7,2.3c-0.6,3.9-2.3,5.1-3.8,6.1c-1.1,0.8-2,1.4-2.7,3.8C24.8,13.2,24,13.8,23.1,13.8z
			"/>
	</g>
	<g>
		<path class="st2" d="M37.1,11.8c1.7-6.4,5.5-3.7,6.4-9.7"/>
		<path class="st1" d="M37.1,13.8c-0.2,0-0.3,0-0.5-0.1c-1.1-0.3-1.7-1.4-1.4-2.4c1-3.9,2.9-5.2,4.3-6.1c1.1-0.8,1.7-1.2,2.1-3.3
			c0.2-1.1,1.2-1.9,2.3-1.7c1.1,0.2,1.9,1.2,1.7,2.3c-0.6,3.9-2.3,5.1-3.8,6.1c-1.1,0.8-2,1.4-2.7,3.8C38.8,13.2,38,13.8,37.1,13.8z
			"/>
	</g>
</g>
</svg>
