<?xml version="1.0" encoding="utf-8"?>
<!-- Generator: Adobe Illustrator 19.2.1, SVG Export Plug-In . SVG Version: 6.00 Build 0)  -->
<svg version="1.1" id="Layer_1" xmlns="http://www.w3.org/2000/svg" xmlns:xlink="http://www.w3.org/1999/xlink" x="0px" y="0px"
	 viewBox="0 0 60 60" style="enable-background:new 0 0 60 60;" xml:space="preserve">
<style type="text/css">
	.st0{fill:#D2D3D4;}
	.st1{fill:#231F20;}
</style>
<g>
	<g>
		<polygon class="st0" points="32.9,23.5 39.2,3.8 47.5,8.4 54.3,16.6 56.6,22.1 36.6,27.3 		"/>
	</g>
	<g>
		<polygon class="st0" points="23.7,31.9 4,38.2 8.6,46.4 16.9,53.3 22.3,55.5 27.5,35.5 		"/>
	</g>
	<g>
		<path class="st1" d="M30,60C13.5,60,0,46.5,0,30S13.5,0,30,0s30,13.5,30,30S46.5,60,30,60z M30,4.5C15.9,4.5,4.5,15.9,4.5,30
			S15.9,55.5,30,55.5c14.1,0,25.5-11.5,25.5-25.5S44.1,4.5,30,4.5z"/>
	</g>
	<g>
		<path class="st1" d="M30,39.3c-5.1,0-9.3-4.2-9.3-9.3s4.2-9.3,9.3-9.3c5.1,0,9.3,4.2,9.3,9.3S35.1,39.3,30,39.3z M30,25.1
			c-2.7,0-4.9,2.2-4.9,4.9s2.2,4.9,4.9,4.9c2.7,0,4.9-2.2,4.9-4.9S32.7,25.1,30,25.1z"/>
	</g>
</g>
</svg>
