<?xml version="1.0" encoding="utf-8"?>
<!-- Generator: Adobe Illustrator 19.2.1, SVG Export Plug-In . SVG Version: 6.00 Build 0)  -->
<svg version="1.1" id="Layer_1" xmlns="http://www.w3.org/2000/svg" xmlns:xlink="http://www.w3.org/1999/xlink" x="0px" y="0px"
	 viewBox="0 0 60 60" style="enable-background:new 0 0 60 60;" xml:space="preserve">
<style type="text/css">
	.st0{fill:#D2D3D4;}
	.st1{fill:#231F20;}
	.st2{fill:#FFFFFF;}
</style>
<g>
	<g>
		<circle class="st0" cx="30" cy="30" r="27.8"/>
		<path class="st1" d="M30,60C13.5,60,0,46.5,0,30S13.5,0,30,0s30,13.5,30,30S46.5,60,30,60z M30,4.4C15.9,4.4,4.4,15.9,4.4,30
			S15.9,55.6,30,55.6S55.6,44.1,55.6,30S44.1,4.4,30,4.4z"/>
	</g>
	<g>
		<polygon class="st2" points="7.4,52.6 22.8,22.8 52.6,7.4 37.2,37.2 		"/>
		<path class="st1" d="M7.4,54.8c-0.6,0-1.1-0.2-1.6-0.6c-0.7-0.7-0.8-1.7-0.4-2.6l15.4-29.8c0.2-0.4,0.5-0.7,1-0.9L51.6,5.4
			c0.9-0.4,1.9-0.3,2.6,0.4c0.7,0.7,0.8,1.7,0.4,2.6L39.2,38.2c-0.2,0.4-0.5,0.7-0.9,0.9L8.4,54.6C8.1,54.7,7.7,54.8,7.4,54.8z
			 M24.5,24.5l-11.9,23l23-11.9l11.9-23L24.5,24.5z"/>
	</g>
	<g>
		<circle class="st2" cx="30" cy="30" r="3.7"/>
		<path class="st1" d="M30,35.9c-3.3,0-5.9-2.7-5.9-5.9s2.7-5.9,5.9-5.9s5.9,2.7,5.9,5.9S33.3,35.9,30,35.9z M30,28.5
			c-0.8,0-1.5,0.7-1.5,1.5s0.7,1.5,1.5,1.5c0.8,0,1.5-0.7,1.5-1.5S30.8,28.5,30,28.5z"/>
	</g>
</g>
</svg>
