<?xml version="1.0" encoding="utf-8"?>
<!-- Generator: Adobe Illustrator 19.2.1, SVG Export Plug-In . SVG Version: 6.00 Build 0)  -->
<svg version="1.1" id="Layer_1" xmlns="http://www.w3.org/2000/svg" xmlns:xlink="http://www.w3.org/1999/xlink" x="0px" y="0px"
	 viewBox="0 0 60 60" style="enable-background:new 0 0 60 60;" xml:space="preserve">
<style type="text/css">
	.st0{fill:#FFFFFF;}
	.st1{fill:#231F20;}
</style>
<g>
	<g>
		<path class="st0" d="M30,14.4c-15.3,0-27.7,12.4-27.7,27.7h55.4C57.7,26.8,45.3,14.4,30,14.4z"/>
		<path class="st1" d="M57.7,44.4H2.3c-1.3,0-2.3-1-2.3-2.3c0-16.5,13.5-30,30-30s30,13.5,30,30C60,43.4,59,44.4,57.7,44.4z
			 M4.7,39.8h50.6C54.1,26.9,43.2,16.7,30,16.7S5.9,26.9,4.7,39.8z"/>
	</g>
	<g>
		<line class="st0" x1="2.3" y1="52.1" x2="57.7" y2="52.1"/>
		<path class="st1" d="M57.7,54.4H2.3c-1.3,0-2.3-1-2.3-2.3s1-2.3,2.3-2.3h55.4c1.3,0,2.3,1,2.3,2.3S59,54.4,57.7,54.4z"/>
	</g>
	<g>
		<line class="st0" x1="30" y1="7.9" x2="30" y2="14.4"/>
		<path class="st1" d="M30,16.7c-1.3,0-2.3-1-2.3-2.3V7.9c0-1.3,1-2.3,2.3-2.3s2.3,1,2.3,2.3v6.5C32.3,15.7,31.3,16.7,30,16.7z"/>
	</g>
</g>
</svg>
