<?xml version="1.0" encoding="utf-8"?>
<!-- Generator: Adobe Illustrator 19.2.1, SVG Export Plug-In . SVG Version: 6.00 Build 0)  -->
<svg version="1.1" id="Layer_1" xmlns="http://www.w3.org/2000/svg" xmlns:xlink="http://www.w3.org/1999/xlink" x="0px" y="0px"
	 viewBox="0 0 60 60" style="enable-background:new 0 0 60 60;" xml:space="preserve">
<style type="text/css">
	.st0{fill:#FFFFFF;}
	.st1{fill:#231F20;}
	.st2{fill:#D2D3D4;}
</style>
<g>
	<g>
		<path class="st0" d="M54.9,11.9c-1.3,0-2.3,1-2.3,2.3c0,0.5,0.2,0.9,0.4,1.3l-14.5,10l-6.8-9.4c0.6-0.4,1-1.1,1-1.9
			c0-1.3-1-2.3-2.3-2.3c-1.3,0-2.3,1-2.3,2.3c0,0.8,0.4,1.5,1,1.9l-6.8,9.4l-14.5-10C7.8,15.2,8,14.7,8,14.2c0-1.3-1-2.3-2.3-2.3
			s-2.3,1-2.3,2.3c0,1.3,1,2.3,2.3,2.3v31.5h0h49.3h0V16.6c1.3,0,2.3-1,2.3-2.3C57.2,13,56.2,11.9,54.9,11.9z"/>
		<path class="st1" d="M54.9,50.3H5.6c-1.2,0-2.2-1-2.2-2.2l0-29.9c-1.4-0.8-2.3-2.3-2.3-4c0-2.5,2-4.5,4.5-4.5s4.5,2,4.5,4.5
			c0,0.2,0,0.3,0,0.4l11.4,7.8l4.6-6.4c-0.3-0.6-0.4-1.2-0.4-1.9c0-2.5,2-4.5,4.5-4.5s4.5,2,4.5,4.5c0,0.7-0.2,1.3-0.4,1.9l4.6,6.4
			l11.4-7.8c0-0.1,0-0.3,0-0.4c0-2.5,2-4.5,4.5-4.5c2.5,0,4.5,2,4.5,4.5c0,1.7-0.9,3.2-2.3,4v29.9C57.1,49.3,56.1,50.3,54.9,50.3z
			 M7.8,45.9h44.9l0-27.5l-13,8.9c-1,0.7-2.3,0.4-3-0.5l-6.5-8.9l-6.5,8.9c-0.7,1-2,1.2-3,0.5l-13-8.9V45.9z M30.3,14.1
			c-0.1,0-0.2,0.1-0.2,0.2c0,0.1,0,0.1,0.1,0.1c0,0,0.1,0,0.1,0.1c0,0,0.1,0,0.1-0.1c0,0,0.1-0.1,0.1-0.1
			C30.4,14.2,30.4,14.1,30.3,14.1z M5.6,14.1c-0.1,0-0.2,0.1-0.2,0.2c0,0.1,0.1,0.2,0.3,0.2c0,0,0-0.1,0-0.1
			C5.8,14.2,5.7,14.1,5.6,14.1z M54.9,14.1c-0.1,0-0.2,0.1-0.2,0.2c0,0.1,0.1,0.1,0.1,0.2c0.1,0,0.2-0.1,0.2-0.2
			C55.1,14.2,55,14.1,54.9,14.1z"/>
	</g>
	<g>
		<line class="st0" x1="2.2" y1="40.6" x2="57.8" y2="40.6"/>
		<path class="st1" d="M57.8,42.8H2.2c-1.2,0-2.2-1-2.2-2.2s1-2.2,2.2-2.2h55.7c1.2,0,2.2,1,2.2,2.2S59,42.8,57.8,42.8z"/>
	</g>
	<g>
		<circle class="st2" cx="14.2" cy="32.1" r="2.1"/>
	</g>
	<g>
		<circle class="st2" cx="30.6" cy="32.1" r="2.1"/>
	</g>
	<g>
		<circle class="st2" cx="46.1" cy="32.1" r="2.1"/>
	</g>
</g>
</svg>
