<?xml version="1.0" encoding="utf-8"?>
<!-- Generator: Adobe Illustrator 16.0.0, SVG Export Plug-In . SVG Version: 6.00 Build 0)  -->
<!DOCTYPE svg PUBLIC "-//W3C//DTD SVG 1.1//EN" "http://www.w3.org/Graphics/SVG/1.1/DTD/svg11.dtd">
<svg version="1.1" id="Layer_1" xmlns="http://www.w3.org/2000/svg" xmlns:xlink="http://www.w3.org/1999/xlink" x="0px" y="0px"
	 width="60px" height="60px" viewBox="0 0 60 60" enable-background="new 0 0 60 60" xml:space="preserve">
<g>
	<g>
		<path fill="#FFFFFF" d="M54.597,55.682c0,1.095-0.887,1.983-1.983,1.983H14.062c-1.095,0-1.983-0.889-1.983-1.983V3.967
			c0-1.095,0.888-1.983,1.983-1.983h38.552c1.097,0,1.983,0.888,1.983,1.983V55.682z"/>
		<path fill="#231F20" d="M52.613,59.648H14.062c-2.188,0-3.967-1.779-3.967-3.967V3.967C10.095,1.78,11.874,0,14.062,0h38.552
			c2.188,0,3.967,1.78,3.967,3.967v51.715C56.58,57.869,54.801,59.648,52.613,59.648z M14.062,3.967v51.715h38.555L52.613,3.967
			H14.062z"/>
	</g>
	<g>
		<rect x="17.781" y="7.438" fill="#D2D3D4" width="30" height="42.397"/>
	</g>
	<g>
		<path fill="#FFFFFF" d="M26.954,56.033c0,1.095-0.888,1.983-1.983,1.983H7.387c-1.095,0-1.983-0.889-1.983-1.983V19.679
			c0-1.095,0.888-1.983,1.983-1.983h17.584c1.095,0,1.983,0.888,1.983,1.983V56.033z"/>
		<path fill="#231F20" d="M24.971,60H7.387c-2.188,0-3.967-1.779-3.967-3.967V19.679c0-2.188,1.779-3.967,3.967-3.967h17.584
			c2.188,0,3.967,1.779,3.967,3.967v36.354C28.938,58.221,27.158,60,24.971,60z M7.387,19.679v36.354h17.586l-0.002-36.354H7.387z"
			/>
	</g>
	<g>
		<rect x="9.599" y="24.793" fill="#D2D3D4" width="13.389" height="22.81"/>
	</g>
	<g>
		<circle fill="#231F20" cx="16.045" cy="51.57" r="1.736"/>
	</g>
</g>
</svg>
