<?xml version="1.0" encoding="utf-8"?>
<!-- Generator: Adobe Illustrator 19.2.1, SVG Export Plug-In . SVG Version: 6.00 Build 0)  -->
<svg version="1.1" id="Layer_1" xmlns="http://www.w3.org/2000/svg" xmlns:xlink="http://www.w3.org/1999/xlink" x="0px" y="0px"
	 viewBox="0 0 60 60" style="enable-background:new 0 0 60 60;" xml:space="preserve">
<style type="text/css">
	.st0{fill:#FFFFFF;}
	.st1{fill:#231F20;}
	.st2{fill:#D2D3D4;}
</style>
<g>
	<g>
		<path class="st0" d="M54.6,55.7c0,1.1-0.9,2-2,2H14.1c-1.1,0-2-0.9-2-2V4c0-1.1,0.9-2,2-2h38.6c1.1,0,2,0.9,2,2V55.7z"/>
		<path class="st1" d="M52.6,59.6H14.1c-2.2,0-4-1.8-4-4V4c0-2.2,1.8-4,4-4h38.6c2.2,0,4,1.8,4,4v51.7
			C56.6,57.9,54.8,59.6,52.6,59.6z M14.1,4v51.7h38.6l0-51.7H14.1z"/>
	</g>
	<g>
		<rect x="17.8" y="7.4" class="st2" width="30" height="42.4"/>
	</g>
	<g>
		<path class="st0" d="M27,56c0,1.1-0.9,2-2,2H7.4c-1.1,0-2-0.9-2-2V19.7c0-1.1,0.9-2,2-2H25c1.1,0,2,0.9,2,2V56z"/>
		<path class="st1" d="M25,60H7.4c-2.2,0-4-1.8-4-4V19.7c0-2.2,1.8-4,4-4H25c2.2,0,4,1.8,4,4V56C28.9,58.2,27.2,60,25,60z M7.4,19.7
			V56H25l0-36.4H7.4z"/>
	</g>
	<g>
		<rect x="9.6" y="24.8" class="st2" width="13.4" height="22.8"/>
	</g>
	<g>
		<circle class="st1" cx="16" cy="51.6" r="1.7"/>
	</g>
</g>
</svg>
