<?xml version="1.0" encoding="utf-8"?>
<!-- Generator: Adobe Illustrator 16.0.0, SVG Export Plug-In . SVG Version: 6.00 Build 0)  -->
<!DOCTYPE svg PUBLIC "-//W3C//DTD SVG 1.1//EN" "http://www.w3.org/Graphics/SVG/1.1/DTD/svg11.dtd">
<svg version="1.1" id="Layer_1" xmlns="http://www.w3.org/2000/svg" xmlns:xlink="http://www.w3.org/1999/xlink" x="0px" y="0px"
	 width="60px" height="60px" viewBox="0 0 60 60" enable-background="new 0 0 60 60" xml:space="preserve">
<g>
	<g>
		<path fill="#FFFFFF" d="M35.561,49.864c0,0.971-0.786,1.756-1.756,1.756h-7.61c-0.97,0-1.756-0.785-1.756-1.756V34.899
			c0-0.971,0.786-1.756,1.756-1.756h7.61c0.97,0,1.756,0.785,1.756,1.756V49.864z"/>
		<path fill="#231F20" d="M33.805,53.376h-7.61c-1.937,0-3.512-1.575-3.512-3.512V34.899c0-1.938,1.575-3.513,3.512-3.513h7.61
			c1.937,0,3.512,1.575,3.512,3.513v14.965C37.316,51.801,35.741,53.376,33.805,53.376z M26.195,34.899v14.965h7.612l-0.002-14.965
			H26.195z"/>
	</g>
	<g>
		<path fill="#FFFFFF" d="M58.244,37.464c0,0.97-0.786,1.756-1.756,1.756H3.512c-0.97,0-1.756-0.786-1.756-1.756V10.137
			c0-0.97,0.786-1.757,1.756-1.757h52.977c0.97,0,1.756,0.787,1.756,1.757V37.464z"/>
		<path fill="#231F20" d="M56.488,40.976H3.512C1.576,40.976,0,39.4,0,37.464V10.137C0,8.2,1.576,6.624,3.512,6.624h52.977
			C58.425,6.624,60,8.2,60,10.137v27.327C60,39.4,58.425,40.976,56.488,40.976z M3.512,10.137v27.327H56.49l-0.002-27.327H3.512z"/>
	</g>
	<g>
		<line fill="#FFFFFF" x1="18.293" y1="51.62" x2="41.706" y2="51.62"/>
		<path fill="#231F20" d="M41.706,53.376H18.293c-0.97,0-1.756-0.786-1.756-1.756s0.787-1.756,1.756-1.756h23.413
			c0.97,0,1.756,0.786,1.756,1.756S42.676,53.376,41.706,53.376z"/>
	</g>
	<g>
		<rect x="6.732" y="12.88" fill="#D2D3D4" width="46.239" height="21.142"/>
	</g>
</g>
</svg>
