<?xml version="1.0" encoding="utf-8"?>
<!-- Generator: Adobe Illustrator 19.2.1, SVG Export Plug-In . SVG Version: 6.00 Build 0)  -->
<svg version="1.1" id="Layer_1" xmlns="http://www.w3.org/2000/svg" xmlns:xlink="http://www.w3.org/1999/xlink" x="0px" y="0px"
	 viewBox="0 0 60 60" style="enable-background:new 0 0 60 60;" xml:space="preserve">
<style type="text/css">
	.st0{fill:#D2D3D4;}
	.st1{fill:#231F20;}
	.st2{fill:#FFFFFF;}
</style>
<g>
	<g>
		<polygon class="st0" points="28.5,3.5 28.5,56.3 11,56.3 11,18.8 12.9,13.1 15.9,9.8 19.8,6.7 25.4,4 		"/>
	</g>
	<g>
		<path class="st1" d="M50.9,60H9.1c-1.3,0-2.4-1.1-2.4-2.4V23.3C6.7,10.5,17.1,0,30,0c12.9,0,23.3,10.5,23.3,23.3v34.3
			C53.3,58.9,52.3,60,50.9,60z M11.5,55.2h37.1V23.3c0-10.2-8.3-18.5-18.5-18.5c-10.2,0-18.5,8.3-18.5,18.5V55.2z"/>
	</g>
	<g>
		<path class="st1" d="M57.4,60H2.6c-1.3,0-2.4-1.1-2.4-2.4s1.1-2.4,2.4-2.4h54.9c1.3,0,2.4,1.1,2.4,2.4S58.8,60,57.4,60z"/>
	</g>
	<g>
		<path class="st1" d="M30,60c-1.3,0-2.4-1.1-2.4-2.4V2.4C27.6,1.1,28.7,0,30,0s2.4,1.1,2.4,2.4v55.2C32.4,58.9,31.3,60,30,60z"/>
	</g>
	<g>
		<line class="st2" x1="36.6" y1="31.1" x2="36.6" y2="35.3"/>
		<path class="st1" d="M36.6,37.7c-1.3,0-2.4-1.1-2.4-2.4v-4.2c0-1.3,1.1-2.4,2.4-2.4c1.3,0,2.4,1.1,2.4,2.4v4.2
			C39,36.6,37.9,37.7,36.6,37.7z"/>
	</g>
</g>
</svg>
