<?xml version="1.0" encoding="utf-8"?>
<!-- Generator: Adobe Illustrator 19.2.1, SVG Export Plug-In . SVG Version: 6.00 Build 0)  -->
<svg version="1.1" id="Layer_1" xmlns="http://www.w3.org/2000/svg" xmlns:xlink="http://www.w3.org/1999/xlink" x="0px" y="0px"
	 viewBox="0 0 60 60" style="enable-background:new 0 0 60 60;" xml:space="preserve">
<style type="text/css">
	.st0{fill:#231F20;}
	.st1{fill:#D2D3D4;}
</style>
<g>
	<g>
		<path class="st0" d="M12.9,60c-1.9,0-3.7-0.7-5.2-2.1c-1-1-1.7-2.3-2-3.6c-1.4-0.3-2.6-1-3.6-2c-2.9-2.9-2.9-7.5,0-10.3
			c2.4-2.4,6-2.8,8.8-1.2l14.9-14.9c0.9-0.9,2.3-0.9,3.2,0l5.1,5.1c0.4,0.4,0.7,1,0.7,1.6c0,0.6-0.2,1.2-0.7,1.6L19.2,49
			c1.6,2.8,1.2,6.4-1.2,8.8C16.6,59.3,14.8,60,12.9,60z M7.9,49.8c0.6,0,1.2,0.2,1.6,0.7c0.5,0.5,0.7,1.2,0.6,1.9
			c-0.1,0.9,0.2,1.7,0.8,2.3c1.1,1.1,2.9,1.1,3.9,0c1.1-1.1,1.1-2.8,0-3.9c-0.1-0.1-0.2-0.1-0.2-0.2c-0.5-0.4-0.8-1-0.8-1.6
			c0-0.6,0.2-1.2,0.7-1.7l14.7-14.7l-1.9-1.9L12.7,45.4c-0.4,0.4-1,0.7-1.7,0.7c-0.6,0-1.2-0.3-1.6-0.8c-0.1-0.1-0.1-0.1-0.2-0.2
			c-1.1-1-2.8-1-3.9,0.1c-1.1,1.1-1.1,2.9,0,3.9c0.6,0.6,1.4,0.9,2.3,0.8C7.7,49.8,7.8,49.8,7.9,49.8z"/>
	</g>
	<g>
		
			<ellipse transform="matrix(0.7071 -0.7071 0.7071 0.7071 -3.7999 33.5727)" class="st1" cx="38.6" cy="21.4" rx="21.2" ry="16.8"/>
		<path class="st0" d="M34.3,42.7c-4.6,0-9-1.6-12.2-4.8c-3.7-3.7-5.3-8.9-4.7-14.6c0.6-5.6,3.4-11,7.8-15.4
			c4.4-4.4,9.8-7.1,15.4-7.8c5.8-0.7,11,1,14.6,4.7c3.7,3.7,5.3,8.9,4.7,14.6c-0.6,5.6-3.4,11-7.8,15.4c0,0,0,0,0,0
			C46.9,40,40.3,42.7,34.3,42.7z M43,4.5c-0.6,0-1.3,0-1.9,0.1c-4.6,0.5-9.1,2.8-12.7,6.5c-3.6,3.6-5.9,8.2-6.5,12.7
			c-0.5,4.4,0.7,8.3,3.4,10.9c5.7,5.7,16.3,4.3,23.7-3.1l0,0c3.6-3.6,5.9-8.2,6.5-12.7c0.5-4.4-0.7-8.3-3.4-10.9
			C49.7,5.7,46.6,4.5,43,4.5z M50.5,33.3L50.5,33.3L50.5,33.3z"/>
	</g>
</g>
</svg>
