<?xml version="1.0" encoding="utf-8"?>
<!-- Generator: Adobe Illustrator 16.0.0, SVG Export Plug-In . SVG Version: 6.00 Build 0)  -->
<!DOCTYPE svg PUBLIC "-//W3C//DTD SVG 1.1//EN" "http://www.w3.org/Graphics/SVG/1.1/DTD/svg11.dtd">
<svg version="1.1" id="Layer_1" xmlns="http://www.w3.org/2000/svg" xmlns:xlink="http://www.w3.org/1999/xlink" x="0px" y="0px"
	 width="60px" height="60px" viewBox="0 0 60 60" enable-background="new 0 0 60 60" xml:space="preserve">
<g>
	<g>
		<path fill="#231F20" d="M29.57,58.364c-3.781,0-7.547-0.732-11.194-2.179C2.461,49.876-1.161,35.438,0.294,27.819
			c0.683-3.575,2.488-5.71,4.829-5.71c0.768,0,1.942,0.254,3.179,1.465c2.002,1.959,5.914,2.995,11.311,2.995
			c5.061,0,9.82-0.913,10.888-1.132c2.156-1.115,2.626-1.987,2.796-2.695c0.314-1.311-0.231-3.346-1.669-6.221
			c-1.396-2.792-1.162-6.066,0.643-8.983c2.183-3.53,6.181-5.902,9.949-5.902c1.418,0,2.738,0.328,3.928,0.975
			c5.675,2.209,7.131,7.14,7.134,10.437c1.286,0.548,3.28,1.614,5.734,3.646l0.287,0.237l0.173,0.33
			c0.818,1.554,0.528,2.643,0.144,3.282c-0.394,0.651-1.241,1.426-3.047,1.426c-0.552,0-1.018-0.07-1.2-0.102
			c-0.145-0.019-0.839-0.099-1.812-0.099c-1.188,0-2.951,0.12-4.61,0.695c-0.872,0.271-1.406,0.61-1.488,0.928
			c-0.168,0.651,0.658,1.983,1.331,2.717c5.522,4.457,7.434,10.595,5.243,16.858C50.917,51.889,40.627,58.364,29.57,58.364z
			 M5.116,25.834C4.75,25.98,3.76,27.673,3.724,30.966c-0.078,7.075,4.072,17.018,16.025,21.757
			c3.208,1.271,6.512,1.917,9.821,1.917c10.678,0,18.763-6.648,20.95-12.903c1.673-4.786,0.197-9.332-4.154-12.799l-0.175-0.158
			c-0.32-0.329-3.105-3.301-2.339-6.307c0.293-1.153,1.215-2.706,3.937-3.549c2.091-0.725,4.298-0.881,5.771-0.881
			c0.409,0,0.78,0.013,1.102,0.028c-2.305-1.564-3.729-1.916-3.746-1.921l-1.695-0.4l0.264-1.724
			c0.091-0.588,0.743-5.896-4.784-7.981l-0.263-0.123c-0.654-0.372-1.401-0.561-2.218-0.561c-2.447,0-5.3,1.739-6.78,4.136
			c-0.652,1.055-1.581,3.153-0.479,5.358c1.897,3.796,2.502,6.496,1.958,8.757c-0.673,2.804-3.004,4.286-4.959,5.264l-0.205,0.103
			l-0.225,0.05c-0.234,0.052-5.793,1.267-11.917,1.267c-6.482,0-11.165-1.365-13.917-4.058C5.319,25.867,5.118,25.834,5.116,25.834z
			"/>
	</g>
	<g>
		<path fill="#231F20" d="M46.545,21.2c-1.408-5.091,1.786-7.969,4.278-8.661l1.021,3.582c-0.787,0.242-2.527,1.126-1.708,4.086
			L46.545,21.2z"/>
	</g>
	<g>
		<path fill="#D2D3D4" d="M34.283,24.871c0,0,6.913,2.284,5.606,11.287s-11.616,7.404-11.616,7.404s-13.456-0.506-15.367-15.789
			C12.907,27.773,29.692,30.863,34.283,24.871z"/>
		<path fill="#231F20" d="M30.049,45.535c-1.001,0-1.727-0.085-1.976-0.119c-1.48-0.112-15.036-1.585-17.014-17.411l-0.316-2.521
			l2.5,0.458c0.042,0.008,4.23,0.766,8.85,0.766c5.44,0,9.245-1.054,10.711-2.969l0.806-1.051l1.258,0.415
			c2.904,0.96,8.076,4.979,6.865,13.323C40.893,42.215,36.634,45.535,30.049,45.535z M15.195,29.991
			c2.671,11.181,12.695,11.693,13.148,11.71l0.216,0.021c0,0,0.599,0.088,1.49,0.088c3.256-0.001,7.287-1.028,7.997-5.92
			c0.789-5.429-1.82-7.839-3.34-8.761c-2.496,2.192-6.728,3.303-12.612,3.303c0,0,0,0,0,0C19.44,30.433,16.96,30.207,15.195,29.991z
			"/>
	</g>
</g>
</svg>
