<?xml version="1.0" encoding="utf-8"?>
<!-- Generator: Adobe Illustrator 19.2.1, SVG Export Plug-In . SVG Version: 6.00 Build 0)  -->
<svg version="1.1" id="Layer_1" xmlns="http://www.w3.org/2000/svg" xmlns:xlink="http://www.w3.org/1999/xlink" x="0px" y="0px"
	 viewBox="0 0 60 60" style="enable-background:new 0 0 60 60;" xml:space="preserve">
<style type="text/css">
	.st0{fill:#D2D3D4;}
	.st1{fill:#231F20;}
</style>
<g>
	<g>
		<path class="st0" d="M39.3,5.6c0,0-4.8,0.3-5.4,6.7s2.7,11.3,2.7,11.3s2.4-1.7,0,6.4s7.8,15.6,11.6,6.7s-0.5-12.7,2.1-13.6
			c2.7-0.9,5.8-2.8,5.8-2.8l-3.5-6.5L47.1,8l-8-4.3L39.3,5.6z"/>
	</g>
	<g>
		<path class="st0" d="M6.9,45.6c0,0,2.9-15.3,6.9-11.5c4,3.8,0.3,5.9,2.7,9.7s5.6,1.6,5.9,5.9s0.8,7.5,2.8,7.8S10.8,54.2,6.9,45.6z
			"/>
	</g>
	<g>
		<path class="st1" d="M30,60C13.5,60,0,46.5,0,30C0,13.5,13.5,0,30,0c16.5,0,30,13.5,30,30C60,46.5,46.5,60,30,60z M30,4.3
			C15.8,4.3,4.3,15.8,4.3,30c0,14.2,11.5,25.7,25.7,25.7c14.2,0,25.7-11.5,25.7-25.7C55.7,15.8,44.2,4.3,30,4.3z"/>
	</g>
	<g>
		<circle class="st0" cx="22.7" cy="23.7" r="6.5"/>
	</g>
</g>
</svg>
