<?xml version="1.0" encoding="utf-8"?>
<!-- Generator: Adobe Illustrator 16.0.0, SVG Export Plug-In . SVG Version: 6.00 Build 0)  -->
<!DOCTYPE svg PUBLIC "-//W3C//DTD SVG 1.1//EN" "http://www.w3.org/Graphics/SVG/1.1/DTD/svg11.dtd">
<svg version="1.1" id="Layer_1" xmlns="http://www.w3.org/2000/svg" xmlns:xlink="http://www.w3.org/1999/xlink" x="0px" y="0px"
	 width="60px" height="60px" viewBox="0 0 60 60" enable-background="new 0 0 60 60" xml:space="preserve">
<g>
	<g>
		<path fill="#D2D3D4" d="M345.988,1589.729c-2.106,2.105-5.522,2.106-7.629,0l-7.63-7.63c-2.106-2.106-2.106-5.523,0-7.629
			l2.861-2.862c2.106-2.105,5.522-2.105,7.629,0l7.63,7.63c2.106,2.107,2.106,5.523,0,7.629L345.988,1589.729z"/>
		<path fill="#231F20" d="M342.174,1593.308c-1.976,0-3.832-0.769-5.229-2.165l-7.63-7.63c-1.396-1.396-2.166-3.253-2.166-5.229
			s0.77-3.833,2.166-5.229l2.861-2.862c1.396-1.396,3.254-2.165,5.229-2.165s3.832,0.769,5.229,2.165l7.63,7.63
			c2.884,2.885,2.883,7.575,0,10.457l-2.861,2.862C346.006,1592.539,344.148,1593.308,342.174,1593.308z M337.405,1572.028
			c-0.907,0-1.76,0.353-2.4,0.993l-2.861,2.862c-0.641,0.641-0.994,1.493-0.994,2.4c0,0.906,0.354,1.759,0.994,2.4l7.63,7.63
			c1.281,1.281,3.518,1.283,4.801,0l2.861-2.862c1.323-1.323,1.323-3.477,0-4.801l-7.63-7.63
			C339.165,1572.381,338.313,1572.028,337.405,1572.028z"/>
	</g>
	<g>
		<path fill="#D2D3D4" d="M297.59,1589.729c2.106,2.105,5.522,2.106,7.629,0l7.63-7.63c2.106-2.106,2.106-5.523,0-7.629
			l-2.861-2.862c-2.106-2.105-5.522-2.105-7.629,0l-7.63,7.63c-2.106,2.107-2.106,5.523,0,7.629L297.59,1589.729z"/>
		<path fill="#231F20" d="M301.405,1593.308C301.404,1593.308,301.404,1593.308,301.405,1593.308c-1.976,0-3.833-0.769-5.229-2.165
			l-2.861-2.862c-2.883-2.882-2.883-7.572,0-10.457l7.63-7.63c1.396-1.396,3.253-2.165,5.229-2.165s3.832,0.769,5.229,2.165
			l2.862,2.862c1.396,1.396,2.164,3.253,2.164,5.229s-0.769,3.832-2.165,5.229l-7.63,7.63
			C305.236,1592.539,303.38,1593.308,301.405,1593.308z M306.173,1572.028c-0.907,0-1.759,0.353-2.4,0.993l-7.63,7.63
			c-1.323,1.324-1.323,3.478,0,4.801l2.861,2.862c0.641,0.641,1.494,0.993,2.4,0.993h0.001c0.906,0,1.759-0.353,2.399-0.993
			l7.63-7.63c0.642-0.642,0.993-1.494,0.993-2.4c0-0.907-0.352-1.76-0.993-2.4l-2.862-2.862
			C307.932,1572.381,307.08,1572.028,306.173,1572.028z"/>
	</g>
	<g>
		<circle fill="#FFFFFF" cx="322.108" cy="1600.892" r="22.892"/>
		<path fill="#231F20" d="M322.108,1625.783c-13.726,0-24.892-11.166-24.892-24.892S308.383,1576,322.108,1576
			S347,1587.166,347,1600.892S335.834,1625.783,322.108,1625.783z M322.108,1580c-11.52,0-20.892,9.372-20.892,20.892
			s9.372,20.892,20.892,20.892S343,1612.411,343,1600.892S333.628,1580,322.108,1580z"/>
	</g>
	<g>
		<path fill="#231F20" d="M299.215,1629.5c-0.416,0-0.834-0.129-1.193-0.396c-0.886-0.66-1.068-1.914-0.408-2.799l7.327-9.826
			c0.661-0.885,1.915-1.067,2.799-0.408c0.886,0.66,1.068,1.914,0.408,2.799l-7.327,9.826
			C300.428,1629.222,299.825,1629.5,299.215,1629.5z"/>
	</g>
	<g>
		<path fill="#231F20" d="M345.546,1629.5c-0.61,0-1.213-0.278-1.605-0.805l-7.327-9.826c-0.66-0.885-0.478-2.139,0.408-2.799
			c0.886-0.661,2.14-0.477,2.799,0.408l7.327,9.826c0.66,0.885,0.478,2.139-0.408,2.799
			C346.381,1629.371,345.961,1629.5,345.546,1629.5z"/>
	</g>
	<g>
		<polyline fill="#FFFFFF" points="322.108,1585.25 322.108,1600.892 331.858,1610.642 		"/>
		<path fill="#231F20" d="M331.858,1612.642c-0.512,0-1.023-0.195-1.414-0.586l-9.75-9.75c-0.375-0.375-0.586-0.884-0.586-1.414
			v-15.642c0-1.104,0.896-2,2-2s2,0.896,2,2v14.813l9.164,9.164c0.781,0.781,0.781,2.047,0,2.828
			C332.882,1612.446,332.37,1612.642,331.858,1612.642z"/>
	</g>
</g>
<g>
	<g>
		<path fill="#231F20" d="M30,60C16.15,60,4.883,48.732,4.883,34.883C4.883,21.108,16.136,0,30,0s25.117,21.108,25.117,34.883
			C55.117,48.732,43.85,60,30,60z M30,3.433c-11.761,0-21.685,19.317-21.685,31.45c0,11.957,9.728,21.685,21.685,21.685
			s21.685-9.728,21.685-21.685C51.685,22.75,41.76,3.433,30,3.433z"/>
	</g>
	<g>
		<circle fill="#D2D3D4" cx="22.615" cy="17.609" r="2.757"/>
	</g>
	<g>
		<circle fill="#D2D3D4" cx="39.303" cy="42.216" r="9.303"/>
	</g>
	<g>
		<circle fill="#D2D3D4" cx="16.608" cy="36.021" r="5.332"/>
	</g>
</g>
</svg>
