<?xml version="1.0" encoding="utf-8"?>
<!-- Generator: Adobe Illustrator 19.2.1, SVG Export Plug-In . SVG Version: 6.00 Build 0)  -->
<svg version="1.1" id="Layer_1" xmlns="http://www.w3.org/2000/svg" xmlns:xlink="http://www.w3.org/1999/xlink" x="0px" y="0px"
	 viewBox="0 0 16 16" style="enable-background:new 0 0 16 16;" xml:space="preserve">
<style type="text/css">
	.st0{fill:#F15A5B;}
</style>
<g>
	<path class="st0" d="M9.8,9.3c0.6,0.4,1.4,0.6,2.1,0.6c1.1,0,2.1-0.4,2.9-1.2C15.6,7.9,16,6.9,16,5.8c0-1.1-0.4-2.1-1.2-2.9
		C14,2.1,13,1.7,11.9,1.7c-1.1,0-2,0.4-2.8,1.1C8.6,3.3,8.2,3.9,8,4.5C7.8,3.9,7.4,3.3,6.9,2.8C6.1,2,5.2,1.7,4.1,1.7
		C3,1.7,2,2.1,1.2,2.9S0,4.6,0,5.8c0,1.1,0.4,2.1,1.2,2.9S3,9.9,4.1,9.9c0.8,0,1.5-0.2,2.1-0.6c0.7-0.4,1.1-0.9,1.5-1.6
		c-0.1,1.4-0.5,2.6-1.1,3.7c-0.9,1.6-2.3,0-4,0.1c-0.1,0-0.1,0-0.2,0.1c0,0-0.1,2.5,0,2.6c0,0.2,0.1,0.2,0.2,0.2
		c0.9,0,1.8-0.3,2.5-0.7c0.7-0.5,1.3-1.1,1.8-1.8c0.4-0.7,0.8-1.6,1-2.5C7.9,9.2,8,9.1,8,8.9c0,0.1,0.1,0.3,0.1,0.4
		c0.2,0.9,0.6,1.7,1,2.5c0.4,0.7,1,1.3,1.8,1.8c0.7,0.5,1.6,0.7,2.5,0.7c0.2,0,0.2-0.1,0.2-0.2c0,0,0-2.5,0-2.6c0,0-0.1-0.1-0.2-0.1
		c-1.7-0.1-3.1,1.5-4-0.1c-0.6-1.1-1-2.3-1.1-3.7C8.6,8.3,9.1,8.9,9.8,9.3z M9.7,5.6L9.7,5.6C9.8,5,10,4.5,10.4,4.2
		c0.4-0.4,0.9-0.6,1.5-0.6s0.4,0.9,0.8,1.4c0.4,0.4,1.4,0.2,1.4,0.8c0,0.6-0.9,0.4-1.4,0.8c-0.4,0.4-0.2,1.4-0.8,1.4
		c-0.6,0-1.1-0.2-1.5-0.6C9.9,6.9,9.7,6.4,9.7,5.8C9.7,5.7,9.7,5.6,9.7,5.6z M5.6,7.3C5.2,7.7,4.7,7.9,4.1,7.9
		c-0.6,0-0.4-1.2-0.8-1.6c-0.4-0.4-1.4,0-1.4-0.6c0-0.6,0.9-0.4,1.4-0.8c0.4-0.4,0.2-1.4,0.8-1.4s1.1,0.2,1.5,0.6
		C6,4.5,6.2,5,6.3,5.6v0.1c0,0,0,0.1,0,0.2C6.3,6.4,6.1,6.9,5.6,7.3z"/>
</g>
</svg>
