<?xml version="1.0" encoding="utf-8"?>
<!-- Generator: Adobe Illustrator 19.2.1, SVG Export Plug-In . SVG Version: 6.00 Build 0)  -->
<svg version="1.1" id="Layer_1" xmlns="http://www.w3.org/2000/svg" xmlns:xlink="http://www.w3.org/1999/xlink" x="0px" y="0px"
	 viewBox="0 0 60 60" style="enable-background:new 0 0 60 60;" xml:space="preserve">
<style type="text/css">
	.st0{fill:#D2D3D4;}
	.st1{fill:#FFFFFF;}
	.st2{fill:#231F20;}
</style>
<g>
	<g>
		<circle class="st0" cx="30" cy="27.5" r="24.7"/>
	</g>
	<g>
		<polygon class="st1" points="23.8,2.3 43.8,2.3 31.9,24.6 43.8,24.9 25.3,57.7 29.3,32.8 18,33.6 		"/>
		<path class="st2" d="M25.3,60c-0.3,0-0.5,0-0.8-0.1c-1-0.4-1.7-1.4-1.5-2.5l3.6-22l-8.4,0.6c-0.7,0.1-1.4-0.2-1.9-0.8
			c-0.5-0.5-0.7-1.2-0.5-1.9l5.8-31.3C21.8,0.8,22.7,0,23.8,0h20c0.8,0,1.6,0.4,2,1.1c0.4,0.7,0.4,1.6,0.1,2.3l-10.2,19l8.2,0.2
			c0.8,0,1.5,0.5,1.9,1.2c0.4,0.7,0.4,1.6,0,2.3L27.3,58.8C26.9,59.6,26.1,60,25.3,60z M29.3,30.5c0.6,0,1.3,0.3,1.7,0.7
			c0.5,0.5,0.7,1.2,0.6,1.9l-2,12.2l10.3-18.2l-8.1-0.2c-0.8,0-1.5-0.5-1.9-1.1c-0.4-0.7-0.4-1.5,0-2.2L40,4.6H25.7l-4.9,26.5
			l8.4-0.6C29.2,30.5,29.3,30.5,29.3,30.5z"/>
	</g>
</g>
</svg>
