<?xml version="1.0" encoding="utf-8"?>
<!-- Generator: Adobe Illustrator 19.2.1, SVG Export Plug-In . SVG Version: 6.00 Build 0)  -->
<svg version="1.1" id="Layer_1" xmlns="http://www.w3.org/2000/svg" xmlns:xlink="http://www.w3.org/1999/xlink" x="0px" y="0px"
	 viewBox="0 0 60 60" style="enable-background:new 0 0 60 60;" xml:space="preserve">
<style type="text/css">
	.st0{fill:#FFFFFF;}
	.st1{fill:#231F20;}
	.st2{fill:#D1D2D3;}
</style>
<g>
	<g>
		<polygon class="st0" points="58.2,58.2 1.8,58.2 1.8,1.8 41.2,1.8 58.2,18.3 		"/>
		<path class="st1" d="M58.2,60H1.8c-1,0-1.8-0.8-1.8-1.8V1.8C0,0.8,0.8,0,1.8,0h39.5c0.5,0,0.9,0.2,1.2,0.5l17,16.6
			c0.3,0.3,0.5,0.8,0.5,1.3v39.9C60,59.2,59.2,60,58.2,60z M3.5,56.5h53V19.1l-16-15.5h-37V56.5z"/>
	</g>
	<g>
		<rect x="11.9" y="30.6" class="st2" width="36.3" height="27.6"/>
		<path class="st1" d="M48.3,60H11.9c-1,0-1.8-0.8-1.8-1.8V30.6c0-1,0.8-1.8,1.8-1.8h36.3c1,0,1.8,0.8,1.8,1.8v27.6
			C50,59.2,49.2,60,48.3,60z M13.7,56.5h32.8V32.4H13.7V56.5z"/>
	</g>
	<g>
		<rect x="11.9" y="10.1" class="st2" width="16.4" height="10.2"/>
	</g>
</g>
</svg>
