<?xml version="1.0" encoding="utf-8"?>
<!-- Generator: Adobe Illustrator 16.0.0, SVG Export Plug-In . SVG Version: 6.00 Build 0)  -->
<!DOCTYPE svg PUBLIC "-//W3C//DTD SVG 1.1//EN" "http://www.w3.org/Graphics/SVG/1.1/DTD/svg11.dtd">
<svg version="1.1" id="Layer_1" xmlns="http://www.w3.org/2000/svg" xmlns:xlink="http://www.w3.org/1999/xlink" x="0px" y="0px"
	 width="60px" height="60px" viewBox="0 0 60 60" enable-background="new 0 0 60 60" xml:space="preserve">
<g>
	<g>
		<path fill="#D2D3D4" d="M29.232,46.25c0,0,8.473-8.708,8.475-19.452c0.003-10.743-8.466-19.456-8.466-19.456
			s-8.472,8.708-8.476,19.452C20.763,37.537,29.232,46.25,29.232,46.25z"/>
		<path fill="#231F20" d="M29.232,48.015L29.232,48.015c-0.477,0-0.933-0.193-1.265-0.535c-0.366-0.376-8.968-9.356-8.966-20.686
			c0.003-11.331,8.609-20.307,8.975-20.683c0.333-0.341,0.788-0.534,1.265-0.534l0,0c0.477,0,0.933,0.193,1.265,0.535
			c0.367,0.376,8.968,9.356,8.964,20.687c-0.001,11.329-8.607,20.306-8.974,20.682C30.165,47.821,29.709,48.015,29.232,48.015z
			 M29.243,10.045c-2.248,2.811-6.71,9.325-6.713,16.75c-0.001,7.446,4.452,13.946,6.701,16.752
			c2.249-2.813,6.711-9.327,6.711-16.749C35.945,19.351,31.491,12.851,29.243,10.045z"/>
	</g>
	<g>
		<path fill="#FFFFFF" d="M34.514,49.114c0,0,1.685-12.032-4.667-20.698c-6.351-8.665-18.333-10.683-18.333-10.683
			s-1.683,12.032,4.667,20.698C22.532,47.097,34.514,49.114,34.514,49.114z"/>
		<path fill="#231F20" d="M34.514,50.879c-0.098,0-0.195-0.008-0.293-0.024c-0.518-0.088-12.766-2.242-19.462-11.38
			c-6.696-9.139-5.065-21.466-4.992-21.986c0.065-0.471,0.319-0.896,0.704-1.178c0.384-0.282,0.867-0.395,1.336-0.317
			c0.518,0.088,12.766,2.241,19.463,11.38s5.064,21.466,4.991,21.986c-0.065,0.472-0.319,0.896-0.704,1.178
			C35.252,50.761,34.886,50.879,34.514,50.879z M13.113,19.912c-0.151,3.596,0.103,11.488,4.491,17.477
			c4.385,5.984,11.832,8.604,15.31,9.544c0.15-3.6-0.104-11.487-4.49-17.473C24.021,23.452,16.586,20.845,13.113,19.912z"/>
	</g>
	<g>
		<path fill="#FFFFFF" d="M27.903,50.824c0,0,11.759-3.059,17.327-12.246C50.8,29.39,48.069,17.55,48.069,17.55
			s-11.758,3.059-17.327,12.247C25.173,38.983,27.903,50.824,27.903,50.824z"/>
		<path fill="#231F20" d="M27.903,52.589c-0.319,0-0.637-0.087-0.914-0.256c-0.407-0.247-0.698-0.648-0.805-1.112
			c-0.118-0.512-2.823-12.65,3.05-22.339c5.872-9.688,17.883-12.906,18.391-13.039c0.46-0.12,0.952-0.049,1.358,0.199
			c0.407,0.246,0.698,0.647,0.806,1.111c0.118,0.512,2.822,12.65-3.051,22.339c-5.871,9.688-17.882,12.907-18.391,13.039
			C28.201,52.569,28.051,52.589,27.903,52.589z M46.671,19.862c-3.38,1.24-10.572,4.5-14.42,10.849
			c-3.86,6.369-3.418,14.235-2.949,17.801c3.381-1.239,10.573-4.5,14.419-10.848C47.582,31.295,47.141,23.428,46.671,19.862z"/>
	</g>
	<g>
		<path fill="#FFFFFF" d="M35.349,51.877c0,0-11.795,2.913-21.068-2.511C5.005,43.941,1.764,32.231,1.764,32.231
			s11.795-2.914,21.069,2.512C32.107,40.166,35.349,51.877,35.349,51.877z"/>
		<path fill="#231F20" d="M27.847,54.423c-5.584,0-10.449-1.189-14.457-3.534c-9.78-5.721-13.186-17.68-13.326-18.187
			c-0.126-0.459-0.063-0.95,0.178-1.361s0.637-0.708,1.1-0.821c0.138-0.035,3.424-0.833,7.926-0.833
			c5.584,0,10.448,1.188,14.457,3.533c9.779,5.72,13.185,17.681,13.325,18.187c0.127,0.46,0.063,0.95-0.178,1.361
			c-0.241,0.412-0.637,0.708-1.1,0.822C35.634,53.624,32.348,54.423,27.847,54.423z M4.098,33.593
			c1.291,3.359,4.664,10.502,11.073,14.25c3.461,2.024,7.726,3.052,12.676,3.052c2.099,0,3.905-0.191,5.168-0.379
			c-1.291-3.359-4.664-10.502-11.072-14.25c-3.461-2.025-7.726-3.051-12.675-3.051C7.167,33.215,5.36,33.406,4.098,33.593z"/>
	</g>
	<g>
		<path fill="#FFFFFF" d="M24.651,51.877c0,0,11.795,2.913,21.068-2.511c9.274-5.425,12.517-17.135,12.517-17.135
			s-11.796-2.914-21.069,2.512C27.893,40.166,24.651,51.877,24.651,51.877z"/>
		<path fill="#231F20" d="M32.154,54.423L32.154,54.423c-4.501,0-7.788-0.799-7.926-0.833c-0.462-0.114-0.859-0.41-1.1-0.822
			c-0.24-0.411-0.304-0.901-0.177-1.361c0.141-0.506,3.545-12.467,13.325-18.187c4.009-2.345,8.872-3.533,14.457-3.533
			c4.501,0,7.788,0.798,7.926,0.833c0.462,0.113,0.859,0.41,1.1,0.821s0.304,0.902,0.178,1.361
			c-0.141,0.507-3.546,12.466-13.326,18.187C42.603,53.233,37.738,54.423,32.154,54.423z M26.986,50.515
			c1.267,0.187,3.079,0.38,5.167,0.38h0.001c4.949,0,9.214-1.027,12.675-3.052c6.432-3.761,9.791-10.891,11.076-14.247
			c-1.268-0.188-3.081-0.381-5.172-0.381c-4.95,0-9.215,1.025-12.676,3.051C31.65,40.013,28.278,47.152,26.986,50.515z"/>
	</g>
</g>
</svg>
