<?xml version="1.0" encoding="utf-8"?>
<!-- Generator: Adobe Illustrator 19.2.1, SVG Export Plug-In . SVG Version: 6.00 Build 0)  -->
<svg version="1.1" id="Layer_1" xmlns="http://www.w3.org/2000/svg" xmlns:xlink="http://www.w3.org/1999/xlink" x="0px" y="0px"
	 viewBox="0 0 60 60" style="enable-background:new 0 0 60 60;" xml:space="preserve">
<style type="text/css">
	.st0{fill:#D1D2D3;}
	.st1{fill:#231F20;}
	.st2{fill:#FFFFFF;}
</style>
<g>
	<g>
		<rect x="9.1" y="8" class="st0" width="49.3" height="44"/>
		<path class="st1" d="M58.4,53.6H9.1c-0.9,0-1.6-0.7-1.6-1.6V8c0-0.9,0.7-1.6,1.6-1.6h49.3C59.3,6.4,60,7.1,60,8v44
			C60,52.9,59.3,53.6,58.4,53.6z M10.7,50.5h46.2V9.5H10.7V50.5z"/>
	</g>
	<g>
		<polygon class="st2" points="9.1,52 1.6,14.8 27.6,14.8 30.3,25.6 51.9,25.6 57.8,52 		"/>
		<path class="st1" d="M57.8,53.6H9.1c-0.7,0-1.4-0.5-1.5-1.2L0,15.2c-0.1-0.5,0-0.9,0.3-1.3c0.3-0.4,0.7-0.6,1.2-0.6h26
			c0.7,0,1.3,0.5,1.5,1.2l2.4,9.6h20.3c0.7,0,1.4,0.5,1.5,1.2l5.9,26.4c0.1,0.5,0,0.9-0.3,1.3C58.7,53.4,58.2,53.6,57.8,53.6z
			 M10.4,50.5h45.4l-5.2-23.3H30.3c-0.7,0-1.3-0.5-1.5-1.2l-2.4-9.6H3.5L10.4,50.5z"/>
	</g>
</g>
</svg>
