<?xml version="1.0" encoding="utf-8"?>
<!-- Generator: Adobe Illustrator 16.0.0, SVG Export Plug-In . SVG Version: 6.00 Build 0)  -->
<!DOCTYPE svg PUBLIC "-//W3C//DTD SVG 1.1//EN" "http://www.w3.org/Graphics/SVG/1.1/DTD/svg11.dtd">
<svg version="1.1" id="Layer_1" xmlns="http://www.w3.org/2000/svg" xmlns:xlink="http://www.w3.org/1999/xlink" x="0px" y="0px"
	 width="60px" height="60px" viewBox="0 0 60 60" enable-background="new 0 0 60 60" xml:space="preserve">
<g>
	<g>
		<path fill="#D2D3D4" d="M52.881,24.837c-3.843,3.844-10.963,4.732-14.807,0.889s-2.956-10.964,0.888-14.808
			s13.629-7.397,17.473-3.554S56.725,20.993,52.881,24.837z"/>
		<path fill="#231F20" d="M44.541,30.081c-3.075,0-5.843-1.075-7.795-3.027c-2.21-2.208-3.27-5.363-2.983-8.884
			c0.264-3.257,1.675-6.384,3.871-8.58c2.831-2.831,8.833-5.759,13.977-5.759c2.583,0,4.711,0.763,6.152,2.205
			c5.061,5.061,0.513,16.063-3.554,20.129C51.758,28.617,48.144,30.081,44.541,30.081z M51.61,7.589
			c-3.984,0-9.07,2.408-11.32,4.657c-1.552,1.553-2.592,3.881-2.782,6.228c-0.194,2.403,0.479,4.507,1.895,5.924
			c1.242,1.242,3.067,1.926,5.139,1.926c2.589,0,5.275-1.078,7.012-2.814c3.373-3.373,6.402-11.968,3.554-14.816
			C54.193,7.78,52.702,7.589,51.61,7.589z"/>
	</g>
	<g>
		<path fill="#231F20" d="M16.115,30.898c-0.029,0-0.057-0.001-0.085-0.001c-1.622-0.038-2.687-1.121-2.883-1.338L0.551,16.967
			c-0.734-0.733-0.734-1.923,0-2.656c0.733-0.734,1.923-0.734,2.657,0l12.658,12.657c0.092,0.091,0.212,0.165,0.263,0.174
			c-0.02-0.004,0.064-0.05,0.188-0.174l4.518-4.517l2.657,2.657l-4.518,4.517C17.931,30.668,16.858,30.898,16.115,30.898z"/>
	</g>
	<g>
		<path fill="#231F20" d="M23.638,24.961l-2.657-2.658l4.517-4.516c0.124-0.124,0.169-0.208,0.176-0.23
			c-0.013-0.02-0.112-0.16-0.113-0.161L12.841,4.678c-0.734-0.733-0.734-1.924,0-2.657c0.733-0.733,1.923-0.733,2.657,0
			l12.658,12.657c0.153,0.136,1.235,1.201,1.273,2.822c0.017,0.745-0.189,1.86-1.272,2.944L23.638,24.961z"/>
	</g>
	<g>
		<path fill="#231F20" d="M53.998,57.199c-0.48,0-0.961-0.184-1.328-0.551L6.769,10.749c-0.734-0.733-0.734-1.924,0-2.657
			c0.733-0.733,1.923-0.733,2.657,0l45.9,45.899c0.734,0.734,0.734,1.923,0,2.657C54.96,57.016,54.479,57.199,53.998,57.199z"/>
	</g>
	<g>
		<path fill="#231F20" d="M7.148,58.529c-0.48,0-0.961-0.184-1.328-0.551c-0.734-0.733-0.734-1.923,0-2.656l30.577-30.578
			c0.734-0.734,1.923-0.734,2.657,0c0.734,0.733,0.734,1.923,0,2.656L8.477,57.979C8.11,58.346,7.629,58.529,7.148,58.529z"/>
	</g>
</g>
</svg>
