<?xml version="1.0" encoding="utf-8"?>
<!-- Generator: Adobe Illustrator 16.0.0, SVG Export Plug-In . SVG Version: 6.00 Build 0)  -->
<!DOCTYPE svg PUBLIC "-//W3C//DTD SVG 1.1//EN" "http://www.w3.org/Graphics/SVG/1.1/DTD/svg11.dtd">
<svg version="1.1" id="Layer_1" xmlns="http://www.w3.org/2000/svg" xmlns:xlink="http://www.w3.org/1999/xlink" x="0px" y="0px"
	 width="60px" height="60px" viewBox="0 0 60 60" enable-background="new 0 0 60 60" xml:space="preserve">
<g>
	<g>
		<path fill="#FFFFFF" d="M44.47,29.953h-28.94c-7.485,0-13.553,6.068-13.553,13.552c0,7.485,6.068,13.554,13.553,13.554h28.94
			c7.485,0,13.554-6.068,13.554-13.554C58.023,36.021,51.955,29.953,44.47,29.953z"/>
		<path fill="#231F20" d="M44.47,59.035h-28.94C6.966,59.035,0,52.068,0,43.505c0-8.563,6.966-15.529,15.529-15.529h28.94
			c8.563,0,15.53,6.966,15.53,15.529C60,52.068,53.033,59.035,44.47,59.035z M15.529,31.929c-6.383,0-11.576,5.193-11.576,11.576
			c0,6.384,5.193,11.577,11.576,11.577h28.94c6.385,0,11.577-5.193,11.577-11.577c0-6.383-5.192-11.576-11.577-11.576H15.529z"/>
	</g>
	<g>
		<circle fill="#231F20" cx="41.012" cy="46.424" r="2.635"/>
	</g>
	<g>
		<circle fill="#231F20" cx="46.94" cy="40.494" r="2.635"/>
	</g>
	<g>
		<circle fill="#D2D3D4" cx="15.153" cy="43.294" r="6.424"/>
		<path fill="#231F20" d="M15.153,51.693c-4.632,0-8.4-3.769-8.4-8.399c0-4.632,3.768-8.4,8.4-8.4s8.4,3.769,8.4,8.4
			C23.553,47.925,19.785,51.693,15.153,51.693z M15.153,38.847c-2.452,0-4.447,1.995-4.447,4.447s1.995,4.447,4.447,4.447
			s4.447-1.995,4.447-4.447S17.605,38.847,15.153,38.847z"/>
	</g>
	<g>
		<path fill="#231F20" d="M29.812,31.266c-1.092,0-1.977-0.884-1.977-1.976V15.458c0-0.166,0.021-1.664,0.785-3.189
			c1.095-2.191,3.156-3.398,5.803-3.398c2.479,0,3.924,0.999,4.699,1.836c1.498,1.618,1.579,3.701,1.563,4.376
			c0.07,0.669,0.449,2.491,2.441,2.491c2.156,0,2.703-2.399,2.801-2.952V2.941c0-1.091,0.885-1.977,1.977-1.977
			c1.091,0,1.976,0.885,1.976,1.977v11.833c0,0.087-0.005,0.174-0.017,0.26c-0.299,2.246-2.09,6.493-6.736,6.493
			c-4.401,0-6.235-3.752-6.395-6.274c-0.006-0.092-0.005-0.185,0.002-0.276c0.013-0.259-0.055-1.103-0.525-1.598
			c-0.351-0.369-0.951-0.556-1.786-0.556c-2.329,0-2.618,1.856-2.636,2.654V29.29C31.787,30.381,30.903,31.266,29.812,31.266z"/>
	</g>
</g>
</svg>
