<?xml version="1.0" encoding="utf-8"?>
<!-- Generator: Adobe Illustrator 19.2.1, SVG Export Plug-In . SVG Version: 6.00 Build 0)  -->
<svg version="1.1" id="Layer_1" xmlns="http://www.w3.org/2000/svg" xmlns:xlink="http://www.w3.org/1999/xlink" x="0px" y="0px"
	 viewBox="0 0 60 60" style="enable-background:new 0 0 60 60;" xml:space="preserve">
<style type="text/css">
	.st0{fill:#FFFFFF;}
	.st1{fill:#231F20;}
	.st2{fill:#D2D3D4;}
</style>
<g>
	<g>
		<path class="st0" d="M51.1,50V23.1C51.1,11.4,41.6,2,30,2C18.3,2,8.9,11.4,8.9,23.1v27.8h0c0.2,4,3.5,7.2,7.6,7.2
			c2.9,0,5.5-1.7,6.8-4.1c1.3,2.5,3.8,4.1,6.8,4.1s5.5-1.7,6.8-4.1c1.3,2.5,3.8,4.1,6.8,4.1c4.2,0,7.6-3.4,7.6-7.6
			C51.1,50.3,51.1,50.1,51.1,50z"/>
		<path class="st1" d="M43.5,60c-2.6,0-5-1-6.8-2.8C35,59,32.6,60,30,60s-5-1-6.8-2.8C21.5,59,19.1,60,16.5,60c-5,0-9.1-3.8-9.5-8.7
			c0-0.1,0-0.3,0-0.4V23.1C6.9,10.3,17.3,0,30,0S53,10.3,53,23.1l0,26.9c0,0.2,0,0.3,0,0.5C53.1,55.7,48.8,60,43.5,60z M36.8,52
			L36.8,52c0.7,0,1.4,0.4,1.7,1.1c1,1.9,2.9,3.1,5,3.1c3.1,0,5.6-2.5,5.6-5.6c0-0.1,0-0.1,0-0.2l0-0.2c0,0,0-0.1,0-0.1V23.1
			c0-10.6-8.6-19.1-19.1-19.1c-10.6,0-19.2,8.6-19.2,19.1v27.5c0,0.1,0,0.1,0,0.2c0.2,3,2.6,5.3,5.6,5.3c2.1,0,4-1.2,5-3.1
			c0.3-0.7,1-1.1,1.7-1.1s1.4,0.4,1.7,1.1c1,1.9,2.9,3.1,5,3.1c2.1,0,4-1.2,5-3.1C35.4,52.4,36,52,36.8,52z"/>
	</g>
	<g>
		<path class="st0" d="M26,32.3c0,0-0.2,8.1,4.2,8.1s3.9-8.1,3.9-8.1"/>
		<path class="st1" d="M30.1,42.4c-1.4,0-2.7-0.5-3.6-1.5c-2.6-2.7-2.5-7.9-2.5-8.5c0-1.1,0.9-1.9,2-1.9c1.1,0,1.9,0.9,1.9,2
			c0,1.4,0.2,4.5,1.4,5.7c0.2,0.3,0.5,0.4,0.8,0.4c0.3,0,0.6-0.1,0.8-0.3c1-1,1.3-3.9,1.2-5.7c-0.1-1.1,0.8-2,1.8-2.1
			c1.1-0.1,2,0.8,2.1,1.8c0,0.6,0.3,5.9-2.2,8.6C32.8,41.8,31.5,42.4,30.1,42.4z"/>
	</g>
	<g>
		<circle class="st2" cx="30" cy="19.6" r="5.3"/>
		<path class="st1" d="M30,26.9c-4,0-7.3-3.3-7.3-7.3s3.3-7.3,7.3-7.3s7.3,3.3,7.3,7.3S34,26.9,30,26.9z M30,16.3
			c-1.9,0-3.4,1.5-3.4,3.4c0,1.9,1.5,3.4,3.4,3.4c1.9,0,3.4-1.5,3.4-3.4C33.4,17.8,31.9,16.3,30,16.3z"/>
	</g>
</g>
</svg>
