<?xml version="1.0" encoding="utf-8"?>
<!-- Generator: Adobe Illustrator 16.0.0, SVG Export Plug-In . SVG Version: 6.00 Build 0)  -->
<!DOCTYPE svg PUBLIC "-//W3C//DTD SVG 1.1//EN" "http://www.w3.org/Graphics/SVG/1.1/DTD/svg11.dtd">
<svg version="1.1" id="Layer_1" xmlns="http://www.w3.org/2000/svg" xmlns:xlink="http://www.w3.org/1999/xlink" x="0px" y="0px"
	 width="60px" height="60px" viewBox="0 0 60 60" enable-background="new 0 0 60 60" xml:space="preserve">
<g>
	<g>
		<path fill="#D2D3D4" d="M345.988,1589.729c-2.106,2.105-5.522,2.106-7.629,0l-7.63-7.63c-2.106-2.106-2.106-5.523,0-7.629
			l2.861-2.862c2.106-2.105,5.522-2.105,7.629,0l7.63,7.63c2.106,2.107,2.106,5.523,0,7.629L345.988,1589.729z"/>
		<path fill="#231F20" d="M342.174,1593.308c-1.976,0-3.832-0.769-5.229-2.165l-7.63-7.63c-1.396-1.396-2.166-3.253-2.166-5.229
			s0.77-3.833,2.166-5.229l2.861-2.862c1.396-1.396,3.254-2.165,5.229-2.165s3.832,0.769,5.229,2.165l7.63,7.63
			c2.884,2.885,2.883,7.575,0,10.457l-2.861,2.862C346.006,1592.539,344.148,1593.308,342.174,1593.308z M337.405,1572.028
			c-0.907,0-1.76,0.353-2.4,0.993l-2.861,2.862c-0.641,0.641-0.994,1.493-0.994,2.4c0,0.906,0.354,1.759,0.994,2.4l7.63,7.63
			c1.281,1.281,3.518,1.283,4.801,0l2.861-2.862c1.323-1.323,1.323-3.477,0-4.801l-7.63-7.63
			C339.165,1572.381,338.313,1572.028,337.405,1572.028z"/>
	</g>
	<g>
		<path fill="#D2D3D4" d="M297.59,1589.729c2.106,2.105,5.522,2.106,7.629,0l7.63-7.63c2.106-2.106,2.106-5.523,0-7.629
			l-2.861-2.862c-2.106-2.105-5.522-2.105-7.629,0l-7.63,7.63c-2.106,2.107-2.106,5.523,0,7.629L297.59,1589.729z"/>
		<path fill="#231F20" d="M301.405,1593.308C301.404,1593.308,301.404,1593.308,301.405,1593.308c-1.976,0-3.833-0.769-5.229-2.165
			l-2.861-2.862c-2.883-2.882-2.883-7.572,0-10.457l7.63-7.63c1.396-1.396,3.253-2.165,5.229-2.165s3.832,0.769,5.229,2.165
			l2.862,2.862c1.396,1.396,2.164,3.253,2.164,5.229s-0.769,3.832-2.165,5.229l-7.63,7.63
			C305.236,1592.539,303.38,1593.308,301.405,1593.308z M306.173,1572.028c-0.907,0-1.759,0.353-2.4,0.993l-7.63,7.63
			c-1.323,1.324-1.323,3.478,0,4.801l2.861,2.862c0.641,0.641,1.494,0.993,2.4,0.993h0.001c0.906,0,1.759-0.353,2.399-0.993
			l7.63-7.63c0.642-0.642,0.993-1.494,0.993-2.4c0-0.907-0.352-1.76-0.993-2.4l-2.862-2.862
			C307.932,1572.381,307.08,1572.028,306.173,1572.028z"/>
	</g>
	<g>
		<circle fill="#FFFFFF" cx="322.108" cy="1600.892" r="22.892"/>
		<path fill="#231F20" d="M322.108,1625.783c-13.726,0-24.892-11.166-24.892-24.892S308.383,1576,322.108,1576
			S347,1587.166,347,1600.892S335.834,1625.783,322.108,1625.783z M322.108,1580c-11.52,0-20.892,9.372-20.892,20.892
			s9.372,20.892,20.892,20.892S343,1612.411,343,1600.892S333.628,1580,322.108,1580z"/>
	</g>
	<g>
		<path fill="#231F20" d="M299.215,1629.5c-0.416,0-0.834-0.129-1.193-0.396c-0.886-0.66-1.068-1.914-0.408-2.799l7.327-9.826
			c0.661-0.885,1.915-1.067,2.799-0.408c0.886,0.66,1.068,1.914,0.408,2.799l-7.327,9.826
			C300.428,1629.222,299.825,1629.5,299.215,1629.5z"/>
	</g>
	<g>
		<path fill="#231F20" d="M345.546,1629.5c-0.61,0-1.213-0.278-1.605-0.805l-7.327-9.826c-0.66-0.885-0.478-2.139,0.408-2.799
			c0.886-0.661,2.14-0.477,2.799,0.408l7.327,9.826c0.66,0.885,0.478,2.139-0.408,2.799
			C346.381,1629.371,345.961,1629.5,345.546,1629.5z"/>
	</g>
	<g>
		<polyline fill="#FFFFFF" points="322.108,1585.25 322.108,1600.892 331.858,1610.642 		"/>
		<path fill="#231F20" d="M331.858,1612.642c-0.512,0-1.023-0.195-1.414-0.586l-9.75-9.75c-0.375-0.375-0.586-0.884-0.586-1.414
			v-15.642c0-1.104,0.896-2,2-2s2,0.896,2,2v14.813l9.164,9.164c0.781,0.781,0.781,2.047,0,2.828
			C332.882,1612.446,332.37,1612.642,331.858,1612.642z"/>
	</g>
</g>
<g>
	<g>
		<line fill="#FFFFFF" x1="24.973" y1="37.895" x2="35.262" y2="33.109"/>
		<path fill="#231F20" d="M24.974,39.809c-0.722,0-1.412-0.409-1.737-1.106c-0.446-0.959-0.03-2.098,0.928-2.543l10.289-4.785
			c0.961-0.446,2.098-0.03,2.543,0.928c0.446,0.959,0.03,2.098-0.928,2.543L25.781,39.63C25.519,39.752,25.244,39.809,24.974,39.809
			z"/>
	</g>
	<g>
		<polygon fill="#D2D3D4" points="6.909,46.269 24.136,33.946 27.406,35.42 25.399,42.287 19.25,47.329 10.314,48.314 		"/>
	</g>
	<g>
		<polygon fill="#D2D3D4" points="38.491,46.269 55.719,33.946 58.989,35.42 56.982,42.287 50.833,47.329 41.897,48.314 		"/>
	</g>
	<g>
		<path fill="#231F20" d="M12.277,50.229c-12.331,0-12.331-10.378-12.331-14.809c0-2.277,1.569-6.098,12.078-6.098
			c4.487,0,17.296,1.121,17.296,6.098c0,8.066-6.537,14.635-14.592,14.687C13.875,50.188,13.051,50.229,12.277,50.229z
			 M12.024,33.15c-5.358,0-8.25,1.169-8.25,2.27c0,6.954,1.392,10.98,8.502,10.98c0.677,0,1.407-0.038,2.169-0.113
			c0.062-0.006,0.125-0.009,0.187-0.009c5.873,0,10.671-4.687,10.853-10.517C24.322,34.793,18.658,33.15,12.024,33.15z"/>
	</g>
	<g>
		<path fill="#231F20" d="M47.616,50.229L47.616,50.229c-0.774,0-1.599-0.041-2.452-0.122c-8.055-0.052-14.592-6.62-14.592-14.687
			c0-4.977,12.81-6.098,17.297-6.098c10.508,0,12.077,3.82,12.077,6.098c0,3.239-0.237,6.947-1.999,9.884
			C55.987,48.572,52.511,50.229,47.616,50.229z M34.406,35.762c0.182,5.83,4.979,10.517,10.854,10.517
			c0.063,0,0.125,0.003,0.187,0.009c0.763,0.075,1.492,0.113,2.169,0.113c4.67,0,6.26-1.75,7.05-3.066
			c1.287-2.147,1.453-5.358,1.453-7.914c0-1.101-2.891-2.27-8.249-2.27C41.234,33.15,35.571,34.793,34.406,35.762z"/>
	</g>
	<g>
		<path fill="#231F20" d="M1.858,36.506c-0.336,0-0.677-0.089-0.987-0.275c-0.905-0.545-1.196-1.722-0.65-2.628l13.08-21.693
			c0.067-0.11,0.145-0.214,0.233-0.309c0.399-0.434,2.508-2.549,4.734-1.679c2.415,0.944,2.415,4.396,2.415,5.529
			c0,1.057-0.857,1.914-1.914,1.914s-1.914-0.857-1.914-1.914c0-0.753-0.055-1.266-0.118-1.603c-0.095,0.074-0.19,0.155-0.276,0.236
			L3.5,35.58C3.14,36.176,2.507,36.506,1.858,36.506z"/>
	</g>
	<g>
		<path fill="#231F20" d="M58.01,36.506c-0.648,0-1.281-0.33-1.642-0.926L43.406,14.083c-0.085-0.081-0.18-0.161-0.275-0.236
			c-0.063,0.338-0.117,0.85-0.117,1.604c0,1.057-0.857,1.914-1.914,1.914c-1.058,0-1.914-0.857-1.914-1.914
			c0-1.134,0-4.585,2.415-5.529c2.226-0.868,4.335,1.246,4.733,1.679c0.088,0.095,0.166,0.199,0.233,0.309l13.08,21.693
			c0.546,0.906,0.254,2.083-0.65,2.628C58.688,36.417,58.346,36.506,58.01,36.506z"/>
	</g>
</g>
</svg>
