<?xml version="1.0" encoding="utf-8"?>
<!-- Generator: Adobe Illustrator 16.0.0, SVG Export Plug-In . SVG Version: 6.00 Build 0)  -->
<!DOCTYPE svg PUBLIC "-//W3C//DTD SVG 1.1//EN" "http://www.w3.org/Graphics/SVG/1.1/DTD/svg11.dtd">
<svg version="1.1" id="Layer_1" xmlns="http://www.w3.org/2000/svg" xmlns:xlink="http://www.w3.org/1999/xlink" x="0px" y="0px"
	 width="60px" height="60px" viewBox="0 0 60 60" enable-background="new 0 0 60 60" xml:space="preserve">
<g>
	<g>
		<polygon fill="#D2D3D4" points="5.371,32.307 13.239,41.402 20.768,47.326 30,52.945 46.578,42.625 55.905,29.876 39.771,30.339 
			36.978,27.078 30.755,37.398 24.032,23.28 20.335,29.877 3.597,28.925 		"/>
	</g>
	<g>
		<path fill="#231F20" d="M30.012,55.207l-0.918-0.461C27.906,54.148,0,39.9,0,21.752C0,12.4,7.608,4.792,16.959,4.792
			c5.082,0,9.85,2.29,13.041,6.128c3.19-3.838,7.958-6.128,13.04-6.128C52.392,4.792,60,12.4,60,21.752
			c0,17.777-27.888,32.373-29.075,32.984L30.012,55.207z M16.959,8.826c-7.127,0-12.926,5.799-12.926,12.926
			c0,14,21.239,26.338,25.956,28.904c4.711-2.619,25.978-15.205,25.978-28.904c0-7.127-5.799-12.926-12.927-12.926
			c-4.67,0-8.992,2.539-11.28,6.627L30,18.597l-1.76-3.144C25.952,11.365,21.63,8.826,16.959,8.826z"/>
	</g>
	<g>
		<path fill="#231F20" d="M30.755,39.414c-0.012,0-0.025,0-0.038,0c-0.764-0.014-1.455-0.459-1.783-1.148l-5.048-10.6l-1.792,3.198
			c-0.356,0.637-1.029,1.031-1.759,1.031H2.688V27.86h16.465l3.119-5.566c0.368-0.658,1.081-1.051,1.826-1.03
			c0.753,0.025,1.43,0.468,1.754,1.149l4.987,10.471l3.843-7.346c0.313-0.596,0.901-0.998,1.569-1.07
			c0.677-0.072,1.33,0.193,1.763,0.708l2.253,2.683h14.354v4.034H39.327c-0.596,0-1.161-0.264-1.546-0.721l-0.92-1.097l-4.318,8.255
			C32.194,38.998,31.505,39.414,30.755,39.414z"/>
	</g>
</g>
</svg>
