<?xml version="1.0" encoding="utf-8"?>
<!-- Generator: Adobe Illustrator 19.2.1, SVG Export Plug-In . SVG Version: 6.00 Build 0)  -->
<svg version="1.1" id="Layer_1" xmlns="http://www.w3.org/2000/svg" xmlns:xlink="http://www.w3.org/1999/xlink" x="0px" y="0px"
	 viewBox="0 0 60 60" style="enable-background:new 0 0 60 60;" xml:space="preserve">
<style type="text/css">
	.st0{fill:#FFFFFF;}
	.st1{fill:#231F20;}
	.st2{fill:#D2D3D4;}
</style>
<g>
	<g>
		<path class="st0" d="M49.6,10.4c-10.8-10.8-28.4-10.8-39.2,0c-10.8,10.8-10.8,28.4,0,39.2c10.8,10.8,28.4,10.8,39.2,0
			C60.4,38.8,60.4,21.2,49.6,10.4z M30,48.7c-10.3,0-18.6-8.3-18.6-18.6S19.7,11.5,30,11.5s18.6,8.3,18.6,18.6S40.3,48.7,30,48.7z"
			/>
		<path class="st1" d="M30,60C30,60,30,60,30,60c-8,0-15.6-3.1-21.2-8.8C-2.9,39.5-2.9,20.5,8.8,8.8C14.4,3.1,22,0,30,0
			s15.6,3.1,21.2,8.8c11.7,11.7,11.7,30.7,0,42.4C45.6,56.9,38,60,30,60z M30,4.6c-6.8,0-13.2,2.6-17.9,7.4c-9.9,9.9-9.9,26,0,35.9
			c4.8,4.8,11.2,7.4,17.9,7.4s13.2-2.6,17.9-7.4c9.9-9.9,9.9-26,0-35.9C43.2,7.3,36.8,4.6,30,4.6z"/>
	</g>
	<g>
		<path class="st1" d="M30,50.7C30,50.7,30,50.7,30,50.7c-5.5,0-10.7-2.2-14.7-6.1c-3.9-3.9-6.1-9.1-6.1-14.7
			c0-5.5,2.2-10.7,6.1-14.7c3.9-3.9,9.1-6.1,14.7-6.1s10.7,2.2,14.7,6.1c8.1,8.1,8.1,21.2,0,29.3l0,0C40.7,48.6,35.5,50.7,30,50.7z
			 M30,13.9c-4.3,0-8.3,1.7-11.4,4.7c-3,3-4.7,7.1-4.7,11.4s1.7,8.3,4.7,11.4c3,3,7.1,4.7,11.4,4.7s8.3-1.7,11.4-4.7l0,0
			c6.3-6.3,6.3-16.5,0-22.8C38.3,15.6,34.3,13.9,30,13.9z"/>
	</g>
	<g>
		<rect x="10.6" y="9.1" transform="matrix(0.7071 -0.7071 0.7071 0.7071 -5.6751 13.699)" class="st2" width="6.3" height="9.3"/>
		<path class="st1" d="M14.8,21.5c-0.6,0-1.2-0.2-1.6-0.7l-6.6-6.6c-0.9-0.9-0.9-2.4,0-3.3L11,6.6c0.9-0.9,2.4-0.9,3.3,0l6.6,6.6
			c0.4,0.4,0.7,1,0.7,1.6c0,0.6-0.2,1.2-0.7,1.6l-4.4,4.4C16,21.3,15.4,21.5,14.8,21.5z M11.5,12.6l3.3,3.3l1.2-1.2l-3.3-3.3
			L11.5,12.6z"/>
	</g>
	<g>
		
			<rect x="43.4" y="41.9" transform="matrix(0.7071 -0.7071 0.7071 0.7071 -19.2661 46.5115)" class="st2" width="6.3" height="9.3"/>
		<path class="st1" d="M47.6,54.3c-0.6,0-1.2-0.2-1.6-0.7l-6.6-6.6c-0.9-0.9-0.9-2.4,0-3.3l4.4-4.4c0.9-0.9,2.4-0.9,3.3,0l6.6,6.6
			c0.9,0.9,0.9,2.4,0,3.3l-4.4,4.4C48.8,54.1,48.2,54.3,47.6,54.3z M44.3,45.4l3.3,3.3l1.2-1.2l-3.3-3.3L44.3,45.4z"/>
	</g>
	<g>
		<rect x="41.9" y="10.6" transform="matrix(0.7071 -0.7071 0.7071 0.7071 3.9362 36.903)" class="st2" width="9.3" height="6.3"/>
		<path class="st1" d="M45.4,21.5c-0.6,0-1.2-0.2-1.6-0.7l-4.4-4.4c-0.9-0.9-0.9-2.4,0-3.3l6.6-6.6c0.9-0.9,2.4-0.9,3.3,0l4.4,4.4
			c0.9,0.9,0.9,2.4,0,3.3l-6.6,6.6C46.6,21.3,46.1,21.5,45.4,21.5z M44.3,14.8l1.2,1.2l3.3-3.3l-1.2-1.2L44.3,14.8z"/>
	</g>
	<g>
		
			<rect x="9.1" y="43.4" transform="matrix(0.7071 -0.7071 0.7071 0.7071 -28.8768 23.3103)" class="st2" width="9.3" height="6.3"/>
		<path class="st1" d="M12.6,54.3c-0.6,0-1.2-0.2-1.6-0.7l-4.4-4.4c-0.4-0.4-0.7-1-0.7-1.6c0-0.6,0.2-1.2,0.7-1.6l6.6-6.6
			c0.9-0.9,2.4-0.9,3.3,0l4.4,4.4c0.4,0.4,0.7,1,0.7,1.6s-0.2,1.2-0.7,1.6l-6.6,6.6C13.8,54.1,13.2,54.3,12.6,54.3z M11.5,47.6
			l1.2,1.2l3.3-3.3l-1.2-1.2L11.5,47.6z"/>
	</g>
</g>
</svg>
