<?xml version="1.0" encoding="utf-8"?>
<!-- Generator: Adobe Illustrator 19.2.1, SVG Export Plug-In . SVG Version: 6.00 Build 0)  -->
<svg version="1.1" id="Layer_1" xmlns="http://www.w3.org/2000/svg" xmlns:xlink="http://www.w3.org/1999/xlink" x="0px" y="0px"
	 viewBox="0 0 60 60" style="enable-background:new 0 0 60 60;" xml:space="preserve">
<style type="text/css">
	.st0{fill:#231F20;}
	.st1{fill:#FFFFFF;}
	.st2{fill:#D1D2D3;}
</style>
<g>
	<g>
		<path class="st0" d="M53.1,57.7H25.6c-0.9,0-1.6-0.7-1.6-1.6V20.8c0-0.9,0.7-1.6,1.6-1.6h27.4c0.9,0,1.6,0.7,1.6,1.6v35.3
			C54.7,57,54,57.7,53.1,57.7z M27.3,54.4h24.1v-32H27.3V54.4z"/>
	</g>
	<g>
		<rect x="6.9" y="3.9" class="st1" width="27.4" height="52.1"/>
		<path class="st0" d="M34.4,57.7H6.9c-0.9,0-1.6-0.7-1.6-1.6V3.9C5.3,3,6,2.3,6.9,2.3h27.4C35.3,2.3,36,3,36,3.9v52.1
			C36,57,35.3,57.7,34.4,57.7z M8.6,54.4h24.1V5.6H8.6V54.4z"/>
	</g>
	<g>
		<line class="st1" x1="16" y1="12.1" x2="16" y2="17.7"/>
		<path class="st0" d="M16,19.3c-0.9,0-1.6-0.7-1.6-1.6v-5.6c0-0.9,0.7-1.6,1.6-1.6s1.6,0.7,1.6,1.6v5.6
			C17.6,18.6,16.9,19.3,16,19.3z"/>
	</g>
	<g>
		<line class="st1" x1="25.3" y1="12.1" x2="25.3" y2="17.7"/>
		<path class="st0" d="M25.3,19.3c-0.9,0-1.6-0.7-1.6-1.6v-5.6c0-0.9,0.7-1.6,1.6-1.6c0.9,0,1.6,0.7,1.6,1.6v5.6
			C27,18.6,26.2,19.3,25.3,19.3z"/>
	</g>
	<g>
		<line class="st1" x1="45.9" y1="34.4" x2="45.9" y2="40"/>
		<path class="st0" d="M45.9,41.6c-0.9,0-1.6-0.7-1.6-1.6v-5.6c0-0.9,0.7-1.6,1.6-1.6s1.6,0.7,1.6,1.6V40
			C47.5,40.9,46.8,41.6,45.9,41.6z"/>
	</g>
	<g>
		<line class="st1" x1="25.3" y1="26.1" x2="25.3" y2="31.7"/>
		<path class="st0" d="M25.3,33.3c-0.9,0-1.6-0.7-1.6-1.6v-5.6c0-0.9,0.7-1.6,1.6-1.6c0.9,0,1.6,0.7,1.6,1.6v5.6
			C27,32.6,26.2,33.3,25.3,33.3z"/>
	</g>
	<g>
		<path class="st2" d="M25.8,56.1v-9.9c0-2.7-2.2-4.9-4.9-4.9c-2.7,0-4.9,2.2-4.9,4.9v9.9H25.8z"/>
		<path class="st0" d="M25.8,57.7H16c-0.9,0-1.6-0.7-1.6-1.6v-9.9c0-3.6,2.9-6.5,6.5-6.5c3.6,0,6.5,2.9,6.5,6.5v9.9
			C27.4,57,26.7,57.7,25.8,57.7z M17.6,54.4h6.5v-8.3c0-1.8-1.5-3.3-3.3-3.3c-1.8,0-3.3,1.5-3.3,3.3V54.4z"/>
	</g>
	<g>
		<line class="st1" x1="1.6" y1="56.1" x2="58.4" y2="56.1"/>
		<path class="st0" d="M58.4,57.7H1.6C0.7,57.7,0,57,0,56.1s0.7-1.6,1.6-1.6h56.7c0.9,0,1.6,0.7,1.6,1.6S59.3,57.7,58.4,57.7z"/>
	</g>
</g>
</svg>
