<?xml version="1.0" encoding="utf-8"?>
<!-- Generator: Adobe Illustrator 19.2.1, SVG Export Plug-In . SVG Version: 6.00 Build 0)  -->
<svg version="1.1" id="Layer_1" xmlns="http://www.w3.org/2000/svg" xmlns:xlink="http://www.w3.org/1999/xlink" x="0px" y="0px"
	 viewBox="0 0 60 60" style="enable-background:new 0 0 60 60;" xml:space="preserve">
<style type="text/css">
	.st0{fill:#D2D3D4;}
	.st1{fill:#231F20;}
	.st2{fill:#FFFFFF;}
</style>
<g>
	<g>
		<polygon class="st0" points="16.3,28 43,28 29.6,58 		"/>
		<path class="st1" d="M29.6,60L29.6,60c-0.8,0-1.5-0.5-1.8-1.2l-13.3-30c-0.3-0.6-0.2-1.3,0.1-1.9c0.4-0.6,1-0.9,1.7-0.9H43
			c0.7,0,1.3,0.3,1.7,0.9c0.4,0.6,0.4,1.3,0.1,1.9l-13.4,30C31.1,59.5,30.4,60,29.6,60z M19.3,30l10.3,23.2L39.9,30H19.3z"/>
	</g>
	<g>
		<circle class="st0" cx="33.6" cy="7.3" r="5.3"/>
		<path class="st1" d="M33.6,14.6c-4,0-7.3-3.3-7.3-7.3c0-4,3.3-7.3,7.3-7.3c4,0,7.3,3.3,7.3,7.3C40.9,11.3,37.6,14.6,33.6,14.6z
			 M33.6,3.9c-1.9,0-3.4,1.5-3.4,3.4c0,1.9,1.5,3.4,3.4,3.4c1.9,0,3.4-1.5,3.4-3.4C37,5.5,35.5,3.9,33.6,3.9z"/>
	</g>
	<g>
		<path class="st2" d="M46.5,22.7h-3.2c1.3-1.6,2.1-2.6,2.1-4.8c0-4.9-4-8.9-8.9-8.9c-1.6,0-3.1,0.4-4.4,1.2
			c-1.9-2.5-4.9-4.1-8.2-4.1c-5.7,0-10.4,4.6-10.4,10.4c0,2.8,1.1,4.4,2.9,6.3h-2.9c-1,0-1.9,0.8-1.9,1.9v1.5c0,1,0.8,1.9,1.9,1.9
			h33c1,0,1.9-0.8,1.9-1.9v-1.5C48.4,23.5,47.5,22.7,46.5,22.7z"/>
		<path class="st1" d="M46.5,30h-33c-2.1,0-3.9-1.7-3.9-3.9v-1.5c0-1.8,1.2-3.3,2.9-3.7c-0.7-1.3-1-2.7-1-4.4
			c0-6.8,5.5-12.3,12.3-12.3c3.3,0,6.4,1.3,8.7,3.6C33.9,7.2,35.2,7,36.6,7c6,0,10.9,4.9,10.9,10.9c0,1.1-0.2,2.1-0.5,2.9
			c1.9,0.2,3.4,1.9,3.4,3.8v1.5C50.4,28.2,48.6,30,46.5,30z M13.6,26h32.8v-1.3h-3.1c-0.8,0-1.5-0.4-1.8-1.1
			c-0.3-0.7-0.2-1.5,0.3-2.1c1.3-1.5,1.7-2.1,1.7-3.5c0-3.8-3.1-6.9-6.9-6.9c-1.2,0-2.4,0.3-3.5,0.9c-0.9,0.5-2,0.3-2.6-0.5
			c-1.6-2.1-4-3.3-6.7-3.3c-4.6,0-8.4,3.8-8.4,8.4c0,2.1,0.8,3.2,2.4,4.9c0.6,0.6,0.7,1.4,0.4,2.1c-0.3,0.7-1,1.2-1.8,1.2h-2.9V26z
			 M46.5,24.7L46.5,24.7L46.5,24.7z"/>
	</g>
</g>
</svg>
