<?xml version="1.0" encoding="utf-8"?>
<!-- Generator: Adobe Illustrator 16.0.0, SVG Export Plug-In . SVG Version: 6.00 Build 0)  -->
<!DOCTYPE svg PUBLIC "-//W3C//DTD SVG 1.1//EN" "http://www.w3.org/Graphics/SVG/1.1/DTD/svg11.dtd">
<svg version="1.1" id="Layer_1" xmlns="http://www.w3.org/2000/svg" xmlns:xlink="http://www.w3.org/1999/xlink" x="0px" y="0px"
	 width="60px" height="60px" viewBox="0 0 60 60" enable-background="new 0 0 60 60" xml:space="preserve">
<g>
	<g>
		<path fill="#D2D3D4" d="M345.988,1589.729c-2.106,2.105-5.522,2.106-7.629,0l-7.63-7.63c-2.106-2.106-2.106-5.523,0-7.629
			l2.861-2.862c2.106-2.105,5.522-2.105,7.629,0l7.63,7.63c2.106,2.107,2.106,5.523,0,7.629L345.988,1589.729z"/>
		<path fill="#231F20" d="M342.174,1593.308c-1.976,0-3.832-0.769-5.229-2.165l-7.63-7.63c-1.396-1.396-2.166-3.253-2.166-5.229
			s0.77-3.833,2.166-5.229l2.861-2.862c1.396-1.396,3.254-2.165,5.229-2.165s3.832,0.769,5.229,2.165l7.63,7.63
			c2.884,2.885,2.883,7.575,0,10.457l-2.861,2.862C346.006,1592.539,344.148,1593.308,342.174,1593.308z M337.405,1572.028
			c-0.907,0-1.76,0.353-2.4,0.993l-2.861,2.862c-0.641,0.641-0.994,1.493-0.994,2.4c0,0.906,0.354,1.759,0.994,2.4l7.63,7.63
			c1.281,1.281,3.518,1.283,4.801,0l2.861-2.862c1.323-1.323,1.323-3.477,0-4.801l-7.63-7.63
			C339.165,1572.381,338.313,1572.028,337.405,1572.028z"/>
	</g>
	<g>
		<path fill="#D2D3D4" d="M297.59,1589.729c2.106,2.105,5.522,2.106,7.629,0l7.63-7.63c2.106-2.106,2.106-5.523,0-7.629
			l-2.861-2.862c-2.106-2.105-5.522-2.105-7.629,0l-7.63,7.63c-2.106,2.107-2.106,5.523,0,7.629L297.59,1589.729z"/>
		<path fill="#231F20" d="M301.405,1593.308C301.404,1593.308,301.404,1593.308,301.405,1593.308c-1.976,0-3.833-0.769-5.229-2.165
			l-2.861-2.862c-2.883-2.882-2.883-7.572,0-10.457l7.63-7.63c1.396-1.396,3.253-2.165,5.229-2.165s3.832,0.769,5.229,2.165
			l2.862,2.862c1.396,1.396,2.164,3.253,2.164,5.229s-0.769,3.832-2.165,5.229l-7.63,7.63
			C305.236,1592.539,303.38,1593.308,301.405,1593.308z M306.173,1572.028c-0.907,0-1.759,0.353-2.4,0.993l-7.63,7.63
			c-1.323,1.324-1.323,3.478,0,4.801l2.861,2.862c0.641,0.641,1.494,0.993,2.4,0.993h0.001c0.906,0,1.759-0.353,2.399-0.993
			l7.63-7.63c0.642-0.642,0.993-1.494,0.993-2.4c0-0.907-0.352-1.76-0.993-2.4l-2.862-2.862
			C307.932,1572.381,307.08,1572.028,306.173,1572.028z"/>
	</g>
	<g>
		<circle fill="#FFFFFF" cx="322.108" cy="1600.892" r="22.892"/>
		<path fill="#231F20" d="M322.108,1625.783c-13.726,0-24.892-11.166-24.892-24.892S308.383,1576,322.108,1576
			S347,1587.166,347,1600.892S335.834,1625.783,322.108,1625.783z M322.108,1580c-11.52,0-20.892,9.372-20.892,20.892
			s9.372,20.892,20.892,20.892S343,1612.411,343,1600.892S333.628,1580,322.108,1580z"/>
	</g>
	<g>
		<path fill="#231F20" d="M299.215,1629.5c-0.416,0-0.834-0.129-1.193-0.396c-0.886-0.66-1.068-1.914-0.408-2.799l7.327-9.826
			c0.661-0.885,1.915-1.067,2.799-0.408c0.886,0.66,1.068,1.914,0.408,2.799l-7.327,9.826
			C300.428,1629.222,299.825,1629.5,299.215,1629.5z"/>
	</g>
	<g>
		<path fill="#231F20" d="M345.546,1629.5c-0.61,0-1.213-0.278-1.605-0.805l-7.327-9.826c-0.66-0.885-0.478-2.139,0.408-2.799
			c0.886-0.661,2.14-0.477,2.799,0.408l7.327,9.826c0.66,0.885,0.478,2.139-0.408,2.799
			C346.381,1629.371,345.961,1629.5,345.546,1629.5z"/>
	</g>
	<g>
		<polyline fill="#FFFFFF" points="322.108,1585.25 322.108,1600.892 331.858,1610.642 		"/>
		<path fill="#231F20" d="M331.858,1612.642c-0.512,0-1.023-0.195-1.414-0.586l-9.75-9.75c-0.375-0.375-0.586-0.884-0.586-1.414
			v-15.642c0-1.104,0.896-2,2-2s2,0.896,2,2v14.813l9.164,9.164c0.781,0.781,0.781,2.047,0,2.828
			C332.882,1612.446,332.37,1612.642,331.858,1612.642z"/>
	</g>
</g>
<g>
	<g>
		<path fill="#FFFFFF" d="M6.73,56.963c-0.808,0.807-2.322,0.602-3.382-0.457l-0.319-0.32c-1.061-1.061-1.265-2.574-0.458-3.383
			l16.087-16.084c0.807-0.809,2.321-0.605,3.382,0.455l0.319,0.32c1.06,1.061,1.265,2.574,0.457,3.383L6.73,56.963z"/>
		<path fill="#231F20" d="M5.453,59.523c-1.277,0-2.577-0.566-3.566-1.555l-0.321-0.322c-1.895-1.895-2.096-4.664-0.457-6.305
			l16.087-16.086c0.708-0.709,1.682-1.1,2.74-1.1c1.278,0,2.578,0.566,3.567,1.557l0.321,0.32c0.83,0.83,1.368,1.885,1.515,2.971
			c0.172,1.273-0.213,2.49-1.059,3.334L8.192,58.424C7.484,59.133,6.511,59.523,5.453,59.523z M4.152,54.148
			c0.023,0.127,0.116,0.352,0.339,0.574l0.321,0.322c0.225,0.225,0.447,0.313,0.575,0.336l15.85-15.848
			c-0.024-0.129-0.116-0.354-0.339-0.576l-0.321-0.322c-0.225-0.225-0.447-0.313-0.575-0.336L4.152,54.148z"/>
	</g>
	<g>
		<path fill="#D2D3D4" d="M25.021,57.42L3.063,35.461L31.781,6.742c5.598-5.597,14.674-5.597,20.272,0l1.688,1.688
			c5.598,5.598,5.598,14.674-0.001,20.272L25.021,57.42z"/>
		<path fill="#231F20" d="M25.021,59.488c-0.529,0-1.058-0.201-1.462-0.605L1.6,36.924c-0.808-0.809-0.808-2.117,0-2.924L30.32,5.28
			c3.096-3.098,7.216-4.804,11.597-4.804c4.382,0,8.501,1.706,11.599,4.804l1.688,1.688c6.396,6.394,6.396,16.8,0,23.197
			L26.484,58.883C26.08,59.287,25.551,59.488,25.021,59.488z M5.988,35.461l19.034,19.035L52.278,27.24
			c4.782-4.784,4.782-12.565,0.001-17.348l-1.688-1.688c-2.316-2.316-5.397-3.592-8.675-3.592c-3.275,0-6.356,1.275-8.674,3.592
			L5.988,35.461z"/>
	</g>
	<g>
		<line fill="#D2D3D4" x1="40.724" y1="14.423" x2="19.52" y2="35.627"/>
		<path fill="#231F20" d="M19.52,37.695c-0.529,0-1.059-0.201-1.462-0.605c-0.808-0.809-0.808-2.117,0-2.924L39.262,12.96
			c0.807-0.808,2.117-0.808,2.924,0c0.808,0.808,0.808,2.117,0,2.924L20.981,37.09C20.578,37.494,20.048,37.695,19.52,37.695z"/>
	</g>
	<g>
		<line fill="#D2D3D4" x1="45.842" y1="19.542" x2="24.637" y2="40.746"/>
		<path fill="#231F20" d="M24.637,42.814c-0.529,0-1.058-0.201-1.462-0.605c-0.808-0.809-0.808-2.117,0-2.926L44.379,18.08
			c0.808-0.808,2.117-0.808,2.925,0c0.808,0.808,0.808,2.116,0,2.924L26.1,42.209C25.696,42.613,25.167,42.814,24.637,42.814z"/>
	</g>
</g>
</svg>
