<?xml version="1.0" encoding="utf-8"?>
<!-- Generator: Adobe Illustrator 19.2.1, SVG Export Plug-In . SVG Version: 6.00 Build 0)  -->
<svg version="1.1" id="Layer_1" xmlns="http://www.w3.org/2000/svg" xmlns:xlink="http://www.w3.org/1999/xlink" x="0px" y="0px"
	 viewBox="0 0 60 60" style="enable-background:new 0 0 60 60;" xml:space="preserve">
<style type="text/css">
	.st0{fill:#FFFFFF;}
	.st1{fill:#231F20;}
	.st2{fill:#D2D3D4;}
</style>
<g>
	<g>
		<path class="st0" d="M46.4,30.8c0-8.9-7.2-16.1-16.1-16.1c-8.9,0-16.1,7.2-16.1,16.1c0,7,4.5,13,10.8,15.2v12h10.5V46
			C41.8,43.8,46.4,37.9,46.4,30.8z"/>
		<path class="st1" d="M35.5,60H25c-1.1,0-2-0.9-2-2V47.3c-6.5-2.8-10.8-9.3-10.8-16.5c0-9.9,8.1-18,18-18s18,8.1,18,18
			c0,7.2-4.3,13.7-10.8,16.5V58C37.5,59.1,36.6,60,35.5,60z M27,56.1h6.6V46c0-0.8,0.5-1.6,1.3-1.9c5.7-2,9.5-7.3,9.5-13.3
			c0-7.8-6.3-14.1-14.1-14.1c-7.8,0-14.1,6.3-14.1,14.1c0,6,3.8,11.4,9.5,13.3c0.8,0.3,1.3,1,1.3,1.9V56.1z"/>
	</g>
	<g>
		<rect x="23.4" y="50.5" class="st2" width="14" height="5.5"/>
		<path class="st1" d="M37.4,58h-14c-1.1,0-2-0.9-2-2v-5.5c0-1.1,0.9-2,2-2h14c1.1,0,2,0.9,2,2V56C39.3,57.1,38.4,58,37.4,58z
			 M25.3,54h10v-1.5h-10V54z"/>
	</g>
	<g>
		<line class="st2" x1="30.3" y1="2" x2="30.3" y2="5.7"/>
		<path class="st1" d="M30.3,7.7c-1.1,0-2-0.9-2-2V2c0-1.1,0.9-2,2-2s2,0.9,2,2v3.7C32.3,6.8,31.4,7.7,30.3,7.7z"/>
	</g>
	<g>
		<line class="st2" x1="49.6" y1="9.4" x2="47.2" y2="12.3"/>
		<path class="st1" d="M47.2,14.2c-0.4,0-0.9-0.1-1.2-0.4c-0.8-0.7-1-1.9-0.3-2.8l2.4-2.9c0.7-0.8,1.9-1,2.8-0.3
			c0.8,0.7,1,1.9,0.3,2.8l-2.4,2.9C48.3,14,47.8,14.2,47.2,14.2z"/>
	</g>
	<g>
		<line class="st2" x1="10.4" y1="9.4" x2="12.8" y2="12.3"/>
		<path class="st1" d="M12.8,14.2c-0.6,0-1.1-0.2-1.5-0.7l-2.4-2.9C8.2,9.8,8.3,8.5,9.2,7.9c0.8-0.7,2.1-0.6,2.8,0.3l2.4,2.9
			c0.7,0.8,0.6,2.1-0.3,2.8C13.7,14.1,13.2,14.2,12.8,14.2z"/>
	</g>
</g>
</svg>
