<?xml version="1.0" encoding="utf-8"?>
<!-- Generator: Adobe Illustrator 19.2.1, SVG Export Plug-In . SVG Version: 6.00 Build 0)  -->
<svg version="1.1" id="Layer_1" xmlns="http://www.w3.org/2000/svg" xmlns:xlink="http://www.w3.org/1999/xlink" x="0px" y="0px"
	 viewBox="0 0 60 60" style="enable-background:new 0 0 60 60;" xml:space="preserve">
<style type="text/css">
	.st0{fill:#D1D2D3;}
	.st1{fill:#231F20;}
	.st2{fill:#FFFFFF;}
</style>
<g>
	<g>
		<path class="st0" d="M48.8,25.7c0,1.2-0.9,2.1-2,2.1h-5.4c-1.1,0-2-1-2-2.1l0,0c0-1.2,0.9-2.1,2-2.1h5.4
			C48,23.6,48.8,24.6,48.8,25.7L48.8,25.7z"/>
	</g>
	<g>
		<path class="st0" d="M22.9,21.5c0,1.2-0.9,2.1-2,2.1h-5.5c-1.1,0-2-1-2-2.1l0,0c0-1.2,0.9-2.1,2-2.1h5.5
			C22,19.4,22.9,20.3,22.9,21.5L22.9,21.5z"/>
	</g>
	<g>
		<path class="st1" d="M53.3,46.3H1.4c-0.8,0-1.4-0.6-1.4-1.4c0-17.2,12.3-31.2,27.3-31.2c15.1,0,27.3,14,27.3,31.2
			C54.7,45.7,54.1,46.3,53.3,46.3z M2.8,43.5h49c-0.6-15-11.4-27-24.5-27S3.5,28.5,2.8,43.5z"/>
	</g>
	<g>
		<path class="st0" d="M23.4,44.4v-8.6c0-2.3-2.3-4.2-5.2-4.2c-2.9,0-5.2,1.9-5.2,4.2v8.6H23.4z"/>
		<path class="st1" d="M23.4,45.8H13c-0.8,0-1.4-0.6-1.4-1.4v-8.6c0-3.1,3-5.7,6.6-5.7c3.6,0,6.6,2.5,6.6,5.7v8.6
			C24.8,45.2,24.2,45.8,23.4,45.8z M14.4,43H22v-7.2c0-1.5-1.7-2.8-3.8-2.8c-2.1,0-3.8,1.3-3.8,2.8V43z"/>
	</g>
	<g>
		<path class="st0" d="M39.4,36.4c0,1.2-0.9,2.1-2,2.1H32c-1.1,0-2-1-2-2.1l0,0c0-1.2,0.9-2.1,2-2.1h5.5
			C38.5,34.2,39.4,35.2,39.4,36.4L39.4,36.4z"/>
	</g>
	<g>
		<path class="st2" d="M48.9,33.8c-5.3,0-9.7,5-9.7,11.1h19.4C58.6,38.8,54.3,33.8,48.9,33.8z"/>
		<path class="st1" d="M58.6,46.3H39.2c-0.8,0-1.4-0.6-1.4-1.4c0-6.9,5-12.5,11.1-12.5S60,38,60,44.9C60,45.7,59.4,46.3,58.6,46.3z
			 M40.7,43.5h16.4c-0.6-4.7-4-8.3-8.2-8.3S41.3,38.8,40.7,43.5z"/>
	</g>
</g>
</svg>
