<?xml version="1.0" encoding="utf-8"?>
<!-- Generator: Adobe Illustrator 19.2.1, SVG Export Plug-In . SVG Version: 6.00 Build 0)  -->
<svg version="1.1" id="Layer_1" xmlns="http://www.w3.org/2000/svg" xmlns:xlink="http://www.w3.org/1999/xlink" x="0px" y="0px"
	 viewBox="0 0 60 60" style="enable-background:new 0 0 60 60;" xml:space="preserve">
<style type="text/css">
	.st0{fill:#FFFFFF;}
	.st1{fill:#231F20;}
	.st2{fill:#D2D3D4;}
</style>
<g>
	<g>
		<path class="st0" d="M55.2,30.7l-10-17H13.3l-10,17h19.3c0,0,0,0.1,0,0.1c0,3.7,3,6.6,6.6,6.6c3.7,0,6.6-3,6.6-6.6
			c0,0,0-0.1,0-0.1H55.2z"/>
		<path class="st1" d="M29.2,39.8c-4.2,0-7.7-2.9-8.6-6.8H3.3c-0.8,0-1.6-0.4-2-1.1c-0.4-0.7-0.4-1.6,0-2.3l10-17
			c0.4-0.7,1.1-1.1,1.9-1.1h31.9c0.8,0,1.5,0.4,1.9,1.1l10,17c0.4,0.7,0.4,1.6,0,2.3c-0.4,0.7-1.1,1.1-2,1.1H37.8
			C36.9,36.9,33.4,39.8,29.2,39.8z M7.2,28.5h15.4c0.6,0,1.2,0.2,1.6,0.7c0.4,0.4,0.7,1,0.6,1.6c0,0,0,0.1,0,0.1
			c0,2.3,2,4.3,4.4,4.3c2.4,0,4.4-2,4.4-4.4l0-0.1c0-0.6,0.2-1.2,0.6-1.6c0.4-0.4,1-0.7,1.6-0.7h15.4L43.9,16H14.6L7.2,28.5z"/>
	</g>
	<g>
		<path class="st0" d="M35.8,30.7c0,0.1,0,0.1,0,0.2c0,3.7-3,6.6-6.6,6.6c-3.7,0-6.6-3-6.6-6.6c0-0.1,0-0.1,0-0.2H3.3v27h51.9v-27
			H35.8z"/>
		<path class="st1" d="M55.2,60H3.3C2,60,1,59,1,57.7v-27c0-1.2,1-2.3,2.3-2.3h19.3c0.6,0,1.2,0.2,1.6,0.7c0.4,0.4,0.7,1,0.6,1.6
			c0,0,0,0.1,0,0.2c0,2.4,2,4.3,4.4,4.3c2.4,0,4.4-2,4.4-4.4l0-0.1c0-0.6,0.2-1.2,0.6-1.6c0.4-0.4,1-0.7,1.6-0.7h19.3
			c1.2,0,2.3,1,2.3,2.3v27C57.4,59,56.4,60,55.2,60z M5.5,55.5h47.4V33H37.9c-0.9,3.9-4.5,6.8-8.6,6.8s-7.7-2.9-8.6-6.8H5.5V55.5z"
			/>
	</g>
	<g>
		<circle class="st2" cx="47.1" cy="11.8" r="9.6"/>
		<path class="st1" d="M47.1,23.7c-6.5,0-11.8-5.3-11.8-11.8C35.3,5.3,40.6,0,47.1,0C53.7,0,59,5.3,59,11.8
			C59,18.4,53.7,23.7,47.1,23.7z M47.1,4.5c-4,0-7.3,3.3-7.3,7.3c0,4,3.3,7.3,7.3,7.3c4,0,7.3-3.3,7.3-7.3
			C54.5,7.8,51.2,4.5,47.1,4.5z"/>
	</g>
</g>
</svg>
