<?xml version="1.0" encoding="utf-8"?>
<!-- Generator: Adobe Illustrator 19.2.1, SVG Export Plug-In . SVG Version: 6.00 Build 0)  -->
<svg version="1.1" id="Layer_1" xmlns="http://www.w3.org/2000/svg" xmlns:xlink="http://www.w3.org/1999/xlink" x="0px" y="0px"
	 viewBox="0 0 60 60" style="enable-background:new 0 0 60 60;" xml:space="preserve">
<style type="text/css">
	.st0{fill:#D2D3D4;}
	.st1{fill:#231F20;}
	.st2{fill:#FFFFFF;}
</style>
<g>
	<g>
		<polygon class="st0" points="19.6,20.3 41.3,20.3 41.3,28.6 47.9,40.3 56.1,54.9 48.9,57.2 26,57.2 3.6,57.2 8.2,47.9 17.9,30 		
			"/>
	</g>
	<g>
		<path class="st1" d="M57.3,59.9H2.7c-0.9,0-1.8-0.5-2.3-1.3c-0.5-0.8-0.5-1.8,0-2.6L16,27.9V2.8c0-1.5,1.2-2.7,2.7-2.7h22.7
			c1.5,0,2.7,1.2,2.7,2.7v25.1l15.7,28.1c0.5,0.8,0.5,1.8,0,2.6C59.2,59.4,58.3,59.9,57.3,59.9z M7.2,54.6h45.6L39,29.9
			c-0.2-0.4-0.3-0.8-0.3-1.3V5.4H21.3v23.1c0,0.5-0.1,0.9-0.3,1.3L7.2,54.6z"/>
	</g>
	<g>
		<line class="st2" x1="12.9" y1="2.8" x2="47.1" y2="2.8"/>
		<path class="st1" d="M47.1,5.4H12.9c-1.5,0-2.7-1.2-2.7-2.7s1.2-2.7,2.7-2.7h34.2c1.5,0,2.7,1.2,2.7,2.7S48.6,5.4,47.1,5.4z"/>
	</g>
	<g>
		<circle class="st2" cx="21.6" cy="45.7" r="3.1"/>
	</g>
	<g>
		<circle class="st2" cx="34.9" cy="39.7" r="4.9"/>
	</g>
</g>
</svg>
