<?xml version="1.0" encoding="utf-8"?>
<!-- Generator: Adobe Illustrator 19.2.1, SVG Export Plug-In . SVG Version: 6.00 Build 0)  -->
<svg version="1.1" id="Layer_1" xmlns="http://www.w3.org/2000/svg" xmlns:xlink="http://www.w3.org/1999/xlink" x="0px" y="0px"
	 viewBox="0 0 60 60" style="enable-background:new 0 0 60 60;" xml:space="preserve">
<style type="text/css">
	.st0{fill:#D2D3D4;}
	.st1{fill:#231F20;}
	.st2{fill:#FFFFFF;}
</style>
<g>
	<g>
		<g>
			<circle class="st0" cx="49" cy="30.5" r="9"/>
			<path class="st1" d="M49,41.5c-6.1,0-11-4.9-11-11s4.9-11,11-11s11,4.9,11,11S55,41.5,49,41.5z M49,23.6c-3.8,0-6.9,3.1-6.9,6.9
				s3.1,6.9,6.9,6.9c3.8,0,6.9-3.1,6.9-6.9S52.8,23.6,49,23.6z"/>
		</g>
		<g>
			<rect x="2.1" y="22.9" class="st2" width="33.1" height="14.3"/>
			<path class="st1" d="M35.2,39.3H2.1c-1.1,0-2.1-0.9-2.1-2.1V22.9c0-1.1,0.9-2.1,2.1-2.1h33.1c1.1,0,2.1,0.9,2.1,2.1v14.3
				C37.2,38.4,36.3,39.3,35.2,39.3z M4.1,35.1h29V25h-29V35.1z"/>
		</g>
		<g>
			<polygon class="st2" points="52.2,41.4 34.7,38.5 34.7,21.5 52.2,18.6 			"/>
			<path class="st1" d="M52.2,43.5c-0.1,0-0.2,0-0.3,0l-17.6-2.9c-1-0.2-1.7-1-1.7-2V21.5c0-1,0.7-1.9,1.7-2l17.6-2.9
				c0.6-0.1,1.2,0.1,1.7,0.5c0.5,0.4,0.7,1,0.7,1.6v22.8c0,0.6-0.3,1.2-0.7,1.6C53.2,43.3,52.7,43.5,52.2,43.5z M36.7,36.8L50.2,39
				V21l-13.4,2.2V36.8z"/>
		</g>
		<g>
			<rect x="28.5" y="20.5" class="st0" width="7" height="18.8"/>
			<path class="st1" d="M35.5,41.3h-7c-1.1,0-2.1-0.9-2.1-2.1V20.5c0-1.1,0.9-2.1,2.1-2.1h7c1.1,0,2.1,0.9,2.1,2.1v18.8
				C37.5,40.4,36.6,41.3,35.5,41.3z M30.6,37.2h2.8V22.6h-2.8V37.2z"/>
		</g>
	</g>
	<g>
		<line class="st0" x1="18.6" y1="30.1" x2="22.4" y2="30.1"/>
		<path class="st1" d="M22.4,32.1h-3.8c-1.1,0-2.1-0.9-2.1-2.1c0-1.1,0.9-2.1,2.1-2.1h3.8c1.1,0,2.1,0.9,2.1,2.1
			C24.5,31.2,23.6,32.1,22.4,32.1z"/>
	</g>
</g>
</svg>
