<?xml version="1.0" encoding="utf-8"?>
<!-- Generator: Adobe Illustrator 19.2.1, SVG Export Plug-In . SVG Version: 6.00 Build 0)  -->
<svg version="1.1" id="Layer_1" xmlns="http://www.w3.org/2000/svg" xmlns:xlink="http://www.w3.org/1999/xlink" x="0px" y="0px"
	 viewBox="0 0 60 60" style="enable-background:new 0 0 60 60;" xml:space="preserve">
<style type="text/css">
	.st0{fill:#231F20;}
	.st1{fill:#D2D3D4;}
</style>
<g>
	<g>
		<path class="st0" d="M57.6,55H2.4c-0.8,0-1.6-0.4-2-1.2c-0.4-0.7-0.5-1.6-0.1-2.3l18.2-34c0.4-0.7,1.1-1.2,1.9-1.3
			c0.8-0.1,1.6,0.3,2.1,1l13.8,18.7l9.4-5.4c0.6-0.3,1.2-0.4,1.8-0.2c0.6,0.2,1.1,0.6,1.4,1.2l10.7,20c0.4,0.7,0.4,1.6-0.1,2.3
			C59.2,54.6,58.5,55,57.6,55z M6.4,50.2h47.3l-7.7-14.4l-9.1,5.2c-1,0.6-2.4,0.3-3.1-0.7L20.9,23.1L6.4,50.2z"/>
	</g>
	<g>
		<circle class="st1" cx="42.3" cy="16.2" r="8.8"/>
		<path class="st0" d="M42.3,27.5c-6.2,0-11.2-5-11.2-11.2S36.1,5,42.3,5s11.2,5,11.2,11.2S48.5,27.5,42.3,27.5z M42.3,9.8
			c-3.6,0-6.5,2.9-6.5,6.5c0,3.6,2.9,6.5,6.5,6.5c3.6,0,6.5-2.9,6.5-6.5C48.8,12.7,45.9,9.8,42.3,9.8z"/>
	</g>
</g>
</svg>
