<?xml version="1.0" encoding="utf-8"?>
<!-- Generator: Adobe Illustrator 16.0.0, SVG Export Plug-In . SVG Version: 6.00 Build 0)  -->
<!DOCTYPE svg PUBLIC "-//W3C//DTD SVG 1.1//EN" "http://www.w3.org/Graphics/SVG/1.1/DTD/svg11.dtd">
<svg version="1.1" id="Layer_1" xmlns="http://www.w3.org/2000/svg" xmlns:xlink="http://www.w3.org/1999/xlink" x="0px" y="0px"
	 width="60px" height="60px" viewBox="0 0 60 60" enable-background="new 0 0 60 60" xml:space="preserve">
<g>
	<g>
		<rect x="1.663" y="41.867" fill="#FFFFFF" width="56.674" height="5.941"/>
		<path fill="#231F20" d="M58.337,49.472H1.663C0.745,49.472,0,48.728,0,47.809v-5.941c0-0.918,0.745-1.663,1.663-1.663h56.674
			c0.919,0,1.663,0.745,1.663,1.663v5.941C60,48.728,59.256,49.472,58.337,49.472z M3.326,46.146h53.349V43.53H3.326V46.146z"/>
	</g>
	<g>
		<rect x="5.091" y="12.191" fill="#FFFFFF" width="49.818" height="29.622"/>
		<path fill="#231F20" d="M54.909,43.477H5.091c-0.918,0-1.663-0.745-1.663-1.663V12.191c0-0.919,0.745-1.663,1.663-1.663h49.818
			c0.918,0,1.663,0.744,1.663,1.663v29.622C56.572,42.731,55.827,43.477,54.909,43.477z M6.753,40.15h46.493V13.854H6.753V40.15z"/>
	</g>
	<g>
		<rect x="10.325" y="17.462" fill="#D2D3D4" width="39.641" height="22.448"/>
	</g>
</g>
</svg>
