<?xml version="1.0" encoding="utf-8"?>
<!-- Generator: Adobe Illustrator 16.0.0, SVG Export Plug-In . SVG Version: 6.00 Build 0)  -->
<!DOCTYPE svg PUBLIC "-//W3C//DTD SVG 1.1//EN" "http://www.w3.org/Graphics/SVG/1.1/DTD/svg11.dtd">
<svg version="1.1" id="Layer_1" xmlns="http://www.w3.org/2000/svg" xmlns:xlink="http://www.w3.org/1999/xlink" x="0px" y="0px"
	 width="60px" height="60px" viewBox="0 0 60 60" enable-background="new 0 0 60 60" xml:space="preserve">
<g>
	<g>
		<path fill="#D2D3D4" d="M345.988,1589.729c-2.106,2.105-5.522,2.106-7.629,0l-7.63-7.63c-2.106-2.106-2.106-5.523,0-7.629
			l2.861-2.862c2.106-2.105,5.522-2.105,7.629,0l7.63,7.63c2.106,2.107,2.106,5.523,0,7.629L345.988,1589.729z"/>
		<path fill="#231F20" d="M342.174,1593.308c-1.976,0-3.832-0.769-5.229-2.165l-7.63-7.63c-1.396-1.396-2.166-3.253-2.166-5.229
			s0.77-3.833,2.166-5.229l2.861-2.862c1.396-1.396,3.254-2.165,5.229-2.165s3.832,0.769,5.229,2.165l7.63,7.63
			c2.884,2.885,2.883,7.575,0,10.457l-2.861,2.862C346.006,1592.539,344.148,1593.308,342.174,1593.308z M337.405,1572.028
			c-0.907,0-1.76,0.353-2.4,0.993l-2.861,2.862c-0.641,0.641-0.994,1.493-0.994,2.4c0,0.906,0.354,1.759,0.994,2.4l7.63,7.63
			c1.281,1.281,3.518,1.283,4.801,0l2.861-2.862c1.323-1.323,1.323-3.477,0-4.801l-7.63-7.63
			C339.165,1572.381,338.313,1572.028,337.405,1572.028z"/>
	</g>
	<g>
		<path fill="#D2D3D4" d="M297.59,1589.729c2.106,2.105,5.522,2.106,7.629,0l7.63-7.63c2.106-2.106,2.106-5.523,0-7.629
			l-2.861-2.862c-2.106-2.105-5.522-2.105-7.629,0l-7.63,7.63c-2.106,2.107-2.106,5.523,0,7.629L297.59,1589.729z"/>
		<path fill="#231F20" d="M301.405,1593.308C301.404,1593.308,301.404,1593.308,301.405,1593.308c-1.976,0-3.833-0.769-5.229-2.165
			l-2.861-2.862c-2.883-2.882-2.883-7.572,0-10.457l7.63-7.63c1.396-1.396,3.253-2.165,5.229-2.165s3.832,0.769,5.229,2.165
			l2.862,2.862c1.396,1.396,2.164,3.253,2.164,5.229s-0.769,3.832-2.165,5.229l-7.63,7.63
			C305.236,1592.539,303.38,1593.308,301.405,1593.308z M306.173,1572.028c-0.907,0-1.759,0.353-2.4,0.993l-7.63,7.63
			c-1.323,1.324-1.323,3.478,0,4.801l2.861,2.862c0.641,0.641,1.494,0.993,2.4,0.993h0.001c0.906,0,1.759-0.353,2.399-0.993
			l7.63-7.63c0.642-0.642,0.993-1.494,0.993-2.4c0-0.907-0.352-1.76-0.993-2.4l-2.862-2.862
			C307.932,1572.381,307.08,1572.028,306.173,1572.028z"/>
	</g>
	<g>
		<circle fill="#FFFFFF" cx="322.108" cy="1600.892" r="22.892"/>
		<path fill="#231F20" d="M322.108,1625.783c-13.726,0-24.892-11.166-24.892-24.892S308.383,1576,322.108,1576
			S347,1587.166,347,1600.892S335.834,1625.783,322.108,1625.783z M322.108,1580c-11.52,0-20.892,9.372-20.892,20.892
			s9.372,20.892,20.892,20.892S343,1612.411,343,1600.892S333.628,1580,322.108,1580z"/>
	</g>
	<g>
		<path fill="#231F20" d="M299.215,1629.5c-0.416,0-0.834-0.129-1.193-0.396c-0.886-0.66-1.068-1.914-0.408-2.799l7.327-9.826
			c0.661-0.885,1.915-1.067,2.799-0.408c0.886,0.66,1.068,1.914,0.408,2.799l-7.327,9.826
			C300.428,1629.222,299.825,1629.5,299.215,1629.5z"/>
	</g>
	<g>
		<path fill="#231F20" d="M345.546,1629.5c-0.61,0-1.213-0.278-1.605-0.805l-7.327-9.826c-0.66-0.885-0.478-2.139,0.408-2.799
			c0.886-0.661,2.14-0.477,2.799,0.408l7.327,9.826c0.66,0.885,0.478,2.139-0.408,2.799
			C346.381,1629.371,345.961,1629.5,345.546,1629.5z"/>
	</g>
	<g>
		<polyline fill="#FFFFFF" points="322.108,1585.25 322.108,1600.892 331.858,1610.642 		"/>
		<path fill="#231F20" d="M331.858,1612.642c-0.512,0-1.023-0.195-1.414-0.586l-9.75-9.75c-0.375-0.375-0.586-0.884-0.586-1.414
			v-15.642c0-1.104,0.896-2,2-2s2,0.896,2,2v14.813l9.164,9.164c0.781,0.781,0.781,2.047,0,2.828
			C332.882,1612.446,332.37,1612.642,331.858,1612.642z"/>
	</g>
</g>
<g>
	<g>
		<g>
			<path fill="#D2D3D4" d="M31.463,1.88h-2.925c-9.684,0-17.535,7.851-17.535,17.535V32.95c0,9.684,7.852,10.151,17.535,10.151
				h2.925c9.681,0,17.533-0.468,17.533-10.151V19.415C48.996,9.731,41.144,1.88,31.463,1.88z M40.075,32.549
				c0,5.135-4.165-2.698-9.3-2.698h-1.551c-5.136,0-9.301,7.833-9.301,2.698V19.817c0-5.136,4.165-10.223,9.301-10.223h1.551
				c5.135,0,9.3,5.087,9.3,10.223V32.549z"/>
			<path fill="#231F20" d="M31.463,44.982h-2.925c-8.65,0-19.415,0-19.415-12.032V19.415C9.123,8.709,17.832,0,28.538,0h2.925
				c10.704,0,19.413,8.709,19.413,19.415V32.95C50.876,44.982,40.111,44.982,31.463,44.982z M28.538,3.76
				c-8.633,0-15.655,7.023-15.655,15.655V32.95c0,7.456,5.014,8.271,15.655,8.271h2.925c10.64,0,15.652-0.815,15.652-8.271V19.415
				c0-8.632-7.021-15.655-15.652-15.655H28.538z M20.637,36.174c-0.994,0-1.837-0.571-2.253-1.526
				c-0.232-0.535-0.34-1.201-0.34-2.099V19.817c0-6.447,5.225-12.103,11.181-12.103h1.551c5.955,0,11.18,5.656,11.18,12.103v12.731
				c0,3.271-1.813,3.625-2.593,3.625c-1.178,0-2.145-0.761-3.482-1.813c-1.489-1.172-3.342-2.63-5.104-2.63h-1.551
				c-1.764,0-3.616,1.458-5.105,2.63C22.782,35.413,21.815,36.174,20.637,36.174L20.637,36.174z M29.225,11.474
				c-4.247,0-7.421,4.405-7.421,8.343v11.58c1.841-1.449,4.36-3.427,7.421-3.427h1.551c3.06,0,5.578,1.979,7.42,3.427v-11.58
				c0-3.938-3.174-8.343-7.42-8.343H29.225z"/>
		</g>
		<g>
			<path fill="#FFFFFF" d="M56.048,56.54c0,0.873-0.706,1.58-1.579,1.58H5.53c-0.871,0-1.578-0.707-1.578-1.58V29.068
				c0-0.872,0.707-1.58,1.578-1.58h48.938c0.873,0,1.579,0.708,1.579,1.58V56.54z"/>
			<path fill="#231F20" d="M54.469,60H5.53c-1.906,0-3.458-1.553-3.458-3.46V29.068c0-1.908,1.552-3.46,3.458-3.46h48.938
				c1.908,0,3.459,1.552,3.459,3.46V56.54C57.928,58.447,56.377,60,54.469,60z M5.832,56.24h48.336V29.368H5.832V56.24z"/>
		</g>
	</g>
	<g>
		<line fill="#FFFFFF" x1="30" y1="50.865" x2="30" y2="39.898"/>
		<path fill="#231F20" d="M30,52.745c-1.038,0-1.88-0.842-1.88-1.88V39.898c0-1.039,0.842-1.881,1.88-1.881s1.88,0.842,1.88,1.881
			v10.967C31.88,51.903,31.038,52.745,30,52.745z"/>
	</g>
	<g>
		<circle fill="#231F20" cx="30" cy="37.704" r="2.193"/>
		<path fill="#231F20" d="M30.001,41.778c-2.247,0-4.074-1.828-4.074-4.074s1.827-4.073,4.074-4.073
			c2.245,0,4.072,1.827,4.072,4.073S32.246,41.778,30.001,41.778z M30.001,37.391c-0.173,0-0.313,0.141-0.313,0.313
			c0,0.174,0.141,0.313,0.313,0.313c0.172,0,0.313-0.14,0.313-0.313C30.313,37.531,30.173,37.391,30.001,37.391z"/>
	</g>
</g>
</svg>
