<?xml version="1.0" encoding="utf-8"?>
<!-- Generator: Adobe Illustrator 19.2.1, SVG Export Plug-In . SVG Version: 6.00 Build 0)  -->
<svg version="1.1" id="Layer_1" xmlns="http://www.w3.org/2000/svg" xmlns:xlink="http://www.w3.org/1999/xlink" x="0px" y="0px"
	 viewBox="0 0 60 60" style="enable-background:new 0 0 60 60;" xml:space="preserve">
<style type="text/css">
	.st0{fill:#D2D3D4;}
	.st1{fill:#231F20;}
	.st2{fill:#FFFFFF;}
</style>
<g>
	<g>
		<rect x="2.2" y="5.9" class="st0" width="55.6" height="38.5"/>
		<path class="st1" d="M57.8,46.6H2.2c-1.2,0-2.2-1-2.2-2.2V5.9c0-1.2,1-2.2,2.2-2.2h55.6c1.2,0,2.2,1,2.2,2.2v38.5
			C60,45.6,59,46.6,57.8,46.6z M4.4,42.2h51.2V8.1H4.4V42.2z"/>
	</g>
	<g>
		<polygon class="st2" points="13.2,54.1 57.8,54.1 57.8,24.6 		"/>
		<path class="st1" d="M57.8,56.3H13.2c-1,0-1.8-0.6-2.1-1.6c-0.3-0.9,0.1-1.9,0.9-2.5l44.6-29.5c0.7-0.4,1.5-0.5,2.3-0.1
			c0.7,0.4,1.2,1.1,1.2,1.9v29.5C60,55.3,59,56.3,57.8,56.3z M20.5,51.9h35.1V28.7L20.5,51.9z"/>
	</g>
	<g>
		<polygon class="st2" points="46.8,54.1 2.2,54.1 2.2,24.6 		"/>
		<path class="st1" d="M46.8,56.3H2.2c-1.2,0-2.2-1-2.2-2.2V24.6c0-0.8,0.4-1.6,1.2-1.9c0.7-0.4,1.6-0.3,2.3,0.1L48,52.3
			c0.8,0.5,1.2,1.5,0.9,2.5C48.6,55.7,47.8,56.3,46.8,56.3z M4.4,51.9h35.1L4.4,28.7V51.9z"/>
	</g>
	<g>
		<polygon class="st2" points="2.2,54.1 30,24.6 57.8,54.1 		"/>
		<path class="st1" d="M57.8,56.3H2.2c-0.9,0-1.7-0.5-2-1.3S0,53.2,0.6,52.6l27.8-29.5c0.8-0.9,2.4-0.9,3.2,0l27.8,29.5
			c0.6,0.6,0.8,1.6,0.4,2.4C59.5,55.8,58.7,56.3,57.8,56.3z M7.3,51.9h45.4L30,27.8L7.3,51.9z"/>
	</g>
	<g>
		<line class="st0" x1="9.3" y1="13.6" x2="32.2" y2="13.6"/>
		<path class="st1" d="M32.2,15.8H9.3c-1.2,0-2.2-1-2.2-2.2s1-2.2,2.2-2.2h22.9c1.2,0,2.2,1,2.2,2.2S33.4,15.8,32.2,15.8z"/>
	</g>
</g>
</svg>
