<?xml version="1.0" encoding="utf-8"?>
<!-- Generator: Adobe Illustrator 19.2.1, SVG Export Plug-In . SVG Version: 6.00 Build 0)  -->
<svg version="1.1" id="Layer_1" xmlns="http://www.w3.org/2000/svg" xmlns:xlink="http://www.w3.org/1999/xlink" x="0px" y="0px"
	 viewBox="0 0 60 60" style="enable-background:new 0 0 60 60;" xml:space="preserve">
<style type="text/css">
	.st0{fill:#FFFFFF;}
	.st1{fill:#231F20;}
	.st2{fill:#D2D3D4;}
</style>
<g>
	<g>
		<line class="st0" x1="49" y1="57.8" x2="11" y2="57.8"/>
		<path class="st1" d="M49,60H11c-1.2,0-2.2-1-2.2-2.2s1-2.2,2.2-2.2h38c1.2,0,2.2,1,2.2,2.2S50.2,60,49,60z"/>
	</g>
	<g>
		<path class="st2" d="M47.8,20c0,9.8-17.8,28.7-17.8,28.7S12.2,29.8,12.2,20c0-9.8,8-17.8,17.8-17.8C39.8,2.2,47.8,10.2,47.8,20z"
			/>
		<path class="st1" d="M30,50.9c-0.6,0-1.2-0.2-1.6-0.7C26.5,48.2,10,30.4,10,20C10,9,19,0,30,0c11,0,20,9,20,20
			c0,10.4-16.5,28.2-18.4,30.2C31.2,50.6,30.6,50.9,30,50.9z M30,4.4c-8.6,0-15.6,7-15.6,15.6c0,6.6,10.1,19.3,15.6,25.4
			c5.5-6.1,15.6-18.8,15.6-25.4C45.6,11.4,38.6,4.4,30,4.4z"/>
	</g>
	<g>
		<circle class="st0" cx="30" cy="19.5" r="7.3"/>
		<path class="st1" d="M30,29c-5.3,0-9.5-4.3-9.5-9.5S24.7,10,30,10s9.5,4.3,9.5,9.5S35.3,29,30,29z M30,14.4
			c-2.8,0-5.1,2.3-5.1,5.1s2.3,5.1,5.1,5.1s5.1-2.3,5.1-5.1S32.8,14.4,30,14.4z"/>
	</g>
</g>
</svg>
