<?xml version="1.0" encoding="utf-8"?>
<!-- Generator: Adobe Illustrator 19.2.1, SVG Export Plug-In . SVG Version: 6.00 Build 0)  -->
<svg version="1.1" id="Layer_1" xmlns="http://www.w3.org/2000/svg" xmlns:xlink="http://www.w3.org/1999/xlink" x="0px" y="0px"
	 viewBox="0 0 60 60" style="enable-background:new 0 0 60 60;" xml:space="preserve">
<style type="text/css">
	.st0{fill:#FFFFFF;}
	.st1{fill:#231F20;}
	.st2{fill:#D2D3D4;}
</style>
<g>
	<g>
		<polygon class="st0" points="20.4,49.9 2.6,57.1 2.6,10.1 20.4,2.9 		"/>
		<path class="st1" d="M2.6,59.6c-0.5,0-1-0.2-1.5-0.4C0.4,58.7,0,57.9,0,57.1v-47c0-1.1,0.6-2,1.6-2.4l17.8-7.1
			c0.8-0.3,1.7-0.2,2.4,0.3C22.5,1.3,23,2.1,23,2.9v47c0,1.1-0.6,2-1.6,2.4L3.5,59.5C3.2,59.6,2.9,59.6,2.6,59.6z M5.2,11.8v41.4
			l12.6-5.1V6.8L5.2,11.8z M20.4,49.9L20.4,49.9L20.4,49.9z"/>
	</g>
	<g>
		<polygon class="st0" points="57.4,49.9 39.6,57.1 39.6,10.1 57.4,2.9 		"/>
		<path class="st1" d="M39.6,59.6c-0.5,0-1-0.2-1.5-0.4c-0.7-0.5-1.1-1.3-1.1-2.1v-47c0-1.1,0.6-2,1.6-2.4l17.8-7.1
			c0.8-0.3,1.7-0.2,2.4,0.3C59.6,1.3,60,2.1,60,2.9v47c0,1.1-0.6,2-1.6,2.4l-17.8,7.1C40.3,59.6,39.9,59.6,39.6,59.6z M42.2,11.8
			v41.4l12.6-5.1V6.8L42.2,11.8z M57.4,49.9L57.4,49.9L57.4,49.9z"/>
	</g>
	<g>
		<polygon class="st2" points="21.1,49.9 38.9,57.1 38.9,10.1 21.1,2.9 		"/>
		<path class="st1" d="M38.9,59.6c-0.3,0-0.7-0.1-1-0.2l-17.8-7.1c-1-0.4-1.6-1.3-1.6-2.4v-47c0-0.9,0.4-1.7,1.1-2.1
			c0.7-0.5,1.6-0.6,2.4-0.3l17.8,7.1c1,0.4,1.6,1.3,1.6,2.4v47c0,0.9-0.4,1.7-1.1,2.1C39.9,59.5,39.4,59.6,38.9,59.6z M23.7,48.2
			l12.6,5.1V11.8L23.7,6.8V48.2z"/>
	</g>
</g>
</svg>
