<?xml version="1.0" encoding="utf-8"?>
<!-- Generator: Adobe Illustrator 16.0.0, SVG Export Plug-In . SVG Version: 6.00 Build 0)  -->
<!DOCTYPE svg PUBLIC "-//W3C//DTD SVG 1.1//EN" "http://www.w3.org/Graphics/SVG/1.1/DTD/svg11.dtd">
<svg version="1.1" id="Layer_1" xmlns="http://www.w3.org/2000/svg" xmlns:xlink="http://www.w3.org/1999/xlink" x="0px" y="0px"
	 width="60px" height="60px" viewBox="0 0 60 60" enable-background="new 0 0 60 60" xml:space="preserve">
<g>
	<g>
		<path fill="#D2D3D4" d="M3.726,36.778l8.694-8.945c0,0,7.223,5.965,15.476,2.735c8.254-3.229,17.093-1.011,18.952,1.738
			L24.623,55.123l-5.877,2.725l-5.669-1.44L2.714,45.124L2.35,40.061L3.726,36.778z"/>
	</g>
	<g>
		<g>
			<path fill="#231F20" d="M18.041,60c-3.062,0-5.94-1.191-8.105-3.357l-6.581-6.581c-4.469-4.469-4.469-11.739,0-16.207
				l20.568-20.568c2.165-2.165,5.042-3.357,8.105-3.357c3.062,0,5.938,1.192,8.104,3.356l6.58,6.582
				c4.47,4.468,4.47,11.74,0.001,16.208L26.145,56.645C23.979,58.809,21.102,60,18.041,60z M32.027,14.235
				c-1.912,0-3.709,0.745-5.06,2.096L6.399,36.897c-2.79,2.791-2.79,7.33,0,10.12l6.58,6.581c1.352,1.352,3.149,2.096,5.062,2.096
				c1.911,0,3.708-0.744,5.06-2.095l20.568-20.567c2.788-2.79,2.788-7.33-0.001-10.121l-6.582-6.581
				C35.735,14.98,33.938,14.235,32.027,14.235z"/>
		</g>
		<g>
			<path fill="#FFFFFF" d="M52.58,27.165c-0.893,0.893-2.341,0.893-3.232,0L32.834,10.651c-0.892-0.892-0.893-2.34,0.001-3.233
				l1.212-1.212c0.893-0.893,2.339-0.892,3.231,0L53.792,22.72c0.893,0.892,0.893,2.34,0,3.232L52.58,27.165z"/>
			<path fill="#231F20" d="M50.963,29.987c-1.186,0-2.301-0.462-3.139-1.3L31.312,12.173c-0.838-0.838-1.299-1.953-1.299-3.138
				c0-1.187,0.461-2.301,1.301-3.14l1.21-1.211c0.839-0.839,1.953-1.301,3.138-1.301c1.187,0,2.301,0.462,3.14,1.3l16.514,16.514
				c0.837,0.837,1.3,1.952,1.3,3.138c0,1.186-0.462,2.3-1.3,3.138l-1.212,1.212C53.265,29.525,52.149,29.987,50.963,29.987z
				 M34.047,6.207l1.522,1.521L34.358,8.94c-0.045,0.045-0.046,0.145-0.001,0.189l16.605,16.552c0.056,0,0.083-0.028,0.094-0.039
				l1.213-1.213c0.044-0.044,0.044-0.143,0-0.187L35.756,7.729L34.047,6.207z"/>
		</g>
		<g>
			<path fill="#231F20" d="M52.53,12.166c-0.356-3.236,1.964-3.5,3.434-3.435c1.166,0.408,6.468-2.238,2.703-6.905
				c0,0-0.049-0.062-0.113-0.138l0.011-0.01c0,0-0.002-0.002-0.003-0.003c-0.032-0.034-0.076-0.076-0.121-0.117
				c-0.041-0.046-0.083-0.089-0.117-0.12c-0.001-0.001-0.003-0.003-0.004-0.004l-0.011,0.01c-0.074-0.063-0.137-0.112-0.137-0.112
				c-4.667-3.766-7.312,1.537-6.905,2.702c0.065,1.471-0.198,3.791-3.435,3.434c-5.104-0.961-8.661,3.461-8.661,3.461l5.871,4.03
				l4.028,5.869C49.07,20.826,53.494,17.27,52.53,12.166z"/>
		</g>
	</g>
</g>
</svg>
