<?xml version="1.0" encoding="utf-8"?>
<!-- Generator: Adobe Illustrator 19.2.1, SVG Export Plug-In . SVG Version: 6.00 Build 0)  -->
<svg version="1.1" id="Layer_1" xmlns="http://www.w3.org/2000/svg" xmlns:xlink="http://www.w3.org/1999/xlink" x="0px" y="0px"
	 viewBox="0 0 60 60" style="enable-background:new 0 0 60 60;" xml:space="preserve">
<style type="text/css">
	.st0{fill:#D1D2D3;}
	.st1{fill:#231F20;}
</style>
<g>
	<g>
		<rect x="40.4" y="2.3" class="st0" width="7.3" height="56.1"/>
	</g>
	<g>
		<path class="st1" d="M54.6,60H5.4c-0.9,0-1.7-0.7-1.7-1.7V1.7C3.7,0.7,4.5,0,5.4,0h49.2c0.9,0,1.7,0.7,1.7,1.7v56.7
			C56.3,59.3,55.5,60,54.6,60z M7.1,56.7h45.9V3.3H7.1V56.7z"/>
	</g>
	<g>
		<path class="st1" d="M13.1,21.5c-0.2,0-0.5,0-0.7-0.1c-0.6-0.3-1-0.9-1-1.5V2.3c0-0.9,0.7-1.7,1.7-1.7h10.5c0.9,0,1.7,0.7,1.7,1.7
			v17.5c0,0.7-0.4,1.2-1,1.5c-0.6,0.3-1.3,0.2-1.8-0.3l-4.1-3.7L14.2,21C13.9,21.3,13.5,21.5,13.1,21.5z M18.4,13.4
			c0.4,0,0.8,0.1,1.1,0.4l2.5,2.2V4h-7.2v12.1l2.5-2.2C17.6,13.6,18,13.4,18.4,13.4z"/>
	</g>
</g>
</svg>
