<?xml version="1.0" encoding="utf-8"?>
<!-- Generator: Adobe Illustrator 19.2.1, SVG Export Plug-In . SVG Version: 6.00 Build 0)  -->
<svg version="1.1" id="Layer_1" xmlns="http://www.w3.org/2000/svg" xmlns:xlink="http://www.w3.org/1999/xlink" x="0px" y="0px"
	 viewBox="0 0 60 60" style="enable-background:new 0 0 60 60;" xml:space="preserve">
<style type="text/css">
	.st0{fill:#FFFFFF;}
	.st1{fill:#231F20;}
	.st2{fill:#D2D3D4;}
</style>
<g>
	<g>
		<polygon class="st0" points="51.3,57.6 8.7,57.6 8.7,2.4 34.2,2.4 51.3,21.3 		"/>
		<path class="st1" d="M51.3,60H8.7c-1.3,0-2.4-1.1-2.4-2.4V2.4C6.3,1.1,7.4,0,8.7,0h25.5c0.7,0,1.3,0.3,1.8,0.8l17.1,18.9
			c0.4,0.4,0.6,1,0.6,1.6v36.3C53.7,58.9,52.6,60,51.3,60z M11.1,55.2h37.8v-33L33.1,4.8h-22V55.2z"/>
	</g>
	<g>
		<polyline class="st2" points="33,3.6 33,21.3 50.1,21.3 		"/>
		<path class="st1" d="M50.1,23.7H33c-1.3,0-2.4-1.1-2.4-2.4V3.6c0-1.3,1.1-2.4,2.4-2.4s2.4,1.1,2.4,2.4v15.3h14.7
			c1.3,0,2.4,1.1,2.4,2.4C52.5,22.6,51.4,23.7,50.1,23.7z"/>
	</g>
	<g>
		<path class="st1" d="M41.1,50.7H16.2c-1.3,0-2.4-1.1-2.4-2.4s1.1-2.4,2.4-2.4h24.9c1.3,0,2.4,1.1,2.4,2.4S42.4,50.7,41.1,50.7z"/>
	</g>
	<g>
		<path class="st1" d="M29.1,41.1H16.2c-1.3,0-2.4-1.1-2.4-2.4s1.1-2.4,2.4-2.4h12.9c1.3,0,2.4,1.1,2.4,2.4S30.4,41.1,29.1,41.1z"/>
	</g>
</g>
</svg>
