<?xml version="1.0" encoding="utf-8"?>
<!-- Generator: Adobe Illustrator 19.2.1, SVG Export Plug-In . SVG Version: 6.00 Build 0)  -->
<svg version="1.1" id="Layer_1" xmlns="http://www.w3.org/2000/svg" xmlns:xlink="http://www.w3.org/1999/xlink" x="0px" y="0px"
	 viewBox="0 0 60 60" style="enable-background:new 0 0 60 60;" xml:space="preserve">
<style type="text/css">
	.st0{fill:#D2D3D4;}
	.st1{fill:#231F20;}
	.st2{fill:#FFFFFF;}
</style>
<g>
	<g>
		<line class="st0" x1="7" y1="54.4" x2="12.3" y2="49.1"/>
		<path class="st1" d="M7,56.8c-0.6,0-1.2-0.2-1.7-0.7c-0.9-0.9-0.9-2.4,0-3.3l5.4-5.3c0.9-0.9,2.4-0.9,3.3,0c0.9,0.9,0.9,2.4,0,3.3
			l-5.4,5.3C8.2,56.5,7.6,56.8,7,56.8z"/>
	</g>
	<g>
		<path class="st0" d="M47.1,14.3c0,0,7.9-4.1,5.9-11.9"/>
		<path class="st1" d="M47.1,16.6c-0.8,0-1.7-0.5-2.1-1.3c-0.6-1.1-0.2-2.6,1-3.2c0.3-0.1,6.2-3.4,4.7-9.3c-0.3-1.3,0.4-2.5,1.7-2.9
			c1.3-0.3,2.5,0.4,2.9,1.7c2,7.6-3.8,12.9-7.1,14.6C47.9,16.6,47.5,16.6,47.1,16.6z"/>
	</g>
	<g>
		<ellipse transform="matrix(0.7071 -0.7071 0.7071 0.7071 -14.2122 30.0799)" class="st2" cx="29.2" cy="32.2" rx="26.9" ry="24"/>
		<path class="st1" d="M26.3,60c-6.6,0-13-2.4-17.8-7.1c-10.3-10.3-9.4-27.9,2-39.3c11.4-11.4,29-12.3,39.3-2
			c10.3,10.3,9.4,27.9-2,39.3C41.7,56.9,33.9,60,26.3,60z M32.1,9.1c-6.4,0-13,2.6-18.2,7.8c-9.6,9.6-10.5,24.2-2,32.6
			c8.4,8.4,23.1,7.5,32.6-2c9.6-9.6,10.5-24.2,2-32.6C42.7,11,37.5,9.1,32.1,9.1z"/>
	</g>
	<g>
		<path class="st0" d="M50.1,12c0,0-12.4-12.9-30.3-4.4c0,0,33.6,14.4,32,37.8C51.9,45.4,62.7,26.7,50.1,12z"/>
		<path class="st1" d="M51.9,47.7c-0.2,0-0.5,0-0.7-0.1c-1-0.3-1.7-1.3-1.7-2.4C51,23.8,19.3,9.9,19,9.7c-0.8-0.4-1.4-1.2-1.4-2.1
			c0-0.9,0.5-1.8,1.3-2.2c19.1-9.1,32.8,4.7,33,4.9c0,0,0.1,0.1,0.1,0.1c13.4,15.8,2.5,35.3,2,36.1C53.5,47.3,52.7,47.7,51.9,47.7z
			 M25.8,7.9c3.3,1.8,7.7,4.4,12.1,8C45.7,22,50.8,28.7,53,35.7c0.2-0.7,0.3-1.3,0.4-2c1.3-7.8-0.4-14.6-5-20.1
			C47.6,12.7,38.8,4.4,25.8,7.9z"/>
	</g>
</g>
</svg>
