<?xml version="1.0" encoding="utf-8"?>
<!-- Generator: Adobe Illustrator 19.2.1, SVG Export Plug-In . SVG Version: 6.00 Build 0)  -->
<svg version="1.1" id="Layer_1" xmlns="http://www.w3.org/2000/svg" xmlns:xlink="http://www.w3.org/1999/xlink" x="0px" y="0px"
	 viewBox="0 0 60 60" style="enable-background:new 0 0 60 60;" xml:space="preserve">
<style type="text/css">
	.st0{fill:#D1D2D3;}
	.st1{fill:#231F20;}
	.st2{fill:#FFFFFF;}
</style>
<g>
	<g>
		<path class="st0" d="M12.4,19.7c0,0-1.3,4,6.4,8.3c7.8,4.4,8.1,7.4,8.7,9.8c0.6,2.5,8.7-0.8,8.5,5.5c-0.2,6.2,0.3,8.6,2.1,9.5
			c1.8,0.9-3.5,6.6-3.5,6.6l-9.1-9.1l-1.5-4.9l-2.3,1.1L2.9,25.6L12.4,19.7z"/>
	</g>
	<g>
		<path class="st1" d="M33.8,60c-0.4,0-0.8-0.2-1.1-0.4l-9.5-9.5c-0.6-0.6-0.6-1.5,0-2.1l0.4-0.4L22.3,48c-0.5,0.2-1.1,0-1.5-0.4
			l-20-20c-0.3-0.3-0.5-0.7-0.4-1.1c0-0.4,0.2-0.8,0.6-1.1l22-17.9c0.6-0.5,1.4-0.4,2,0l28.7,25.8c0.6,0.5,0.7,1.4,0.2,2L35,59.4
			C34.7,59.8,34.3,60,33.8,60C33.8,60,33.8,60,33.8,60z M26.4,49l7.2,7.2l16.8-21.6l-26.7-24l-19.7,16l18.2,18.2l6.3-2
			c0.7-0.2,1.4,0.1,1.7,0.7c0.4,0.6,0.3,1.4-0.2,1.8L26.4,49z"/>
	</g>
	<g>
		<path class="st2" d="M56.3,31.6c-1.6-2.2-11.1-8.2-9.3-11.4C48.8,16.9,62.2,9.1,57,2.9l0,0c0,0,0,0-0.1-0.1c0,0,0,0-0.1-0.1l0,0
			c-6.2-5.2-14.1,8.2-17.3,9.9c-3.2,1.8-9.2-7.7-11.4-9.3c-2.2-1.6-6.3,3.2-6.3,3.2l15.6,15.6l0.1,0.1l15.6,15.6
			C53.1,37.9,57.9,33.8,56.3,31.6z"/>
		<path class="st1" d="M53.1,39.4c-0.4,0-0.8-0.1-1.1-0.4L20.7,7.7c-0.6-0.6-0.6-1.4-0.1-2c0.8-1,5.2-5.8,8.4-3.5
			c0.8,0.6,1.8,1.8,3.1,3.2c1.4,1.6,5.6,6.6,6.8,5.9c0.7-0.4,2-1.8,3.2-3.2c4-4.4,10-11.1,15.5-6.7c0.1,0.1,0.3,0.2,0.4,0.3
			c0,0,0,0,0,0c0.1,0.1,0.2,0.2,0.3,0.3c4.4,5.5-2.3,11.5-6.7,15.5c-1.4,1.3-2.8,2.6-3.2,3.2c-0.7,1.2,4.3,5.4,5.9,6.8
			c1.5,1.3,2.7,2.3,3.2,3.1c2.3,3.2-2.5,7.5-3.5,8.4C53.8,39.3,53.4,39.4,53.1,39.4z M23.9,6.6l29.2,29.2c1.4-1.4,2.3-3,2-3.3
			c0,0,0,0,0,0c-0.4-0.5-1.6-1.5-2.8-2.5c-4-3.4-8.5-7.2-6.6-10.5c0.6-1.1,2-2.4,3.8-4c4.8-4.3,8.8-8.4,6.3-11.5
			c-3.1-2.5-7.2,1.5-11.5,6.3c-1.6,1.8-2.9,3.2-4,3.8c-3.3,1.8-7.2-2.7-10.5-6.6c-1-1.2-2-2.4-2.5-2.8C26.9,4.3,25.4,5.2,23.9,6.6z"
			/>
	</g>
</g>
</svg>
