<?xml version="1.0" encoding="utf-8"?>
<!-- Generator: Adobe Illustrator 19.2.1, SVG Export Plug-In . SVG Version: 6.00 Build 0)  -->
<svg version="1.1" id="Layer_1" xmlns="http://www.w3.org/2000/svg" xmlns:xlink="http://www.w3.org/1999/xlink" x="0px" y="0px"
	 viewBox="0 0 60 60" style="enable-background:new 0 0 60 60;" xml:space="preserve">
<style type="text/css">
	.st0{fill:#FFFFFF;}
	.st1{fill:#231F20;}
	.st2{fill:#D1D2D3;}
</style>
<g>
	<g>
		<path class="st0" d="M25.4,1.5c0,0,25.4-3.3,30.8,21.8c5.5,25.1-21.3,38.8-27.3,34.4c-6-4.4,0-7.3-8.7-12.4
			c-8.7-5.1-21.3-12.6-15.8-28C9.8,2.1,25.4,1.5,25.4,1.5z"/>
		<path class="st1" d="M32,60c-1.6,0-2.9-0.3-3.9-1.1c-3.2-2.3-3.5-4.4-3.8-6.3c-0.3-1.9-0.6-3.6-4.8-6C11.1,41.8-2.9,33.6,3,17
			C8.5,1.4,24.1,0.2,25.3,0.1c1.4-0.2,26.8-2.5,32.3,23c4.2,19.2-9.5,29.9-13.8,32.7C39.6,58.5,35.3,60,32,60z M25.5,2.9
			c-0.6,0-14.7,0.7-19.8,15c-4.7,13.3,4.5,20,15.2,26.3c5.4,3.1,5.8,5.7,6.2,8c0.3,1.6,0.5,2.8,2.7,4.4c1.7,1.2,7,0.4,12.5-3.2
			c3.9-2.6,16.4-12.3,12.6-29.8C49.7,0.1,26.6,2.8,25.6,2.9C25.5,2.9,25.5,2.9,25.5,2.9z M25.4,1.5L25.4,1.5L25.4,1.5z"/>
	</g>
	<g>
		<circle class="st2" cx="19.1" cy="19" r="4.9"/>
	</g>
	<g>
		<circle class="st2" cx="33.1" cy="15.4" r="3.1"/>
	</g>
	<g>
		<circle class="st2" cx="44.7" cy="19.4" r="1.6"/>
	</g>
	<g>
		<ellipse transform="matrix(0.3963 -0.9181 0.9181 0.3963 -17.6853 51.0715)" class="st0" cx="30" cy="39" rx="4.2" ry="6.9"/>
		<path class="st1" d="M32.3,45.2c-1.4,0-3-0.3-4.5-1c-1.9-0.8-3.6-2.1-4.6-3.6c-1.2-1.6-1.5-3.4-0.8-4.9c1.3-2.9,5.6-3.7,9.9-1.9
			c1.9,0.8,3.6,2.1,4.6,3.6c1.2,1.6,1.5,3.4,0.8,4.9C36.9,44.1,34.8,45.2,32.3,45.2z M27.7,35.6c-1.4,0-2.5,0.4-2.8,1.1
			c-0.2,0.6,0,1.4,0.5,2.2c0.7,1,2,2,3.4,2.6c2.9,1.3,5.7,0.8,6.2-0.4c0,0,0,0,0,0c0.2-0.6,0-1.4-0.5-2.2c-0.7-1-2-2-3.4-2.6
			C29.9,35.9,28.7,35.6,27.7,35.6z"/>
	</g>
</g>
</svg>
