<?xml version="1.0" encoding="utf-8"?>
<!-- Generator: Adobe Illustrator 19.2.1, SVG Export Plug-In . SVG Version: 6.00 Build 0)  -->
<svg version="1.1" id="Layer_1" xmlns="http://www.w3.org/2000/svg" xmlns:xlink="http://www.w3.org/1999/xlink" x="0px" y="0px"
	 viewBox="0 0 60 60" style="enable-background:new 0 0 60 60;" xml:space="preserve">
<style type="text/css">
	.st0{fill:#D2D3D4;}
	.st1{fill:#231F20;}
	.st2{fill:#FFFFFF;}
</style>
<g>
	<g>
		<path class="st0" d="M30.6,17.2c0,0,0.9-14.6,10.9-15.2C41.5,2.1,46.6,15.7,30.6,17.2z"/>
		<path class="st1" d="M30.6,19.3c-0.5,0-1-0.2-1.4-0.6c-0.4-0.4-0.7-1-0.6-1.6c0-0.7,1.2-16.4,12.8-17.1c0.9-0.1,1.7,0.5,2,1.3
			c0.1,0.3,2.4,6.7-0.8,11.9c-2.2,3.5-6.1,5.5-11.8,6C30.7,19.3,30.6,19.3,30.6,19.3z M40,4.4c-4.6,1.4-6.3,7-7,10.4
			c2.9-0.6,5-1.9,6.1-3.7C40.5,8.8,40.3,6.1,40,4.4z"/>
	</g>
	<g>
		<circle class="st2" cx="30" cy="37.5" r="20.5"/>
		<path class="st1" d="M30,60C17.6,60,7.5,49.9,7.5,37.5S17.6,15,30,15s22.5,10.1,22.5,22.5S42.4,60,30,60z M30,19.1
			c-10.2,0-18.4,8.3-18.4,18.4S19.8,55.9,30,55.9s18.4-8.3,18.4-18.4S40.2,19.1,30,19.1z"/>
	</g>
	<g>
		<path class="st0" d="M22.1,5.1c0,0,8,6.9,7.9,11.9"/>
		<path class="st1" d="M30,19.1C30,19.1,30,19.1,30,19.1c-1.2,0-2.1-0.9-2.1-2.1c0-3-4.9-8.3-7.2-10.3c-0.9-0.7-0.9-2-0.2-2.9
			c0.7-0.9,2-0.9,2.9-0.2c0.9,0.8,8.7,7.7,8.6,13.5C32,18.2,31.1,19.1,30,19.1z"/>
	</g>
</g>
</svg>
