<?xml version="1.0" encoding="utf-8"?>
<!-- Generator: Adobe Illustrator 16.0.0, SVG Export Plug-In . SVG Version: 6.00 Build 0)  -->
<!DOCTYPE svg PUBLIC "-//W3C//DTD SVG 1.1//EN" "http://www.w3.org/Graphics/SVG/1.1/DTD/svg11.dtd">
<svg version="1.1" id="Layer_1" xmlns="http://www.w3.org/2000/svg" xmlns:xlink="http://www.w3.org/1999/xlink" x="0px" y="0px"
	 width="60px" height="60px" viewBox="0 0 60 60" enable-background="new 0 0 60 60" xml:space="preserve">
<g>
	<g>
		<path fill="#231F20" d="M8.013,59.628c-0.365,0-0.734-0.108-1.055-0.332c-0.823-0.575-1.035-1.702-0.478-2.537
			c8.39-12.576,4.097-24.069,3.91-24.552c-0.301-0.779-0.044-1.668,0.631-2.161l13.437-9.807c0.701-0.513,1.663-0.466,2.313,0.11
			l4.722,4.191c0.279,0.248,0.467,0.563,0.558,0.902l4.454,1.752c0.885,0.348,1.359,1.311,1.099,2.225L33.02,45.412
			c-0.23,0.808-0.976,1.375-1.816,1.336h-0.001c-1.354,0-13.09,0.343-21.698,12.123C9.143,59.365,8.583,59.628,8.013,59.628z
			 M14.274,32.24c0.767,2.715,2.028,9.118-0.177,16.843c6.483-4.711,12.933-5.743,15.742-5.965l3.754-13.103l-4.441-1.747
			c-0.526-0.207-0.928-0.643-1.091-1.184c-0.071-0.235-0.094-0.479-0.07-0.717l-2.559-2.271L14.274,32.24z"/>
	</g>
	<g>
		<path fill="#231F20" d="M8.013,59.628c-0.364,0-0.733-0.108-1.055-0.332c-0.835-0.584-1.04-1.733-0.456-2.569l15.386-22.03
			c0.583-0.834,1.734-1.039,2.569-0.456c0.835,0.584,1.04,1.733,0.457,2.569L9.527,58.84C9.168,59.354,8.595,59.628,8.013,59.628z"
			/>
	</g>
	<g>
		<circle fill="#231F20" cx="23.417" cy="35.731" r="2.767"/>
	</g>
	<g>
		<polygon fill="#D2D3D4" points="35.755,32.004 22.667,22.864 32.847,1.844 51.985,15.211 		"/>
		<path fill="#231F20" d="M35.754,33.85c-0.367,0-0.736-0.109-1.056-0.333l-13.087-9.14c-0.743-0.519-1-1.501-0.604-2.316
			L31.187,1.04c0.235-0.486,0.672-0.845,1.194-0.981c0.524-0.135,1.078-0.038,1.522,0.272l19.139,13.367
			c0.442,0.31,0.728,0.797,0.78,1.335c0.051,0.538-0.136,1.071-0.511,1.46l-16.23,16.793C36.722,33.657,36.24,33.85,35.754,33.85z
			 M25.014,22.253l10.508,7.338l13.633-14.106L33.563,4.596L25.014,22.253z"/>
	</g>
	<g>
		<path fill="#231F20" d="M35.828,60H8.015c-0.765,0-1.384-0.62-1.384-1.384s0.619-1.384,1.384-1.384h27.813
			c0.765,0,1.384,0.62,1.384,1.384S36.593,60,35.828,60z"/>
	</g>
</g>
</svg>
