<?xml version="1.0" encoding="utf-8"?>
<!-- Generator: Adobe Illustrator 19.2.1, SVG Export Plug-In . SVG Version: 6.00 Build 0)  -->
<svg version="1.1" id="Layer_1" xmlns="http://www.w3.org/2000/svg" xmlns:xlink="http://www.w3.org/1999/xlink" x="0px" y="0px"
	 viewBox="0 0 60 60" style="enable-background:new 0 0 60 60;" xml:space="preserve">
<style type="text/css">
	.st0{fill:#FFFFFF;}
	.st1{fill:#231F20;}
	.st2{fill:#D2D3D4;}
</style>
<g>
	<g>
		<rect x="13" y="9.5" class="st0" width="42.2" height="48.4"/>
		<path class="st1" d="M55.2,60H13c-1.2,0-2.2-1-2.2-2.2V9.5c0-1.2,1-2.2,2.2-2.2h42.2c1.2,0,2.2,1,2.2,2.2v48.4
			C57.4,59,56.4,60,55.2,60z M15.2,55.6H53v-44H15.2V55.6z"/>
	</g>
	<g>
		<rect x="20" y="15.9" class="st2" width="29" height="29.3"/>
		<path class="st1" d="M49.1,47.4H20c-1.2,0-2.2-1-2.2-2.2V15.9c0-1.2,1-2.2,2.2-2.2h29c1.2,0,2.2,1,2.2,2.2v29.3
			C51.2,46.4,50.3,47.4,49.1,47.4z M22.2,43h24.6V18.1H22.2V43z"/>
	</g>
	<g>
		<polygon class="st0" points="24.3,41 28.8,32.7 34.6,38.2 40.8,35.6 45.1,41 		"/>
	</g>
	<g>
		<circle class="st0" cx="40.4" cy="25.8" r="3.1"/>
	</g>
	<g>
		<path class="st1" d="M4.8,45.9c-1.2,0-2.2-1-2.2-2.2V2.2C2.6,1,3.6,0,4.8,0h36.6c1.2,0,2.2,1,2.2,2.2s-1,2.2-2.2,2.2H7v39.3
			C7,44.9,6,45.9,4.8,45.9z"/>
	</g>
</g>
</svg>
