<?xml version="1.0" encoding="utf-8"?>
<!-- Generator: Adobe Illustrator 19.2.1, SVG Export Plug-In . SVG Version: 6.00 Build 0)  -->
<svg version="1.1" id="Layer_1" xmlns="http://www.w3.org/2000/svg" xmlns:xlink="http://www.w3.org/1999/xlink" x="0px" y="0px"
	 viewBox="0 0 60 60" style="enable-background:new 0 0 60 60;" xml:space="preserve">
<style type="text/css">
	.st0{fill:#FFFFFF;}
	.st1{fill:#231F20;}
	.st2{fill:#D2D3D4;}
</style>
<g>
	<g>
		<path class="st0" d="M57.4,2.3L5.1,21.4c4.7,14.1,16,25.7,31.3,30.2L57.4,2.3z"/>
		<path class="st1" d="M36.4,53.8c-0.2,0-0.4,0-0.6-0.1C20.2,49.2,8,37.4,2.9,22.1c-0.4-1.2,0.2-2.4,1.4-2.9L56.6,0.1
			c0.9-0.3,1.8-0.1,2.4,0.6c0.6,0.7,0.8,1.6,0.4,2.5l-21,49.2C38.1,53.3,37.2,53.8,36.4,53.8z M8,22.7c4.7,12.2,14.7,21.8,27.1,26
			L53.2,6.2L8,22.7z"/>
	</g>
	<g>
		<path class="st0" d="M5.8,19.6c1.1-0.8,2.8,0.5,3.7,1.2c1.5,1.4,2.2,2.5,2.6,4.4c0.3,1.3,0.5,2.1,1.4,3.1c0.7,0.8,1.6,1.4,2.3,2.2
			c1,1,0.7,1.2,0.7,2.5c0.1,2,2.1,3.6,3.5,4.9c1.2,1.1,2.4,1.1,3.8,1.9c1.9,1.1,2.7,2.7,3.4,4.6c0.5,1.4,1.3,1.7,2.9,1.6
			c1.6-0.1,3-0.5,4.5,0.2c1.6,0.8,3,2.3,4.2,3.6c2.5,2.6-0.5,8.1-4.1,7.8c-1.8-0.1-3.7-1.4-5.3-2.1c-1.5-0.7-3.1-1.3-4.6-2
			c-3.9-1.8-6.8-4.8-9.7-7.8c-0.8-0.8-1.8-1.6-2.5-2.6c-1-1.2-1.6-2.6-2.6-3.7C7.9,37,6,34.2,4.4,31.2c-1.2-2.4-2.1-5.2-1.7-7.9
			c0.2-1.4,1.8-3.7,3.2-4.1c0.1,0.1,0.2,0.1,0.3,0.3"/>
		<path class="st1" d="M35.1,60c-0.1,0-0.3,0-0.4,0c-1.8-0.1-3.4-0.9-4.9-1.7c-0.4-0.2-0.8-0.4-1.2-0.6c-0.6-0.3-1.2-0.5-1.9-0.8
			c-0.9-0.4-1.9-0.8-2.7-1.2c-4.1-1.9-7.1-5-10.1-7.9l-0.3-0.3c-0.3-0.3-0.5-0.5-0.8-0.8c-0.6-0.6-1.3-1.2-1.9-1.9
			c-0.6-0.7-1.1-1.5-1.5-2.2c-0.4-0.6-0.7-1.1-1.1-1.6c-2.4-2.8-4.4-5.8-6-8.8c-1.8-3.4-2.4-6.5-1.9-9.3c0.3-2,2.3-5.2,4.8-5.9
			c0.5-0.1,1-0.1,1.5,0.1c1.3,0,2.8,0.8,4.3,2.1c1.9,1.7,2.8,3.3,3.3,5.6c0.2,1.1,0.4,1.5,0.8,1.9c0.4,0.4,0.8,0.8,1.2,1.1
			c0.4,0.3,0.7,0.7,1.1,1c1.2,1.2,1.4,2.1,1.4,3.4c0,0.2,0,0.3,0,0.6c0,0.9,1.3,2,2.3,2.9l0.5,0.5c0.4,0.3,0.8,0.5,1.5,0.8
			c0.5,0.2,1.2,0.4,1.8,0.8c2.6,1.4,3.6,3.7,4.5,5.8c0,0.1,0.1,0.1,0.1,0.2c0.1,0,0.3,0,0.5,0c0.3,0,0.5,0,0.8-0.1
			c1.3-0.1,3-0.3,4.8,0.5c1.9,0.9,3.4,2.5,4.6,3.8l0.3,0.4c1.7,1.8,2,4.6,0.8,7.3C40,58.3,37.6,60,35.1,60z M6,21.9
			c-0.4,0.5-0.9,1.3-1,1.8c-0.3,1.8,0.2,3.9,1.5,6.5c1.4,2.8,3.2,5.4,5.4,7.9c0.6,0.7,1.1,1.5,1.5,2.2c0.4,0.6,0.7,1.1,1.1,1.6
			c0.4,0.5,1,1,1.5,1.6c0.3,0.3,0.6,0.6,0.9,0.8l0.3,0.3c2.8,2.8,5.4,5.4,8.8,7c0.8,0.4,1.7,0.8,2.6,1.1c0.7,0.3,1.3,0.6,2,0.8
			c0.5,0.2,1,0.5,1.5,0.7c1.1,0.6,2.2,1.1,3.1,1.2c0.8,0.1,1.7-0.7,2.2-1.8c0.3-0.7,0.5-1.7,0-2.2l-0.4-0.4c-1-1.1-2.1-2.2-3.2-2.8
			c-0.6-0.3-1.2-0.2-2.4-0.1c-0.3,0-0.6,0.1-0.9,0.1c-1.7,0.1-4.1,0-5.2-3.1c-0.7-1.8-1.2-2.8-2.4-3.5c-0.4-0.2-0.7-0.3-1.2-0.5
			c-0.9-0.3-2-0.7-3.1-1.7l-0.5-0.4c-1.5-1.4-3.6-3.3-3.8-6c0-0.4,0-0.7,0-0.9c0,0,0,0,0,0c-0.3-0.3-0.6-0.6-1-0.9
			c-0.5-0.4-0.9-0.9-1.4-1.3c-1.3-1.4-1.7-2.6-2-4.2c-0.3-1.4-0.7-2.1-1.9-3.2c-0.5-0.5-1-0.7-1.2-0.8c0,0,0,0,0,0
			C6.5,21.8,6.2,21.9,6,21.9z"/>
	</g>
	<g>
		<ellipse transform="matrix(0.7071 -0.7071 0.7071 0.7071 -13.003 33.4152)" class="st2" cx="33.8" cy="32.4" rx="4.7" ry="4.7"/>
	</g>
	<g>
		<ellipse transform="matrix(0.7071 -0.7071 0.7071 0.7071 -11.0253 22.2042)" class="st2" cx="21.3" cy="24.4" rx="4" ry="4"/>
	</g>
	<g>
		<ellipse transform="matrix(0.7071 -0.7071 0.7071 0.7071 0.1295 34.7117)" class="st2" cx="42" cy="17.2" rx="2.7" ry="2.7"/>
	</g>
</g>
</svg>
