<?xml version="1.0" encoding="utf-8"?>
<!-- Generator: Adobe Illustrator 19.2.1, SVG Export Plug-In . SVG Version: 6.00 Build 0)  -->
<svg version="1.1" id="Layer_1" xmlns="http://www.w3.org/2000/svg" xmlns:xlink="http://www.w3.org/1999/xlink" x="0px" y="0px"
	 viewBox="0 0 60 60" style="enable-background:new 0 0 60 60;" xml:space="preserve">
<style type="text/css">
	.st0{fill:#D2D3D4;}
	.st1{fill:#231F20;}
	.st2{fill:#FFFFFF;}
</style>
<g>
	<g>
		<path class="st0" d="M29.6,26.7c0,0-17.4-3.8-13.2-24.6c0,0,16.9,3.4,16.9,15.1c0,0,3.9-9.1,9.7-8.7c0,0,5.4,7.9-7,18.1"/>
		<path class="st1" d="M29.6,28.8c-0.1,0-0.3,0-0.5,0c-0.2,0-19.4-4.5-14.9-27c0.1-0.6,0.4-1,0.9-1.4c0.5-0.3,1-0.4,1.6-0.3
			c0.6,0.1,13.3,2.8,17.4,11.5c2-2.7,5-5.4,9-5.1c0.7,0,1.2,0.4,1.6,0.9c0.3,0.4,6.4,9.7-7.4,21c-0.9,0.7-2.2,0.6-3-0.3
			c-0.7-0.9-0.6-2.2,0.3-3c8.2-6.7,7.8-12.1,7.1-14.2c-3.1,0.8-5.7,5.5-6.5,7.3c-0.4,0.9-1.4,1.4-2.4,1.2c-1-0.2-1.7-1.1-1.7-2.1
			c0-7.6-8.9-11.2-13.1-12.5c-2.1,16.5,11.4,19.7,12,19.8c1.1,0.3,1.9,1.4,1.6,2.5C31.5,28.1,30.6,28.8,29.6,28.8z"/>
	</g>
	<g>
		<polygon class="st2" points="48.2,57.9 11.8,57.9 7.3,25.9 52.7,25.9 		"/>
		<path class="st1" d="M48.2,60H11.8c-1.1,0-2-0.8-2.1-1.8l-4.5-32c-0.1-0.6,0.1-1.2,0.5-1.7c0.4-0.5,1-0.7,1.6-0.7h45.4
			c0.6,0,1.2,0.3,1.6,0.7c0.4,0.5,0.6,1.1,0.5,1.7l-4.5,32C50.1,59.2,49.2,60,48.2,60z M13.7,55.8h32.6L50.2,28H9.8L13.7,55.8z"/>
	</g>
</g>
</svg>
