<?xml version="1.0" encoding="utf-8"?>
<!-- Generator: Adobe Illustrator 19.2.1, SVG Export Plug-In . SVG Version: 6.00 Build 0)  -->
<svg version="1.1" id="Layer_1" xmlns="http://www.w3.org/2000/svg" xmlns:xlink="http://www.w3.org/1999/xlink" x="0px" y="0px"
	 viewBox="0 0 60 60" style="enable-background:new 0 0 60 60;" xml:space="preserve">
<style type="text/css">
	.st0{fill:#D2D3D4;}
	.st1{fill:#231F20;}
	.st2{fill:#FFFFFF;}
</style>
<g>
	<g>
		<polygon class="st0" points="15.6,35.9 15.6,52.9 42.5,23.1 		"/>
		<path class="st1" d="M15.6,55c-0.3,0-0.5,0-0.7-0.1c-0.8-0.3-1.3-1.1-1.3-1.9v-17c0-0.8,0.5-1.5,1.2-1.9l27-12.8
			c0.9-0.4,2-0.2,2.6,0.6c0.6,0.8,0.5,1.9-0.1,2.6l-27,29.8C16.7,54.8,16.1,55,15.6,55z M17.6,37.2v10.3L34,29.5L17.6,37.2z"/>
	</g>
	<g>
		<polygon class="st2" points="19.1,38.6 57.9,6.8 40.2,53.6 		"/>
		<path class="st1" d="M40.2,55.7c-0.4,0-0.8-0.1-1.2-0.4L17.9,40.3c-0.5-0.4-0.8-1-0.9-1.6c0-0.6,0.3-1.3,0.8-1.7L56.6,5.2
			c0.7-0.6,1.8-0.6,2.5-0.1c0.8,0.5,1.1,1.5,0.7,2.4L42.1,54.4c-0.2,0.6-0.7,1.1-1.3,1.3C40.6,55.7,40.4,55.7,40.2,55.7z M22.5,38.5
			l16.7,11.9l14-37.1L22.5,38.5z"/>
	</g>
	<g>
		<polygon class="st2" points="2.1,26.3 19.1,38.4 57.9,6.4 		"/>
		<path class="st1" d="M19.1,40.5c-0.4,0-0.8-0.1-1.2-0.4L0.9,28c-0.6-0.4-1-1.2-0.8-2c0.1-0.8,0.6-1.4,1.4-1.7L57.2,4.4
			c0.9-0.3,2,0.1,2.5,0.9c0.5,0.9,0.3,2-0.5,2.6L20.4,40C20,40.3,19.5,40.5,19.1,40.5z M6.5,26.9L19,35.8l28.5-23.5L6.5,26.9z"/>
	</g>
</g>
</svg>
