<?xml version="1.0" encoding="utf-8"?>
<!-- Generator: Adobe Illustrator 19.2.1, SVG Export Plug-In . SVG Version: 6.00 Build 0)  -->
<svg version="1.1" id="Layer_1" xmlns="http://www.w3.org/2000/svg" xmlns:xlink="http://www.w3.org/1999/xlink" x="0px" y="0px"
	 viewBox="0 0 60 60" style="enable-background:new 0 0 60 60;" xml:space="preserve">
<style type="text/css">
	.st0{fill:#D1D2D3;}
	.st1{fill:#231F20;}
	.st2{fill:#FFFFFF;}
</style>
<g>
	<g>
		<rect x="17.6" y="25" class="st0" width="8" height="33.6"/>
	</g>
	<g>
		<rect x="34" y="25" class="st0" width="8" height="33.6"/>
	</g>
	<g>
		<path class="st1" d="M48.4,60H10.8c-0.7,0-1.4-0.6-1.4-1.3L6.3,25.2c0-0.4,0.1-0.8,0.4-1.1c0.3-0.3,0.7-0.5,1.1-0.5h43.7
			c0.4,0,0.8,0.2,1.1,0.5c0.3,0.3,0.4,0.7,0.4,1.1l-3.1,33.5C49.7,59.4,49.1,60,48.4,60z M12.1,57.1h35l2.8-30.6H9.3L12.1,57.1z"/>
	</g>
	<g>
		<path class="st2" d="M49,15.8c-1-2.2-3.2-3.7-5.7-3.8c0-0.3,0.1-0.6,0.1-1c0-3.6-2.9-6.5-6.5-6.5c-0.6,0-1.1,0.1-1.6,0.2
			c-1.7-2-4.3-3.3-7.2-3.3c-4.4,0-8.1,3-9.2,7.2C18,8.2,17,8,16.1,8c-3.6,0-6.5,2.9-6.5,6.5c0,0.2,0,0.3,0,0.5
			c-2.4,1-4.1,3.3-4.1,6.1c0,3.6,2.9,6.5,6.5,6.5c2.1,0,4-1.1,5.2-2.7c1,2.3,3.3,3.9,6,3.9c2.9,0,5.4-2,6.2-4.6
			c0.8,2.7,3.3,4.6,6.2,4.6c2.7,0,5-1.6,6-3.9c0.2,0,0.4,0.1,0.5,0.1c1,2.3,3.3,3.8,5.9,3.8c3.6,0,6.5-2.9,6.5-6.5
			C54.6,19,52.1,16.3,49,15.8z"/>
		<path class="st1" d="M48,30.3c-2.4,0-4.7-1.1-6.2-3c-1.5,1.9-3.8,3-6.2,3c-2.5,0-4.7-1.1-6.2-3c-1.5,1.9-3.7,3-6.2,3
			c-2.5,0-4.7-1.1-6.2-3c-1.4,1.1-3.1,1.8-5,1.8c-4.4,0-8-3.6-8-8c0-2.9,1.6-5.6,4.1-7c0.2-4.2,3.7-7.5,8-7.5c0.6,0,1.2,0.1,1.8,0.2
			C19.6,2.7,23.5,0,28,0c2.9,0,5.7,1.2,7.7,3.2c0.4-0.1,0.8-0.1,1.1-0.1c4.3,0,7.8,3.4,8,7.7c2.2,0.5,4,1.8,5.2,3.8
			c3.5,0.9,6.1,4.1,6.1,7.7C56,26.7,52.4,30.3,48,30.3z M41.6,23.5c0.1,0,0.2,0,0.3,0c0.1,0,0.2,0,0.3,0l0.1,0
			c0.5,0.1,0.9,0.4,1.1,0.8c0.8,1.8,2.6,3,4.6,3c2.8,0,5.1-2.3,5.1-5.1c0-2.5-1.9-4.6-4.3-5c-0.5-0.1-0.9-0.4-1.1-0.8
			c-0.8-1.8-2.5-2.9-4.5-3c-0.4,0-0.8-0.2-1.1-0.5c-0.3-0.3-0.4-0.7-0.3-1.1l0-0.1c0-0.3,0.1-0.5,0.1-0.7c0-2.8-2.3-5.1-5.1-5.1
			c-0.4,0-0.8,0.1-1.3,0.2c-0.5,0.1-1.1,0-1.5-0.5c-1.5-1.8-3.8-2.8-6.1-2.8c-3.7,0-6.9,2.5-7.8,6.1c-0.1,0.4-0.4,0.8-0.8,0.9
			c-0.4,0.2-0.8,0.2-1.2,0c-0.7-0.3-1.4-0.5-2.1-0.5c-2.8,0-5.1,2.3-5.1,5.1c0,0,0,0.1,0,0.1c0,0.1,0,0.2,0,0.3
			c0,0.6-0.3,1.2-0.9,1.4c-2,0.8-3.2,2.6-3.2,4.7c0,2.8,2.3,5.1,5.1,5.1c1.6,0,3.1-0.8,4.1-2.1c0.3-0.4,0.8-0.6,1.3-0.6
			c0.5,0.1,0.9,0.4,1.2,0.8c0.8,1.8,2.6,3,4.7,3c2.2,0,4.2-1.5,4.8-3.6c0.2-0.6,0.7-1,1.4-1l0,0c0.6,0,1.2,0.4,1.4,1
			c0.7,2.2,2.6,3.6,4.8,3.6c2,0,3.8-1.2,4.7-3.1C40.5,23.8,41,23.5,41.6,23.5z"/>
	</g>
	<g>
		<path class="st2" d="M30.8,15c0,0,5.1-3.6,6.5,1.5"/>
		<path class="st1" d="M37.2,17.9c-0.6,0-1.2-0.4-1.4-1.1c-0.2-0.9-0.6-1.4-1.1-1.5c-1-0.3-2.6,0.4-3.2,0.9c-0.7,0.4-1.5,0.3-2-0.4
			c-0.5-0.7-0.3-1.5,0.4-2c0.3-0.2,3.2-2.2,5.8-1.2c1,0.4,2.2,1.2,2.9,3.5c0.2,0.8-0.2,1.6-1,1.8C37.5,17.9,37.4,17.9,37.2,17.9z"/>
	</g>
</g>
</svg>
