<?xml version="1.0" encoding="utf-8"?>
<!-- Generator: Adobe Illustrator 19.2.1, SVG Export Plug-In . SVG Version: 6.00 Build 0)  -->
<svg version="1.1" id="Layer_1" xmlns="http://www.w3.org/2000/svg" xmlns:xlink="http://www.w3.org/1999/xlink" x="0px" y="0px"
	 viewBox="0 0 60 60" style="enable-background:new 0 0 60 60;" xml:space="preserve">
<style type="text/css">
	.st0{fill:#D1D2D3;}
	.st1{fill:#231F20;}
	.st2{fill:#FFFFFF;}
</style>
<g>
	<g>
		<rect x="12.2" y="6.2" class="st0" width="36.4" height="20.9"/>
		<path class="st1" d="M48.5,28.5H12.2c-0.8,0-1.4-0.6-1.4-1.4V6.2c0-0.8,0.6-1.4,1.4-1.4h36.4c0.8,0,1.4,0.6,1.4,1.4v20.9
			C49.9,27.9,49.3,28.5,48.5,28.5z M13.5,25.8h33.7V7.6H13.5V25.8z"/>
	</g>
	<g>
		<path class="st2" d="M58.6,33.2c0,4.2-3.4,7.5-7.5,7.5H8.9c-4.1,0-7.5-3.4-7.5-7.5v-9.8c0-4.1,3.4-7.5,7.5-7.5h42.3
			c4.1,0,7.5,3.4,7.5,7.5V33.2z"/>
		<path class="st1" d="M51.1,42H8.9C4,42,0,38.1,0,33.2v-9.8c0-4.9,4-8.9,8.9-8.9h42.3c4.9,0,8.9,4,8.9,8.9v9.8
			C60,38.1,56,42,51.1,42z M8.9,17.2c-3.4,0-6.2,2.8-6.2,6.2v9.8c0,3.4,2.8,6.2,6.2,6.2h42.3c3.4,0,6.2-2.8,6.2-6.2v-9.8
			c0-3.4-2.8-6.2-6.2-6.2H8.9z"/>
	</g>
	<g>
		<rect x="12.2" y="32.8" class="st0" width="36.4" height="20.9"/>
		<path class="st1" d="M48.5,55.1H12.2c-0.8,0-1.4-0.6-1.4-1.4V32.8c0-0.8,0.6-1.4,1.4-1.4h36.4c0.8,0,1.4,0.6,1.4,1.4v20.9
			C49.9,54.5,49.3,55.1,48.5,55.1z M13.5,52.4h33.7V34.2H13.5V52.4z"/>
	</g>
	<g>
		<path class="st0" d="M17.2,23.2c0,1.5-1.2,2.6-2.6,2.6H13c-1.5,0-2.6-1.2-2.6-2.6l0,0c0-1.5,1.2-2.6,2.6-2.6h1.6
			C16,20.6,17.2,21.7,17.2,23.2L17.2,23.2z"/>
	</g>
</g>
</svg>
