<?xml version="1.0" encoding="utf-8"?>
<!-- Generator: Adobe Illustrator 19.2.1, SVG Export Plug-In . SVG Version: 6.00 Build 0)  -->
<svg version="1.1" id="Layer_1" xmlns="http://www.w3.org/2000/svg" xmlns:xlink="http://www.w3.org/1999/xlink" x="0px" y="0px"
	 viewBox="0 0 60 60" style="enable-background:new 0 0 60 60;" xml:space="preserve">
<style type="text/css">
	.st0{fill:#FFFFFF;}
	.st1{fill:#231F20;}
	.st2{fill:#D2D3D4;}
</style>
<g>
	<g>
		<rect x="2.1" y="22.2" class="st0" width="55.8" height="30.4"/>
		<path class="st1" d="M57.9,54.7H2.1c-1.2,0-2.1-0.9-2.1-2.1V22.2C0,21,0.9,20,2.1,20h55.8c1.2,0,2.1,0.9,2.1,2.1v30.4
			C60,53.7,59.1,54.7,57.9,54.7z M4.2,50.4h51.5V24.3H4.2V50.4z"/>
	</g>
	<g>
		<line class="st0" x1="20.5" y1="7.5" x2="53.8" y2="22.2"/>
		<path class="st1" d="M53.8,24.3c-0.3,0-0.6-0.1-0.9-0.2L19.7,9.4c-1.1-0.5-1.6-1.7-1.1-2.8c0.5-1.1,1.7-1.6,2.8-1.1l33.3,14.7
			c1.1,0.5,1.6,1.7,1.1,2.8C55.4,23.8,54.7,24.3,53.8,24.3z"/>
	</g>
	<g>
		<circle class="st2" cx="16.1" cy="36.7" r="5.5"/>
		<path class="st1" d="M16.1,44.4c-4.2,0-7.6-3.4-7.6-7.6c0-4.2,3.4-7.6,7.6-7.6s7.6,3.4,7.6,7.6C23.7,40.9,20.3,44.4,16.1,44.4z
			 M16.1,33.4c-1.9,0-3.4,1.5-3.4,3.4c0,1.9,1.5,3.4,3.4,3.4s3.4-1.5,3.4-3.4C19.5,34.9,18,33.4,16.1,33.4z"/>
	</g>
	<g>
		<circle class="st2" cx="42.5" cy="36.7" r="5.5"/>
		<path class="st1" d="M42.5,44.4c-4.2,0-7.6-3.4-7.6-7.6c0-4.2,3.4-7.6,7.6-7.6c4.2,0,7.6,3.4,7.6,7.6
			C50.1,40.9,46.7,44.4,42.5,44.4z M42.5,33.4c-1.9,0-3.4,1.5-3.4,3.4c0,1.9,1.5,3.4,3.4,3.4c1.9,0,3.4-1.5,3.4-3.4
			C45.9,34.9,44.3,33.4,42.5,33.4z"/>
	</g>
	<g>
		<line class="st2" x1="27.1" y1="31.3" x2="31.1" y2="31.3"/>
		<path class="st1" d="M31.1,33.4h-4c-1.2,0-2.1-0.9-2.1-2.1c0-1.2,0.9-2.1,2.1-2.1h4c1.2,0,2.1,0.9,2.1,2.1
			C33.2,32.4,32.3,33.4,31.1,33.4z"/>
	</g>
</g>
</svg>
