<?xml version="1.0" encoding="utf-8"?>
<!-- Generator: Adobe Illustrator 16.0.0, SVG Export Plug-In . SVG Version: 6.00 Build 0)  -->
<!DOCTYPE svg PUBLIC "-//W3C//DTD SVG 1.1//EN" "http://www.w3.org/Graphics/SVG/1.1/DTD/svg11.dtd">
<svg version="1.1" id="Layer_1" xmlns="http://www.w3.org/2000/svg" xmlns:xlink="http://www.w3.org/1999/xlink" x="0px" y="0px"
	 width="60px" height="60px" viewBox="0 0 60 60" enable-background="new 0 0 60 60" xml:space="preserve">
<g>
	<g>
		<path fill="#D2D3D4" d="M345.988,1589.729c-2.106,2.105-5.522,2.106-7.629,0l-7.63-7.63c-2.106-2.106-2.106-5.523,0-7.629
			l2.861-2.862c2.106-2.105,5.522-2.105,7.629,0l7.63,7.63c2.106,2.107,2.106,5.523,0,7.629L345.988,1589.729z"/>
		<path fill="#231F20" d="M342.174,1593.308c-1.976,0-3.832-0.769-5.229-2.165l-7.63-7.63c-1.396-1.396-2.166-3.253-2.166-5.229
			s0.77-3.833,2.166-5.229l2.861-2.862c1.396-1.396,3.254-2.165,5.229-2.165s3.832,0.769,5.229,2.165l7.63,7.63
			c2.884,2.885,2.883,7.575,0,10.457l-2.861,2.862C346.006,1592.539,344.148,1593.308,342.174,1593.308z M337.405,1572.028
			c-0.907,0-1.76,0.353-2.4,0.993l-2.861,2.862c-0.641,0.641-0.994,1.493-0.994,2.4c0,0.906,0.354,1.759,0.994,2.4l7.63,7.63
			c1.281,1.281,3.518,1.283,4.801,0l2.861-2.862c1.323-1.323,1.323-3.477,0-4.801l-7.63-7.63
			C339.165,1572.381,338.313,1572.028,337.405,1572.028z"/>
	</g>
	<g>
		<path fill="#D2D3D4" d="M297.59,1589.729c2.106,2.105,5.522,2.106,7.629,0l7.63-7.63c2.106-2.106,2.106-5.523,0-7.629
			l-2.861-2.862c-2.106-2.105-5.522-2.105-7.629,0l-7.63,7.63c-2.106,2.107-2.106,5.523,0,7.629L297.59,1589.729z"/>
		<path fill="#231F20" d="M301.405,1593.308C301.404,1593.308,301.404,1593.308,301.405,1593.308c-1.976,0-3.833-0.769-5.229-2.165
			l-2.861-2.862c-2.883-2.882-2.883-7.572,0-10.457l7.63-7.63c1.396-1.396,3.253-2.165,5.229-2.165s3.832,0.769,5.229,2.165
			l2.862,2.862c1.396,1.396,2.164,3.253,2.164,5.229s-0.769,3.832-2.165,5.229l-7.63,7.63
			C305.236,1592.539,303.38,1593.308,301.405,1593.308z M306.173,1572.028c-0.907,0-1.759,0.353-2.4,0.993l-7.63,7.63
			c-1.323,1.324-1.323,3.478,0,4.801l2.861,2.862c0.641,0.641,1.494,0.993,2.4,0.993h0.001c0.906,0,1.759-0.353,2.399-0.993
			l7.63-7.63c0.642-0.642,0.993-1.494,0.993-2.4c0-0.907-0.352-1.76-0.993-2.4l-2.862-2.862
			C307.932,1572.381,307.08,1572.028,306.173,1572.028z"/>
	</g>
	<g>
		<circle fill="#FFFFFF" cx="322.108" cy="1600.892" r="22.892"/>
		<path fill="#231F20" d="M322.108,1625.783c-13.726,0-24.892-11.166-24.892-24.892S308.383,1576,322.108,1576
			S347,1587.166,347,1600.892S335.834,1625.783,322.108,1625.783z M322.108,1580c-11.52,0-20.892,9.372-20.892,20.892
			s9.372,20.892,20.892,20.892S343,1612.411,343,1600.892S333.628,1580,322.108,1580z"/>
	</g>
	<g>
		<path fill="#231F20" d="M299.215,1629.5c-0.416,0-0.834-0.129-1.193-0.396c-0.886-0.66-1.068-1.914-0.408-2.799l7.327-9.826
			c0.661-0.885,1.915-1.067,2.799-0.408c0.886,0.66,1.068,1.914,0.408,2.799l-7.327,9.826
			C300.428,1629.222,299.825,1629.5,299.215,1629.5z"/>
	</g>
	<g>
		<path fill="#231F20" d="M345.546,1629.5c-0.61,0-1.213-0.278-1.605-0.805l-7.327-9.826c-0.66-0.885-0.478-2.139,0.408-2.799
			c0.886-0.661,2.14-0.477,2.799,0.408l7.327,9.826c0.66,0.885,0.478,2.139-0.408,2.799
			C346.381,1629.371,345.961,1629.5,345.546,1629.5z"/>
	</g>
	<g>
		<polyline fill="#FFFFFF" points="322.108,1585.25 322.108,1600.892 331.858,1610.642 		"/>
		<path fill="#231F20" d="M331.858,1612.642c-0.512,0-1.023-0.195-1.414-0.586l-9.75-9.75c-0.375-0.375-0.586-0.884-0.586-1.414
			v-15.642c0-1.104,0.896-2,2-2s2,0.896,2,2v14.813l9.164,9.164c0.781,0.781,0.781,2.047,0,2.828
			C332.882,1612.446,332.37,1612.642,331.858,1612.642z"/>
	</g>
</g>
<g>
	<g>
		<path fill="#D2D3D4" d="M44.412,21.119c-1.293,0-2.508,0.325-3.576,0.892c0.002-0.094,0.014-0.187,0.014-0.281
			c0-4.723-3.83-8.553-8.553-8.553c-1.942,0-3.727,0.655-5.163,1.746c-0.715-1.054-1.921-1.746-3.289-1.746
			c-2.193,0-3.971,1.778-3.971,3.972c0,2.168,1.741,3.925,3.9,3.963c-0.009,0.126-0.015,0.253-0.019,0.38
			c-0.639-0.237-1.327-0.372-2.048-0.372c-2.238,0-4.184,1.245-5.186,3.079c-0.964-0.898-2.252-1.45-3.673-1.45
			c-2.98,0-5.396,2.415-5.396,5.396c0,2.981,2.416,5.397,5.396,5.397c1.91,0,3.585-0.995,4.544-2.493
			c1.078,1.155,2.609,1.883,4.314,1.883c0.627,0,1.231-0.1,1.798-0.281c0.517,4.399,4.253,7.815,8.792,7.815
			c3.6,0,6.693-2.152,8.078-5.236c1.172,0.733,2.553,1.163,4.037,1.163c4.219,0,7.637-3.419,7.637-7.637
			C52.049,24.538,48.631,21.119,44.412,21.119z"/>
		<path fill="#231F20" d="M32.297,42.404c-4.781,0-8.902-3.128-10.292-7.541c-1.545,0.063-3.077-0.352-4.383-1.15
			c-1.311,1.129-2.992,1.768-4.773,1.768c-4.045,0-7.336-3.291-7.336-7.337c0-4.044,3.291-7.334,7.336-7.334
			c1.132,0,2.233,0.26,3.229,0.75c0.717-0.738,1.571-1.326,2.509-1.733c-0.416-0.806-0.651-1.717-0.651-2.679
			c0-3.259,2.651-5.911,5.91-5.911c1.311,0,2.563,0.434,3.578,1.206c1.497-0.793,3.154-1.206,4.874-1.206
			c4.973,0,9.15,3.479,10.225,8.133c0.621-0.126,1.256-0.19,1.891-0.19c5.281,0,9.576,4.295,9.576,9.575
			c0,5.281-4.295,9.577-9.576,9.577c-1.111,0-2.211-0.195-3.248-0.573C39.168,40.631,35.865,42.404,32.297,42.404z M23.505,30.709
			c0.368,0,0.733,0.105,1.05,0.309c0.487,0.313,0.809,0.829,0.876,1.404c0.409,3.479,3.361,6.104,6.866,6.104
			c2.717,0,5.193-1.606,6.309-4.093c0.23-0.511,0.67-0.898,1.205-1.062c0.539-0.161,1.117-0.085,1.594,0.213
			c0.906,0.567,1.947,0.868,3.008,0.868c3.143,0,5.699-2.557,5.699-5.699c0-3.142-2.557-5.697-5.699-5.697
			c-0.939,0-1.836,0.224-2.668,0.666c-0.611,0.325-1.35,0.3-1.938-0.069c-0.588-0.368-0.934-1.02-0.908-1.712l0.01-0.18
			c0.002-3.68-2.965-6.647-6.611-6.647c-1.447,0-2.827,0.467-3.99,1.351c-0.424,0.322-0.96,0.456-1.487,0.37
			c-0.525-0.086-0.992-0.385-1.291-0.826c-0.38-0.561-1.009-0.895-1.684-0.895c-1.121,0-2.032,0.912-2.032,2.033
			c0,1.097,0.895,2.004,1.996,2.024c0.53,0.009,1.034,0.237,1.393,0.628c0.359,0.391,0.542,0.913,0.506,1.442
			c-0.007,0.102-0.012,0.205-0.016,0.307c-0.019,0.624-0.336,1.202-0.854,1.55c-0.517,0.349-1.171,0.428-1.758,0.21
			c-1.862-0.69-3.938,0.135-4.858,1.819c-0.287,0.525-0.801,0.889-1.392,0.984c-0.587,0.093-1.193-0.088-1.631-0.495
			c-0.644-0.599-1.479-0.93-2.352-0.93c-1.906,0-3.458,1.551-3.458,3.457c0,1.907,1.551,3.458,3.458,3.458
			c1.182,0,2.27-0.599,2.912-1.599c0.323-0.505,0.86-0.832,1.457-0.886c0.595-0.049,1.185,0.171,1.593,0.609
			c1.044,1.119,2.659,1.54,4.103,1.077C23.106,30.74,23.306,30.709,23.505,30.709z"/>
	</g>
	<g>
		<line fill="#D2D3D4" x1="8.56" y1="3.229" x2="16.134" y2="37.647"/>
		<path fill="#231F20" d="M16.132,39.586c-0.891,0-1.692-0.616-1.892-1.522L6.667,3.646c-0.23-1.046,0.431-2.08,1.477-2.311
			c1.043-0.232,2.08,0.431,2.31,1.477l7.574,34.418c0.23,1.047-0.431,2.08-1.477,2.311C16.411,39.572,16.271,39.586,16.132,39.586z"
			/>
	</g>
	<g>
		<line fill="#D2D3D4" x1="15.398" y1="1.939" x2="18.993" y2="36.997"/>
		<path fill="#231F20" d="M18.99,38.936c-0.982,0-1.824-0.743-1.927-1.741L13.469,2.137C13.36,1.072,14.135,0.12,15.2,0.011
			c1.067-0.112,2.017,0.666,2.127,1.73l3.594,35.058c0.109,1.065-0.666,2.018-1.731,2.127C19.123,38.933,19.057,38.936,18.99,38.936
			z"/>
	</g>
	<g>
		<path fill="#FFFFFF" d="M56.736,29.931c0,14.766-11.969,26.737-26.736,26.737c-14.766,0-26.737-11.971-26.737-26.737H56.736z"/>
		<path fill="#231F20" d="M30,58.606c-15.812,0-28.676-12.863-28.676-28.675c0-1.071,0.868-1.939,1.939-1.939h53.473
			c1.07,0,1.939,0.868,1.939,1.939C58.676,45.743,45.813,58.606,30,58.606z M5.278,31.871C6.271,44.642,16.979,54.729,30,54.729
			s23.728-10.087,24.72-22.857H5.278z"/>
	</g>
	<g>
		<rect x="11.861" y="52.015" fill="#FFFFFF" width="36.277" height="6.047"/>
		<path fill="#231F20" d="M48.139,60H11.861c-1.071,0-1.939-0.868-1.939-1.938v-6.047c0-1.07,0.868-1.938,1.939-1.938h36.277
			c1.072,0,1.939,0.868,1.939,1.938v6.047C50.078,59.132,49.211,60,48.139,60z M13.8,56.122h32.401v-2.168H13.8V56.122z"/>
	</g>
</g>
</svg>
