<?xml version="1.0" encoding="utf-8"?>
<!-- Generator: Adobe Illustrator 19.2.1, SVG Export Plug-In . SVG Version: 6.00 Build 0)  -->
<svg version="1.1" id="Layer_1" xmlns="http://www.w3.org/2000/svg" xmlns:xlink="http://www.w3.org/1999/xlink" x="0px" y="0px"
	 viewBox="0 0 60 60" style="enable-background:new 0 0 60 60;" xml:space="preserve">
<style type="text/css">
	.st0{fill:#D2D3D4;}
	.st1{fill:#231F20;}
	.st2{fill:#FFFFFF;}
</style>
<g>
	<g>
		<rect x="3.3" y="21.7" class="st0" width="53.5" height="36.1"/>
		<path class="st1" d="M56.7,60H3.3c-1.2,0-2.2-1-2.2-2.2V21.7c0-1.2,1-2.2,2.2-2.2h53.5c1.2,0,2.2,1,2.2,2.2v36.1
			C58.9,59,57.9,60,56.7,60z M5.5,55.6h49.1V23.9H5.5V55.6z"/>
	</g>
	<g>
		<rect x="12.9" y="45.8" class="st2" width="33.5" height="12"/>
		<path class="st1" d="M46.4,60H12.9c-1.2,0-2.2-1-2.2-2.2v-12c0-1.2,1-2.2,2.2-2.2h33.5c1.2,0,2.2,1,2.2,2.2v12
			C48.5,59,47.6,60,46.4,60z M15.1,55.6h29.1V48H15.1V55.6z"/>
	</g>
	<g>
		<circle class="st2" cx="17.3" cy="34.5" r="4.4"/>
		<path class="st1" d="M17.3,41.1c-3.6,0-6.5-2.9-6.5-6.5s2.9-6.5,6.5-6.5s6.5,2.9,6.5,6.5S20.9,41.1,17.3,41.1z M17.3,32.4
			c-1.2,0-2.2,1-2.2,2.2c0,1.2,1,2.2,2.2,2.2s2.2-1,2.2-2.2C19.5,33.3,18.5,32.4,17.3,32.4z"/>
	</g>
	<g>
		<circle class="st2" cx="42.4" cy="34.5" r="4.4"/>
		<path class="st1" d="M42.4,41.1c-3.6,0-6.5-2.9-6.5-6.5s2.9-6.5,6.5-6.5s6.5,2.9,6.5,6.5S46,41.1,42.4,41.1z M42.4,32.4
			c-1.2,0-2.2,1-2.2,2.2c0,1.2,1,2.2,2.2,2.2s2.2-1,2.2-2.2C44.5,33.3,43.6,32.4,42.4,32.4z"/>
	</g>
	<g>
		<polygon class="st2" points="32.8,11.5 27.6,11.5 26.5,21.7 33.9,21.7 		"/>
		<path class="st1" d="M33.9,23.9h-7.4c-0.6,0-1.2-0.3-1.6-0.7c-0.4-0.5-0.6-1.1-0.5-1.7l1.1-10.2c0.1-1.1,1.1-2,2.2-2h5.2
			c1.1,0,2.1,0.8,2.2,2l1.1,10.2c0.1,0.6-0.1,1.2-0.5,1.7C35.1,23.6,34.5,23.9,33.9,23.9z M29,19.5h2.5l-0.6-5.9h-1.3L29,19.5z"/>
	</g>
	<g>
		<circle class="st2" cx="30.1" cy="7.9" r="5.7"/>
		<path class="st1" d="M30.1,15.8c-4.4,0-7.9-3.5-7.9-7.9S25.7,0,30.1,0S38,3.5,38,7.9S34.5,15.8,30.1,15.8z M30.1,4.4
			c-2,0-3.5,1.6-3.5,3.5s1.6,3.5,3.5,3.5s3.5-1.6,3.5-3.5S32,4.4,30.1,4.4z"/>
	</g>
</g>
</svg>
