<?xml version="1.0" encoding="utf-8"?>
<!-- Generator: Adobe Illustrator 16.0.0, SVG Export Plug-In . SVG Version: 6.00 Build 0)  -->
<!DOCTYPE svg PUBLIC "-//W3C//DTD SVG 1.1//EN" "http://www.w3.org/Graphics/SVG/1.1/DTD/svg11.dtd">
<svg version="1.1" id="Layer_1" xmlns="http://www.w3.org/2000/svg" xmlns:xlink="http://www.w3.org/1999/xlink" x="0px" y="0px"
	 width="60px" height="60px" viewBox="0 0 60 60" enable-background="new 0 0 60 60" xml:space="preserve">
<g>
	<g>
		<path fill="#FFFFFF" d="M14.754,32.08l13.334,13.334C60.554,25.204,57.761,2.41,57.761,2.41S34.696-0.113,14.754,32.08z"/>
		<path fill="#231F20" d="M28.089,47.586c-0.561,0-1.117-0.217-1.536-0.637L13.219,33.617c-0.713-0.713-0.841-1.822-0.311-2.679
			C30.58,2.408,50.784,0.191,56.556,0.191c0.874,0,1.386,0.053,1.44,0.06c1.002,0.109,1.798,0.894,1.92,1.895
			c0.121,0.987,2.579,24.407-30.68,45.112C28.882,47.479,28.484,47.586,28.089,47.586z M17.517,31.771l10.877,10.877
			C52.84,26.855,55.497,10.116,55.653,4.555C49.604,4.807,32.913,7.846,17.517,31.771z"/>
	</g>
	<g>
		<polygon fill="#D2D3D4" points="14.754,32.08 7.908,25.234 23.395,20.119 		"/>
		<path fill="#231F20" d="M14.754,34.252c-0.574,0-1.126-0.227-1.536-0.635L6.372,26.77c-0.533-0.532-0.752-1.304-0.577-2.037
			c0.174-0.734,0.716-1.324,1.431-1.561l15.487-5.115c0.896-0.293,1.877,0.02,2.434,0.779s0.56,1.791,0.008,2.554l-8.641,11.961
			c-0.372,0.518-0.953,0.844-1.587,0.895C14.87,34.25,14.812,34.252,14.754,34.252z M11.936,26.19l2.552,2.552l3.22-4.458
			L11.936,26.19z"/>
	</g>
	<g>
		<polygon fill="#D2D3D4" points="28.088,45.414 34.937,52.262 40.052,36.773 		"/>
		<path fill="#231F20" d="M34.937,54.434c-0.57,0-1.124-0.223-1.536-0.637l-6.848-6.848c-0.45-0.449-0.68-1.074-0.629-1.709
			s0.377-1.215,0.894-1.586l11.963-8.641c0.763-0.553,1.795-0.549,2.554,0.01c0.761,0.555,1.074,1.537,0.779,2.432l-5.115,15.488
			c-0.236,0.715-0.827,1.258-1.561,1.432C35.271,54.414,35.104,54.434,34.937,54.434z M31.427,45.682l2.553,2.553l1.906-5.773
			L31.427,45.682z"/>
	</g>
	<g>
		<circle fill="#D2D3D4" cx="39.111" cy="20.879" r="4.97"/>
		<path fill="#231F20" d="M39.11,28.02c-1.906,0-3.699-0.742-5.048-2.09c-2.784-2.787-2.784-7.316-0.002-10.1
			c1.351-1.349,3.144-2.091,5.05-2.091c1.908,0,3.701,0.742,5.05,2.091c2.783,2.784,2.783,7.313,0.001,10.099
			C42.812,27.277,41.019,28.02,39.11,28.02z M39.11,18.082c-0.747,0-1.449,0.291-1.979,0.819c-1.09,1.09-1.089,2.865,0.001,3.958
			c1.055,1.052,2.9,1.054,3.957-0.002c1.09-1.09,1.09-2.865,0-3.957C40.562,18.373,39.858,18.082,39.11,18.082z"/>
	</g>
	<g>
		<path fill="#D2D3D4" d="M17.668,50.43c-2.289,2.289-15.497,7.207-15.497,7.207S7.09,44.43,9.38,42.141
			c2.289-2.289,6-2.289,8.289,0C19.957,44.43,19.957,48.141,17.668,50.43z"/>
		<path fill="#231F20" d="M2.172,59.809c-0.566,0-1.121-0.221-1.536-0.637c-0.601-0.6-0.796-1.496-0.499-2.293
			c0.849-2.279,5.21-13.777,7.707-16.273c1.517-1.518,3.534-2.352,5.68-2.352c0,0,0,0,0,0c2.146-0.002,4.163,0.834,5.68,2.352
			c1.518,1.516,2.353,3.533,2.353,5.68s-0.835,4.162-2.353,5.68c-2.497,2.496-13.995,6.859-16.274,7.707
			C2.683,59.764,2.426,59.809,2.172,59.809z M13.524,42.598c-0.985,0-1.912,0.383-2.609,1.078c-0.914,0.914-2.98,5.365-4.922,10.141
			c4.774-1.941,9.226-4.01,10.14-4.922c0.697-0.697,1.081-1.623,1.081-2.609s-0.384-1.912-1.081-2.609
			C15.436,42.98,14.509,42.598,13.524,42.598z"/>
	</g>
</g>
</svg>
