<?xml version="1.0" encoding="utf-8"?>
<!-- Generator: Adobe Illustrator 19.2.1, SVG Export Plug-In . SVG Version: 6.00 Build 0)  -->
<svg version="1.1" id="Layer_1" xmlns="http://www.w3.org/2000/svg" xmlns:xlink="http://www.w3.org/1999/xlink" x="0px" y="0px"
	 viewBox="0 0 60 60" style="enable-background:new 0 0 60 60;" xml:space="preserve">
<style type="text/css">
	.st0{fill:#D2D3D4;}
	.st1{fill:#231F20;}
</style>
<g>
	<g>
		<rect x="10.8" y="24" transform="matrix(0.7071 -0.7071 0.7071 0.7071 -22.3967 25.8709)" class="st0" width="18.5" height="32"/>
	</g>
	<g>
		<path class="st1" d="M24.8,60c-0.5,0-1.1-0.2-1.5-0.6L0.6,36.7C0.2,36.3,0,35.8,0,35.2c0-0.6,0.2-1.1,0.6-1.5L33.7,0.6
			C34.1,0.2,34.6,0,35.2,0l22.2,0.4c1.2,0,2.1,1,2.1,2.1L60,24.8c0,0.6-0.2,1.1-0.6,1.6L26.3,59.4C25.9,59.8,25.3,60,24.8,60z
			 M5.2,35.2l19.6,19.6l30.9-30.9L55.3,4.7L36.1,4.3L5.2,35.2z"/>
	</g>
	<g>
		<path class="st1" d="M43.9,22.4c-1.7,0-3.4-0.6-4.7-1.9c-1.3-1.3-2-2.9-2-4.7c0-1.8,0.7-3.5,2-4.7c1.3-1.3,2.9-2,4.7-2
			c1.8,0,3.5,0.7,4.7,2c1.3,1.3,2,2.9,2,4.7c0,1.8-0.7,3.5-2,4.7v0C47.3,21.7,45.6,22.4,43.9,22.4z M47.1,18.9L47.1,18.9L47.1,18.9z
			 M43.9,13.3c-0.6,0-1.2,0.2-1.7,0.7c-0.9,0.9-0.9,2.4,0,3.4c0.9,0.9,2.4,0.9,3.4,0c0.9-0.9,0.9-2.4,0-3.4
			C45.1,13.6,44.5,13.3,43.9,13.3z"/>
	</g>
</g>
</svg>
