<?xml version="1.0" encoding="utf-8"?>
<!-- Generator: Adobe Illustrator 19.2.1, SVG Export Plug-In . SVG Version: 6.00 Build 0)  -->
<svg version="1.1" id="Layer_1" xmlns="http://www.w3.org/2000/svg" xmlns:xlink="http://www.w3.org/1999/xlink" x="0px" y="0px"
	 viewBox="0 0 60 60" style="enable-background:new 0 0 60 60;" xml:space="preserve">
<style type="text/css">
	.st0{fill:#FFFFFF;}
	.st1{fill:#231F20;}
	.st2{fill:#D2D3D4;}
</style>
<g>
	<g>
		<path class="st0" d="M57.1,49.3l-9-9c6-9.6,4.9-22.4-3.5-30.8C35-0.2,19.2-0.2,9.5,9.5c-9.7,9.7-9.7,25.5,0,35.2
			c8.4,8.4,21.2,9.5,30.8,3.5l9,9c0.8,0.8,2.2,0.8,3,0l4.9-4.9C58,51.4,58,50.1,57.1,49.3z"/>
		<path class="st1" d="M50.8,60c-1.2,0-2.3-0.5-3.1-1.3l-7.8-7.8c-10.5,5.7-23.4,3.8-32-4.7C-2.6,35.7-2.6,18.5,7.9,7.9
			c10.6-10.6,27.8-10.6,38.3,0c8.6,8.6,10.4,21.5,4.7,32l7.8,7.8c0.8,0.8,1.3,1.9,1.3,3.1s-0.5,2.3-1.3,3.1l-4.9,4.9
			C53,59.5,51.9,60,50.8,60z M40.3,45.9c0.6,0,1.1,0.2,1.6,0.7l8.9,8.9l4.7-4.7l-8.9-8.9c-0.7-0.7-0.9-1.9-0.3-2.8
			c5.6-9,4.3-20.5-3.2-28c-8.8-8.8-23.2-8.8-32,0c-8.8,8.8-8.8,23.2,0,32c7.5,7.5,19,8.8,28,3.2C39.4,46,39.9,45.9,40.3,45.9z
			 M55.6,50.8L55.6,50.8L55.6,50.8z"/>
	</g>
	<g>
		
			<ellipse transform="matrix(0.7071 -0.7071 0.7071 0.7071 -11.0934 26.7805)" class="st2" cx="26.8" cy="26.8" rx="13.6" ry="13.6"/>
		<path class="st1" d="M26.8,42.6c-4,0-8.1-1.5-11.2-4.6c-6.2-6.2-6.2-16.2,0-22.3c3-3,7-4.6,11.2-4.6s8.2,1.6,11.2,4.6
			c3,3,4.6,6.9,4.6,11.2S40.9,35,37.9,38l0,0C34.9,41,30.8,42.6,26.8,42.6z M26.8,15.4c-3,0-5.9,1.2-8,3.3c-4.4,4.4-4.4,11.6,0,16
			c4.4,4.4,11.6,4.4,16,0c2.1-2.1,3.3-5,3.3-8s-1.2-5.9-3.3-8C32.7,16.6,29.8,15.4,26.8,15.4z M36.4,36.4L36.4,36.4L36.4,36.4z"/>
	</g>
</g>
</svg>
