<?xml version="1.0" encoding="utf-8"?>
<!-- Generator: Adobe Illustrator 19.2.1, SVG Export Plug-In . SVG Version: 6.00 Build 0)  -->
<svg version="1.1" id="Layer_1" xmlns="http://www.w3.org/2000/svg" xmlns:xlink="http://www.w3.org/1999/xlink" x="0px" y="0px"
	 viewBox="0 0 60 60" style="enable-background:new 0 0 60 60;" xml:space="preserve">
<style type="text/css">
	.st0{fill:#FFFFFF;}
	.st1{fill:#231F20;}
	.st2{fill:#D2D3D4;}
</style>
<g>
	<g>
		<path class="st0" d="M55.8,9.2c0,0-12.1,7.9-25.6-6.3V2.4c-0.1,0.1-0.1,0.1-0.2,0.2c-0.1-0.1-0.1-0.1-0.2-0.2v0.4
			C16.3,17.1,4.2,9.2,4.2,9.2c0,42,22.3,47.7,25.6,48.4v0.1c0,0,0.1,0,0.2,0c0.1,0,0.2,0,0.2,0v-0.1C33.5,56.9,55.8,51.1,55.8,9.2z"
			/>
		<path class="st1" d="M29.8,60c-0.4,0-0.7-0.1-1-0.2C23.1,58.5,1.8,50.9,1.8,9.2c0-0.9,0.5-1.7,1.3-2.1c0.8-0.4,1.7-0.4,2.4,0.1
			c0.4,0.3,10.3,6.4,21.9-5.4c0.2-0.7,0.7-1.3,1.4-1.6C29.3,0,29.8,0,30.2,0c0,0,0,0,0,0c0.3,0,0.6,0.1,0.8,0.2
			c0.7,0.3,1.3,0.9,1.5,1.6c11.7,11.9,21.9,5.5,22,5.4c0.7-0.5,1.7-0.5,2.4-0.1c0.8,0.4,1.3,1.2,1.3,2.1c0,42-21.5,49.4-27,50.6
			C30.8,59.9,30.4,60,30,60C29.9,60,29.9,60,29.8,60z M6.7,12.8c0.5,15.3,4.1,26.9,10.9,34.5c5.3,6,10.9,7.5,12.4,7.9
			c3.2-0.7,22.1-6.3,23.3-42.4C48.5,14.3,39.5,15.1,30,6C20.5,15.1,11.5,14.3,6.7,12.8z"/>
	</g>
	<g>
		<polygon class="st2" points="32.4,13.8 22,33.6 29.9,33.6 25.6,46.3 38.3,28.9 30.1,28.9 		"/>
	</g>
</g>
</svg>
