<?xml version="1.0" encoding="utf-8"?>
<!-- Generator: Adobe Illustrator 16.0.0, SVG Export Plug-In . SVG Version: 6.00 Build 0)  -->
<!DOCTYPE svg PUBLIC "-//W3C//DTD SVG 1.1//EN" "http://www.w3.org/Graphics/SVG/1.1/DTD/svg11.dtd">
<svg version="1.1" id="Layer_1" xmlns="http://www.w3.org/2000/svg" xmlns:xlink="http://www.w3.org/1999/xlink" x="0px" y="0px"
	 width="60px" height="60px" viewBox="0 0 60 60" enable-background="new 0 0 60 60" xml:space="preserve">
<g>
	<g>
		<path fill="#D2D3D4" d="M345.988,1589.729c-2.106,2.105-5.522,2.106-7.629,0l-7.63-7.63c-2.106-2.106-2.106-5.523,0-7.629
			l2.861-2.862c2.106-2.105,5.522-2.105,7.629,0l7.63,7.63c2.106,2.107,2.106,5.523,0,7.629L345.988,1589.729z"/>
		<path fill="#231F20" d="M342.174,1593.308c-1.976,0-3.832-0.769-5.229-2.165l-7.63-7.63c-1.396-1.396-2.166-3.253-2.166-5.229
			s0.77-3.833,2.166-5.229l2.861-2.862c1.396-1.396,3.254-2.165,5.229-2.165s3.832,0.769,5.229,2.165l7.63,7.63
			c2.884,2.885,2.883,7.575,0,10.457l-2.861,2.862C346.006,1592.539,344.148,1593.308,342.174,1593.308z M337.405,1572.028
			c-0.907,0-1.76,0.353-2.4,0.993l-2.861,2.862c-0.641,0.641-0.994,1.493-0.994,2.4c0,0.906,0.354,1.759,0.994,2.4l7.63,7.63
			c1.281,1.281,3.518,1.283,4.801,0l2.861-2.862c1.323-1.323,1.323-3.477,0-4.801l-7.63-7.63
			C339.165,1572.381,338.313,1572.028,337.405,1572.028z"/>
	</g>
	<g>
		<path fill="#D2D3D4" d="M297.59,1589.729c2.106,2.105,5.522,2.106,7.629,0l7.63-7.63c2.106-2.106,2.106-5.523,0-7.629
			l-2.861-2.862c-2.106-2.105-5.522-2.105-7.629,0l-7.63,7.63c-2.106,2.107-2.106,5.523,0,7.629L297.59,1589.729z"/>
		<path fill="#231F20" d="M301.405,1593.308C301.404,1593.308,301.404,1593.308,301.405,1593.308c-1.976,0-3.833-0.769-5.229-2.165
			l-2.861-2.862c-2.883-2.882-2.883-7.572,0-10.457l7.63-7.63c1.396-1.396,3.253-2.165,5.229-2.165s3.832,0.769,5.229,2.165
			l2.862,2.862c1.396,1.396,2.164,3.253,2.164,5.229s-0.769,3.832-2.165,5.229l-7.63,7.63
			C305.236,1592.539,303.38,1593.308,301.405,1593.308z M306.173,1572.028c-0.907,0-1.759,0.353-2.4,0.993l-7.63,7.63
			c-1.323,1.324-1.323,3.478,0,4.801l2.861,2.862c0.641,0.641,1.494,0.993,2.4,0.993h0.001c0.906,0,1.759-0.353,2.399-0.993
			l7.63-7.63c0.642-0.642,0.993-1.494,0.993-2.4c0-0.907-0.352-1.76-0.993-2.4l-2.862-2.862
			C307.932,1572.381,307.08,1572.028,306.173,1572.028z"/>
	</g>
	<g>
		<circle fill="#FFFFFF" cx="322.108" cy="1600.892" r="22.892"/>
		<path fill="#231F20" d="M322.108,1625.783c-13.726,0-24.892-11.166-24.892-24.892S308.383,1576,322.108,1576
			S347,1587.166,347,1600.892S335.834,1625.783,322.108,1625.783z M322.108,1580c-11.52,0-20.892,9.372-20.892,20.892
			s9.372,20.892,20.892,20.892S343,1612.411,343,1600.892S333.628,1580,322.108,1580z"/>
	</g>
	<g>
		<path fill="#231F20" d="M299.215,1629.5c-0.416,0-0.834-0.129-1.193-0.396c-0.886-0.66-1.068-1.914-0.408-2.799l7.327-9.826
			c0.661-0.885,1.915-1.067,2.799-0.408c0.886,0.66,1.068,1.914,0.408,2.799l-7.327,9.826
			C300.428,1629.222,299.825,1629.5,299.215,1629.5z"/>
	</g>
	<g>
		<path fill="#231F20" d="M345.546,1629.5c-0.61,0-1.213-0.278-1.605-0.805l-7.327-9.826c-0.66-0.885-0.478-2.139,0.408-2.799
			c0.886-0.661,2.14-0.477,2.799,0.408l7.327,9.826c0.66,0.885,0.478,2.139-0.408,2.799
			C346.381,1629.371,345.961,1629.5,345.546,1629.5z"/>
	</g>
	<g>
		<polyline fill="#FFFFFF" points="322.108,1585.25 322.108,1600.892 331.858,1610.642 		"/>
		<path fill="#231F20" d="M331.858,1612.642c-0.512,0-1.023-0.195-1.414-0.586l-9.75-9.75c-0.375-0.375-0.586-0.884-0.586-1.414
			v-15.642c0-1.104,0.896-2,2-2s2,0.896,2,2v14.813l9.164,9.164c0.781,0.781,0.781,2.047,0,2.828
			C332.882,1612.446,332.37,1612.642,331.858,1612.642z"/>
	</g>
</g>
<g>
	<g>
		<path fill="#FFFFFF" d="M17.798,41.768c0,0-3.455,7.717-7.718,7.717c-4.262,0-7.718-3.455-7.718-7.717s10.365-8.602,10.365-8.602
			L17.798,41.768z"/>
		<path fill="#231F20" d="M10.08,51.25c-5.229,0-9.482-4.254-9.482-9.482c0-5.176,9.536-9.428,11.447-10.229
			c0.814-0.34,1.754-0.027,2.201,0.732l5.072,8.6c0.29,0.492,0.324,1.096,0.09,1.617C19.007,43.385,15.334,51.25,10.08,51.25z
			 M12.008,35.422c-4.027,1.912-7.882,4.695-7.882,6.346c0,3.283,2.671,5.953,5.954,5.953c2.084,0,4.516-3.553,5.718-5.873
			L12.008,35.422z"/>
	</g>
	<g>
		<path fill="#D2D3D4" d="M58.236,15.52v31.021l-38.82-0.59l-6.689-12.785c0,0,24.624-0.74,24.624-23.38h20.886V15.52z"/>
		<path fill="#231F20" d="M58.236,48.307c-0.009,0-0.019,0-0.027,0l-38.82-0.592c-0.647-0.01-1.236-0.373-1.537-0.945l-6.689-12.785
			c-0.282-0.539-0.267-1.184,0.041-1.709c0.307-0.523,0.862-0.854,1.469-0.871c0.934-0.031,22.913-0.987,22.913-21.618
			c0-0.975,0.79-1.764,1.765-1.764h20.886C59.21,8.022,60,8.812,60,9.786v36.755c0,0.475-0.189,0.926-0.526,1.258
			C59.144,48.125,58.698,48.307,58.236,48.307z M20.493,44.203l35.979,0.549V11.55H39.066C38.074,29.441,22.005,33.666,15.49,34.643
			L20.493,44.203z"/>
	</g>
	<g>
		<rect x="1.764" y="42.869" fill="#FFFFFF" width="56.472" height="7.346"/>
		<path fill="#231F20" d="M58.236,51.979H1.764C0.79,51.979,0,51.188,0,50.215v-7.346c0-0.973,0.79-1.764,1.764-1.764h56.472
			c0.974,0,1.764,0.791,1.764,1.764v7.346C60,51.188,59.21,51.979,58.236,51.979z M3.528,48.449h52.943v-3.814H3.528V48.449z"/>
	</g>
	<g>
		<circle fill="#FFFFFF" cx="45.729" cy="30.367" r="6.027"/>
		<path fill="#231F20" d="M45.729,38.16c-4.296,0-7.792-3.496-7.792-7.793c0-4.295,3.496-7.791,7.792-7.791s7.792,3.496,7.792,7.791
			C53.521,34.664,50.025,38.16,45.729,38.16z M45.729,26.104c-2.352,0-4.264,1.912-4.264,4.263c0,2.352,1.912,4.264,4.264,4.264
			c2.351,0,4.264-1.912,4.264-4.264C49.993,28.017,48.08,26.104,45.729,26.104z"/>
	</g>
	<g>
		<line fill="#D2D3D4" x1="20.857" y1="33.395" x2="20.001" y2="29.928"/>
		<path fill="#231F20" d="M20.855,35.158c-0.792,0-1.513-0.537-1.711-1.342l-0.856-3.465c-0.233-0.946,0.344-1.902,1.29-2.135
			c0.946-0.234,1.902,0.343,2.135,1.289l0.856,3.466c0.234,0.947-0.343,1.902-1.289,2.137
			C21.138,35.143,20.996,35.158,20.855,35.158z"/>
	</g>
	<g>
		<line fill="#D2D3D4" x1="27.723" y1="30.406" x2="25.484" y2="27.624"/>
		<path fill="#231F20" d="M27.723,32.17c-0.516,0-1.027-0.225-1.375-0.658L24.11,28.73c-0.611-0.76-0.49-1.87,0.269-2.481
			c0.761-0.609,1.87-0.49,2.481,0.269l2.238,2.783c0.611,0.76,0.49,1.87-0.269,2.481C28.502,32.043,28.112,32.17,27.723,32.17z"/>
	</g>
	<g>
		<line fill="#D2D3D4" x1="34.211" y1="25.67" x2="31.346" y2="23.539"/>
		<path fill="#231F20" d="M34.209,27.434c-0.366,0-0.735-0.113-1.051-0.349l-2.865-2.131c-0.782-0.582-0.944-1.687-0.363-2.468
			c0.583-0.782,1.687-0.944,2.468-0.362l2.864,2.131c0.782,0.582,0.944,1.687,0.363,2.468
			C35.279,27.189,34.748,27.434,34.209,27.434z"/>
	</g>
</g>
</svg>
