<?xml version="1.0" encoding="utf-8"?>
<!-- Generator: Adobe Illustrator 19.2.1, SVG Export Plug-In . SVG Version: 6.00 Build 0)  -->
<svg version="1.1" id="Layer_1" xmlns="http://www.w3.org/2000/svg" xmlns:xlink="http://www.w3.org/1999/xlink" x="0px" y="0px"
	 viewBox="0 0 60 60" style="enable-background:new 0 0 60 60;" xml:space="preserve">
<style type="text/css">
	.st0{fill:#D2D3D4;}
	.st1{fill:#231F20;}
	.st2{fill:#FFFFFF;}
</style>
<g>
	<g>
		<polygon class="st0" points="10.4,24.6 10.4,39.5 46.3,39.5 53.1,24.6 		"/>
	</g>
	<g>
		<path class="st1" d="M46.3,41.7H10.6c-1.2,0-2.2-1-2.2-2.2V7.4H2.2C1,7.4,0,6.4,0,5.2S1,3,2.2,3h8.4c1.2,0,2.2,1,2.2,2.2v7.6
			c0.4-0.6,1.1-1,1.8-1h43.1c0.7,0,1.4,0.4,1.8,1c0.4,0.6,0.5,1.4,0.2,2.1L48.4,40.4C48,41.2,47.2,41.7,46.3,41.7z M12.8,37.3h32.1
			l9.5-21.2H14.7c-0.8,0-1.5-0.4-1.8-1V37.3z"/>
	</g>
	<g>
		<circle class="st2" cx="14.7" cy="50.5" r="4.4"/>
		<path class="st1" d="M14.7,57c-3.6,0-6.6-2.9-6.6-6.6s2.9-6.6,6.6-6.6s6.6,2.9,6.6,6.6S18.4,57,14.7,57z M14.7,48.3
			c-1.2,0-2.2,1-2.2,2.2s1,2.2,2.2,2.2s2.2-1,2.2-2.2S15.9,48.3,14.7,48.3z"/>
	</g>
	<g>
		<circle class="st2" cx="36.6" cy="50.5" r="4.4"/>
		<path class="st1" d="M36.6,57c-3.6,0-6.6-2.9-6.6-6.6s2.9-6.6,6.6-6.6c3.6,0,6.6,2.9,6.6,6.6S40.2,57,36.6,57z M36.6,48.3
			c-1.2,0-2.2,1-2.2,2.2s1,2.2,2.2,2.2c1.2,0,2.2-1,2.2-2.2S37.8,48.3,36.6,48.3z"/>
	</g>
</g>
</svg>
