<?xml version="1.0" encoding="utf-8"?>
<!-- Generator: Adobe Illustrator 16.0.0, SVG Export Plug-In . SVG Version: 6.00 Build 0)  -->
<!DOCTYPE svg PUBLIC "-//W3C//DTD SVG 1.1//EN" "http://www.w3.org/Graphics/SVG/1.1/DTD/svg11.dtd">
<svg version="1.1" id="Layer_1" xmlns="http://www.w3.org/2000/svg" xmlns:xlink="http://www.w3.org/1999/xlink" x="0px" y="0px"
	 width="60px" height="60px" viewBox="0 0 60 60" enable-background="new 0 0 60 60" xml:space="preserve">
<g>
	<g>
		<path fill="#231F20" d="M55.102,58.836H5.215c-1.082,0-1.959-0.878-1.959-1.96V16.47c0-1.081,0.877-1.959,1.959-1.959h49.887
			c1.082,0,1.959,0.878,1.959,1.959v40.406C57.061,57.958,56.184,58.836,55.102,58.836z M7.174,54.917h45.969V18.43H7.174V54.917z"
			/>
	</g>
	<g>
		<rect x="11.388" y="18.245" fill="#D2D3D4" width="37.224" height="25.896"/>
	</g>
	<g>
		<path fill="#FFFFFF" d="M1.96,8.816v9.429c0,5.206,4.222,9.428,9.428,9.428c5.207,0,9.429-4.222,9.429-9.428V8.816H1.96z"/>
		<path fill="#231F20" d="M11.388,29.633C5.109,29.633,0,24.524,0,18.245V8.816C0,7.734,0.878,6.857,1.96,6.857h18.857
			c1.082,0,1.959,0.877,1.959,1.959v9.429C22.776,24.524,17.667,29.633,11.388,29.633z M3.919,10.775v7.47
			c0,4.118,3.351,7.469,7.469,7.469c4.119,0,7.47-3.351,7.47-7.469v-7.47H3.919z"/>
	</g>
	<g>
		<path fill="#FFFFFF" d="M20.572,8.816v9.429c0,5.206,4.222,9.428,9.429,9.428c5.208,0,9.428-4.222,9.428-9.428V8.816H20.572z"/>
		<path fill="#231F20" d="M30,29.633c-6.279,0-11.388-5.108-11.388-11.388V8.816c0-1.082,0.877-1.959,1.959-1.959h18.857
			c1.082,0,1.959,0.877,1.959,1.959v9.429C41.388,24.524,36.279,29.633,30,29.633z M22.531,10.775v7.47
			c0,4.118,3.351,7.469,7.469,7.469s7.469-3.351,7.469-7.469v-7.47H22.531z"/>
	</g>
	<g>
		<path fill="#FFFFFF" d="M39.184,8.816v9.429c0,5.206,4.223,9.428,9.429,9.428c5.208,0,9.429-4.222,9.429-9.428V8.816H39.184z"/>
		<path fill="#231F20" d="M48.612,29.633c-6.279,0-11.388-5.108-11.388-11.388V8.816c0-1.082,0.877-1.959,1.959-1.959h18.857
			C59.122,6.857,60,7.734,60,8.816v9.429C60,24.524,54.892,29.633,48.612,29.633z M41.143,10.775v7.47
			c0,4.118,3.352,7.469,7.47,7.469s7.469-3.351,7.469-7.469v-7.47H41.143z"/>
	</g>
	<g>
		<path fill="#231F20" d="M1.962,10.776c-0.678,0-1.337-0.353-1.7-0.982c-0.54-0.938-0.218-2.135,0.72-2.675l9.877-5.693
			c0.297-0.171,0.635-0.262,0.978-0.262h36.408c0.345,0,0.686,0.092,0.984,0.266l9.796,5.692c0.936,0.544,1.253,1.743,0.709,2.679
			c-0.543,0.935-1.739,1.256-2.678,0.709l-9.34-5.427H12.362l-9.424,5.431C2.63,10.691,2.294,10.776,1.962,10.776z"/>
	</g>
</g>
</svg>
