<?xml version="1.0" encoding="utf-8"?>
<!-- Generator: Adobe Illustrator 19.2.1, SVG Export Plug-In . SVG Version: 6.00 Build 0)  -->
<svg version="1.1" id="Layer_1" xmlns="http://www.w3.org/2000/svg" xmlns:xlink="http://www.w3.org/1999/xlink" x="0px" y="0px"
	 viewBox="0 0 60 60" style="enable-background:new 0 0 60 60;" xml:space="preserve">
<style type="text/css">
	.st0{fill:#FFFFFF;}
	.st1{fill:#231F20;}
	.st2{fill:#D2D3D4;}
</style>
<g>
	<g>
		<path class="st0" d="M51.7,39.4c3.8-3.9,6.1-8.8,6.1-14.1C57.8,12.7,45.3,2.5,30,2.5C14.7,2.5,2.2,12.7,2.2,25.2
			c0,5.4,2.3,10.3,6.1,14.1c-3.1,1.6-5.2,4.8-5.2,8.5c0,5.3,4.3,9.6,9.6,9.6c3.8,0,7.1-2.3,8.7-5.5c1.5,3.3,4.8,5.5,8.7,5.5
			c3.8,0,7.1-2.3,8.7-5.5c1.5,3.3,4.8,5.5,8.7,5.5c5.3,0,9.6-4.3,9.6-9.6C56.9,44.2,54.8,40.9,51.7,39.4z"/>
		<path class="st1" d="M47.4,59.7c-3.3,0-6.5-1.4-8.7-3.8c-2.2,2.4-5.3,3.8-8.7,3.8s-6.5-1.4-8.7-3.8c-2.2,2.4-5.3,3.8-8.7,3.8
			c-6.5,0-11.8-5.3-11.8-11.8c0-3.5,1.5-6.7,4.1-9c-3.2-4.1-5-8.8-5-13.7C0,11.5,13.5,0.3,30,0.3c16.5,0,30,11.2,30,24.9
			c0,4.9-1.7,9.7-5,13.7c2.6,2.2,4.1,5.4,4.1,9C59.1,54.4,53.9,59.7,47.4,59.7z M38.7,49.7c0.9,0,1.6,0.5,2,1.3
			c1.2,2.6,3.8,4.3,6.7,4.3c4.1,0,7.4-3.3,7.4-7.4c0-2.8-1.5-5.3-4-6.6c-0.6-0.3-1.1-0.9-1.2-1.6c-0.1-0.7,0.1-1.4,0.6-1.9
			c3.6-3.6,5.4-8,5.4-12.6C55.6,13.9,44.1,4.7,30,4.7c-14.1,0-25.6,9.2-25.6,20.5c0,4.6,1.9,9,5.4,12.6c0.5,0.5,0.7,1.2,0.6,1.9
			c-0.1,0.7-0.5,1.3-1.2,1.6c-2.5,1.3-4,3.8-4,6.6c0,4.1,3.3,7.4,7.4,7.4c2.8,0,5.5-1.7,6.7-4.3c0.4-0.8,1.1-1.3,2-1.3
			c0.9,0,1.6,0.5,2,1.3c1.2,2.6,3.8,4.3,6.7,4.3c2.8,0,5.5-1.7,6.7-4.3C37,50.2,37.8,49.7,38.7,49.7z"/>
	</g>
	<g>
		<circle class="st2" cx="19.4" cy="25.9" r="7.1"/>
		<path class="st1" d="M19.4,35.2c-5.1,0-9.3-4.2-9.3-9.3c0-5.1,4.2-9.3,9.3-9.3c5.1,0,9.3,4.2,9.3,9.3C28.7,31,24.5,35.2,19.4,35.2
			z M19.4,21c-2.7,0-4.9,2.2-4.9,4.9c0,2.7,2.2,4.9,4.9,4.9s4.9-2.2,4.9-4.9C24.3,23.2,22.1,21,19.4,21z"/>
	</g>
	<g>
		<circle class="st2" cx="40.1" cy="25.9" r="7.1"/>
		<path class="st1" d="M40.1,35.2c-5.1,0-9.3-4.2-9.3-9.3c0-5.1,4.2-9.3,9.3-9.3c5.1,0,9.3,4.2,9.3,9.3C49.4,31,45.2,35.2,40.1,35.2
			z M40.1,21c-2.7,0-4.9,2.2-4.9,4.9c0,2.7,2.2,4.9,4.9,4.9c2.7,0,4.9-2.2,4.9-4.9C45,23.2,42.8,21,40.1,21z"/>
	</g>
</g>
</svg>
