<?xml version="1.0" encoding="utf-8"?>
<!-- Generator: Adobe Illustrator 19.2.1, SVG Export Plug-In . SVG Version: 6.00 Build 0)  -->
<svg version="1.1" id="Layer_1" xmlns="http://www.w3.org/2000/svg" xmlns:xlink="http://www.w3.org/1999/xlink" x="0px" y="0px"
	 viewBox="0 0 60 60" style="enable-background:new 0 0 60 60;" xml:space="preserve">
<style type="text/css">
	.st0{fill:#FFFFFF;}
	.st1{fill:#231F20;}
	.st2{fill:#D2D3D4;}
</style>
<g>
	<g>
		<rect x="14" y="2.2" class="st0" width="32.1" height="55.5"/>
		<path class="st1" d="M46,60H14c-1.2,0-2.2-1-2.2-2.2V2.2C11.7,1,12.7,0,14,0H46c1.2,0,2.2,1,2.2,2.2v55.5C48.3,59,47.3,60,46,60z
			 M16.2,55.5h27.6V4.5H16.2V55.5z"/>
	</g>
	<g>
		<circle class="st2" cx="30" cy="16.6" r="5.4"/>
		<path class="st1" d="M30,24.3c-4.2,0-7.7-3.4-7.7-7.7S25.8,9,30,9c4.2,0,7.7,3.4,7.7,7.7S34.2,24.3,30,24.3z M30,13.4
			c-1.8,0-3.2,1.4-3.2,3.2s1.4,3.2,3.2,3.2c1.8,0,3.2-1.4,3.2-3.2S31.8,13.4,30,13.4z"/>
	</g>
	<g>
		<circle class="st2" cx="30" cy="40.4" r="8.6"/>
		<path class="st1" d="M30,51.2c-5.9,0-10.8-4.8-10.8-10.8c0-5.9,4.8-10.8,10.8-10.8c5.9,0,10.8,4.8,10.8,10.8
			C40.8,46.3,35.9,51.2,30,51.2z M30,34.1c-3.5,0-6.3,2.8-6.3,6.3c0,3.5,2.8,6.3,6.3,6.3c3.5,0,6.3-2.8,6.3-6.3
			C36.3,36.9,33.5,34.1,30,34.1z"/>
	</g>
	<g>
		<line class="st0" x1="40.2" y1="8.4" x2="40.2" y2="9.8"/>
		<path class="st1" d="M40.2,12c-1.2,0-2.2-1-2.2-2.2V8.4c0-1.2,1-2.2,2.2-2.2c1.2,0,2.2,1,2.2,2.2v1.4C42.4,11,41.4,12,40.2,12z"/>
	</g>
</g>
</svg>
