<?xml version="1.0" encoding="utf-8"?>
<!-- Generator: Adobe Illustrator 19.2.1, SVG Export Plug-In . SVG Version: 6.00 Build 0)  -->
<svg version="1.1" id="Layer_1" xmlns="http://www.w3.org/2000/svg" xmlns:xlink="http://www.w3.org/1999/xlink" x="0px" y="0px"
	 viewBox="0 0 60 60" style="enable-background:new 0 0 60 60;" xml:space="preserve">
<style type="text/css">
	.st0{fill:#D2D3D4;}
	.st1{fill:#231F20;}
	.st2{fill:#FFFFFF;}
</style>
<g>
	<g>
		<path class="st0" d="M14.5,20.1v22.3h0c0.3,4.4,7.4,7.9,16,7.9c8.7,0,15.7-3.5,16-7.9h0V20.1H14.5z"/>
		<path class="st1" d="M30.5,52.2c-9.6,0-17.2-3.9-17.9-9.2c-0.1-0.2-0.1-0.4-0.1-0.5V20.1c0-1.1,0.9-1.9,1.9-1.9h32.2
			c1.1,0,1.9,0.9,1.9,1.9v22.3c0,0.2,0,0.4-0.1,0.6C47.7,48.2,40.1,52.2,30.5,52.2z M16.4,42c0,0.1,0,0.1,0,0.2
			c0.2,2.9,6.1,6.1,14.1,6.1c8,0,13.9-3.2,14.1-6.1c0-0.1,0-0.1,0-0.2V22H16.4V42z"/>
	</g>
	<g>
		<polygon class="st2" points="58.1,23.8 30,37.8 1.9,23.8 30,9.7 		"/>
		<path class="st1" d="M30,39.7c-0.3,0-0.6-0.1-0.9-0.2l-28.1-14c-0.7-0.3-1.1-1-1.1-1.7s0.4-1.4,1.1-1.7L29.1,8
			c0.5-0.3,1.2-0.3,1.7,0l28.1,14c0.7,0.3,1.1,1,1.1,1.7s-0.4,1.4-1.1,1.7l-28.1,14C30.6,39.6,30.3,39.7,30,39.7z M6.2,23.8L30,35.6
			l23.8-11.9L30,11.9L6.2,23.8z"/>
	</g>
	<g>
		<line class="st2" x1="1.9" y1="43.4" x2="1.9" y2="24.9"/>
		<path class="st1" d="M1.9,45.3c-1.1,0-1.9-0.9-1.9-1.9V24.9C0,23.8,0.9,23,1.9,23s1.9,0.9,1.9,1.9v18.5C3.8,44.4,3,45.3,1.9,45.3z
			"/>
	</g>
</g>
</svg>
