<?xml version="1.0" encoding="utf-8"?>
<!-- Generator: Adobe Illustrator 19.2.1, SVG Export Plug-In . SVG Version: 6.00 Build 0)  -->
<svg version="1.1" id="Layer_1" xmlns="http://www.w3.org/2000/svg" xmlns:xlink="http://www.w3.org/1999/xlink" x="0px" y="0px"
	 viewBox="0 0 60 60" style="enable-background:new 0 0 60 60;" xml:space="preserve">
<style type="text/css">
	.st0{fill:#D1D2D3;}
	.st1{fill:#231F20;}
	.st2{fill:#FFFFFF;}
</style>
<g>
	<g>
		<circle class="st0" cx="21.5" cy="27.9" r="6"/>
		<path class="st1" d="M21.5,35.5c-4.1,0-7.5-3.4-7.5-7.5s3.4-7.5,7.5-7.5s7.5,3.4,7.5,7.5S25.7,35.5,21.5,35.5z M21.5,23.5
			c-2.5,0-4.4,2-4.4,4.4c0,2.4,2,4.4,4.4,4.4c2.4,0,4.4-2,4.4-4.4C26,25.5,24,23.5,21.5,23.5z"/>
	</g>
	<g>
		<path class="st2" d="M16.5,14.6L7.1,29.1H36L26,14.6C26,14.6,21.5-3.2,16.5,14.6z"/>
		<path class="st1" d="M36,30.6H7.1c-0.6,0-1.1-0.3-1.4-0.8c-0.3-0.5-0.2-1.1,0.1-1.6L15.1,14c1.7-6.1,3.6-8.8,6.1-8.8c0,0,0,0,0,0
			c1.2,0,4.1,0.9,6.2,8.8l9.8,14.3c0.3,0.5,0.4,1.1,0.1,1.6S36.6,30.6,36,30.6z M9.9,27.5h23.1l-8.3-12.1c-0.1-0.2-0.2-0.3-0.2-0.5
			c-0.9-3.6-2.6-6.7-3.3-6.8c0,0-1.4,0.4-3.2,6.8c0,0.2-0.1,0.3-0.2,0.4L9.9,27.5z M16.5,14.6L16.5,14.6L16.5,14.6z"/>
	</g>
	<g>
		<path class="st1" d="M29,52.8c-0.8,0-1.5-0.7-1.5-1.5v-5.5c0-0.4,0.2-0.8,0.5-1.1l22.7-21.9L27.9,3.1h-4.9v2.8
			c0,0.8-0.7,1.5-1.5,1.5S20,6.7,20,5.9V1.5C20,0.7,20.7,0,21.5,0h7c0.4,0,0.7,0.1,1,0.4l24.4,21.2c0.3,0.3,0.5,0.7,0.5,1.1
			c0,0.4-0.2,0.8-0.5,1.1L30.5,46.4v4.9C30.5,52.1,29.9,52.8,29,52.8z"/>
	</g>
	<g>
		<path class="st0" d="M50.9,55.9c0,1.4-1.1,2.5-2.5,2.5H9.6c-1.4,0-2.5-1.1-2.5-2.5l0,0c0-1.4,1.1-2.5,2.5-2.5h38.8
			C49.8,53.4,50.9,54.5,50.9,55.9L50.9,55.9z"/>
		<path class="st1" d="M48.4,60H9.6c-2.3,0-4.1-1.8-4.1-4.1c0-2.3,1.8-4.1,4.1-4.1h38.8c2.3,0,4.1,1.8,4.1,4.1
			C52.5,58.2,50.6,60,48.4,60z M9.6,54.9c-0.6,0-1,0.5-1,1c0,0.6,0.5,1,1,1h38.8c0.6,0,1-0.5,1-1c0-0.6-0.5-1-1-1H9.6z"/>
	</g>
</g>
</svg>
