<?xml version="1.0" encoding="utf-8"?>
<!-- Generator: Adobe Illustrator 19.2.1, SVG Export Plug-In . SVG Version: 6.00 Build 0)  -->
<svg version="1.1" id="Layer_1" xmlns="http://www.w3.org/2000/svg" xmlns:xlink="http://www.w3.org/1999/xlink" x="0px" y="0px"
	 viewBox="0 0 60 60" style="enable-background:new 0 0 60 60;" xml:space="preserve">
<style type="text/css">
	.st0{fill:#FFFFFF;}
	.st1{fill:#231F20;}
	.st2{fill:#D1D2D3;}
</style>
<g>
	<g>
		<circle class="st0" cx="11.2" cy="8.9" r="5.4"/>
		<path class="st1" d="M11.2,15.9c-3.8,0-6.9-3.1-6.9-6.9S7.3,2,11.2,2s6.9,3.1,6.9,6.9S15,15.9,11.2,15.9z M11.2,5
			C9,5,7.2,6.8,7.2,8.9c0,2.2,1.8,3.9,3.9,3.9c2.2,0,3.9-1.8,3.9-3.9C15.1,6.8,13.3,5,11.2,5z"/>
	</g>
	<g>
		<circle class="st0" cx="49.4" cy="8.9" r="5.4"/>
		<path class="st1" d="M49.4,15.9c-3.8,0-6.9-3.1-6.9-6.9S45.6,2,49.4,2s6.9,3.1,6.9,6.9S53.2,15.9,49.4,15.9z M49.4,5
			c-2.2,0-3.9,1.8-3.9,3.9c0,2.2,1.8,3.9,3.9,3.9c2.2,0,3.9-1.8,3.9-3.9C53.3,6.8,51.6,5,49.4,5z"/>
	</g>
	<g>
		<path class="st0" d="M58.5,32.2c0,13.4-12.8,24.3-28.5,24.3c-15.7,0-28.5-10.9-28.5-24.3C1.5,18.7,14.3,3.5,30,3.5
			C45.7,3.5,58.5,18.7,58.5,32.2z"/>
		<path class="st1" d="M30,58C13.5,58,0,46.4,0,32.2C0,18.2,13.1,2,30,2s30,16.2,30,30.1C60,46.4,46.5,58,30,58z M30,5
			C15,5,3,19.9,3,32.2C3,44.7,15.1,55,30,55s27-10.2,27-22.8C57,19.9,45,5,30,5z"/>
	</g>
	<g>
		<ellipse transform="matrix(0.7897 -0.6135 0.6135 0.7897 -5.1828 29.2613)" class="st2" cx="40.1" cy="22.2" rx="6" ry="7.7"/>
	</g>
	<g>
		<ellipse transform="matrix(0.6137 -0.7896 0.7896 0.6137 -9.1426 25.6952)" class="st2" cx="21.7" cy="22.2" rx="2.7" ry="2.1"/>
	</g>
	<g>
		<path class="st0" d="M35.2,30c0,2.4-1.9,4.3-4.3,4.3c-2.4,0-4.3-1.9-4.3-4.3"/>
		<path class="st1" d="M30.9,35.8c-3.2,0-5.8-2.6-5.8-5.8c0-0.8,0.7-1.5,1.5-1.5c0.8,0,1.5,0.7,1.5,1.5c0,1.5,1.3,2.8,2.8,2.8
			c1.5,0,2.8-1.3,2.8-2.8c0-0.8,0.7-1.5,1.5-1.5c0.8,0,1.5,0.7,1.5,1.5C36.7,33.2,34.1,35.8,30.9,35.8z"/>
	</g>
</g>
</svg>
