<?xml version="1.0" encoding="utf-8"?>
<!-- Generator: Adobe Illustrator 19.2.1, SVG Export Plug-In . SVG Version: 6.00 Build 0)  -->
<svg version="1.1" id="Layer_1" xmlns="http://www.w3.org/2000/svg" xmlns:xlink="http://www.w3.org/1999/xlink" x="0px" y="0px"
	 viewBox="0 0 60 60" style="enable-background:new 0 0 60 60;" xml:space="preserve">
<style type="text/css">
	.st0{fill:#FFFFFF;}
	.st1{fill:#231F20;}
	.st2{fill:#D1D2D3;}
</style>
<g>
	<g>
		<rect x="1.8" y="1.8" class="st0" width="56.4" height="56.4"/>
		<path class="st1" d="M58.2,60H1.8c-1,0-1.8-0.8-1.8-1.8V1.8C0,0.8,0.8,0,1.8,0h56.4c1,0,1.8,0.8,1.8,1.8v56.4
			C60,59.2,59.2,60,58.2,60z M3.6,56.4h52.8V3.6H3.6V56.4z"/>
	</g>
	<g>
		<polyline class="st2" points="13.1,11.7 20.8,16.6 13.1,21.8 		"/>
		<path class="st1" d="M13.1,23.6c-0.6,0-1.2-0.3-1.5-0.8c-0.6-0.8-0.3-2,0.5-2.5l5.4-3.6l-5.4-3.4c-0.8-0.5-1.1-1.7-0.6-2.5
			c0.5-0.8,1.7-1.1,2.5-0.6l7.7,4.9c0.5,0.3,0.8,0.9,0.8,1.5c0,0.6-0.3,1.2-0.8,1.5l-7.7,5.2C13.8,23.5,13.4,23.6,13.1,23.6z"/>
	</g>
	<g>
		<line class="st1" x1="22.5" y1="25" x2="32.3" y2="25"/>
		<path class="st2" d="M32.3,26.8h-9.9c-1,0-1.8-0.8-1.8-1.8s0.8-1.8,1.8-1.8h9.9c1,0,1.8,0.8,1.8,1.8S33.3,26.8,32.3,26.8z"/>
	</g>
</g>
</svg>
