<?xml version="1.0" encoding="utf-8"?>
<!-- Generator: Adobe Illustrator 19.2.1, SVG Export Plug-In . SVG Version: 6.00 Build 0)  -->
<svg version="1.1" id="Layer_1" xmlns="http://www.w3.org/2000/svg" xmlns:xlink="http://www.w3.org/1999/xlink" x="0px" y="0px"
	 viewBox="0 0 60 60" style="enable-background:new 0 0 60 60;" xml:space="preserve">
<style type="text/css">
	.st0{fill:#FFFFFF;}
	.st1{fill:#231F20;}
</style>
<g>
	<g>
		<line class="st0" x1="21.5" y1="2.4" x2="38.5" y2="2.4"/>
		<path class="st1" d="M38.5,4.7H21.5c-1.3,0-2.4-1.1-2.4-2.4S20.2,0,21.5,0h17.1c1.3,0,2.4,1.1,2.4,2.4S39.8,4.7,38.5,4.7z"/>
	</g>
	<g>
		<line class="st0" x1="30" y1="13.7" x2="30" y2="2.4"/>
		<path class="st1" d="M30,16.1c-1.3,0-2.4-1.1-2.4-2.4V2.4C27.6,1.1,28.7,0,30,0s2.4,1.1,2.4,2.4v11.4C32.4,15,31.3,16.1,30,16.1z"
			/>
	</g>
	<g>
		<circle class="st0" cx="30" cy="34.1" r="23.5"/>
		<path class="st1" d="M30,60C15.7,60,4.1,48.4,4.1,34.1S15.7,8.3,30,8.3c14.3,0,25.9,11.6,25.9,25.9S44.3,60,30,60z M30,13
			C18.3,13,8.9,22.5,8.9,34.1c0,11.7,9.5,21.1,21.1,21.1s21.1-9.5,21.1-21.1C51.1,22.5,41.7,13,30,13z"/>
	</g>
	<g>
		<line class="st0" x1="30" y1="34.1" x2="30" y2="17.4"/>
		<path class="st1" d="M30,36.5c-1.3,0-2.4-1.1-2.4-2.4V17.4c0-1.3,1.1-2.4,2.4-2.4s2.4,1.1,2.4,2.4v16.8
			C32.4,35.4,31.3,36.5,30,36.5z"/>
	</g>
</g>
</svg>
