<?xml version="1.0" encoding="utf-8"?>
<!-- Generator: Adobe Illustrator 19.2.1, SVG Export Plug-In . SVG Version: 6.00 Build 0)  -->
<svg version="1.1" id="Layer_1" xmlns="http://www.w3.org/2000/svg" xmlns:xlink="http://www.w3.org/1999/xlink" x="0px" y="0px"
	 viewBox="0 0 60 60" style="enable-background:new 0 0 60 60;" xml:space="preserve">
<style type="text/css">
	.st0{fill:#FFFFFF;}
	.st1{fill:#231F20;}
	.st2{fill:#D2D3D4;}
</style>
<g>
	<polygon class="st0" points="4.6,27.4 55.3,27.4 54.1,20.9 51.1,13.4 45.2,7.5 38.6,4.2 26.4,3 19.3,4.2 13.5,8.5 8.2,15.2 	"/>
	<g>
		<g>
			<path class="st1" d="M22.8,60c-7.4,0-9.8-6.5-10.1-9.9c-0.1-1.2,0.8-2.2,2-2.3c1.1-0.1,2.2,0.8,2.3,2c0,0.6,0.6,6,5.8,6
				c1.5,0,2.6-0.4,3.4-1.2c1.7-1.7,1.6-4.8,1.6-4.8l0-27.9c0-1.2,0.9-2.1,2.1-2.1s2.1,0.9,2.1,2.1v27.8c0,0.4,0.1,4.8-2.8,7.8
				C27.6,59.1,25.4,60,22.8,60z"/>
		</g>
		<g>
			<path class="st2" d="M22.4,26.1c0,0-1.6-18.4,7.6-23.9c0,0,10,4.2,8.4,25.2L22.4,26.1z"/>
		</g>
		<g>
			<path class="st1" d="M55.5,29.8h-51c-1.2,0-2.1-0.9-2.1-2.1C2.4,12.4,14.8,0,30,0s27.6,12.4,27.6,27.6
				C57.6,28.8,56.7,29.8,55.5,29.8z M6.7,25.5h46.6C52.2,13.6,42.2,4.2,30,4.2S7.8,13.6,6.7,25.5z"/>
		</g>
	</g>
</g>
</svg>
