<?xml version="1.0" encoding="utf-8"?>
<!-- Generator: Adobe Illustrator 16.0.0, SVG Export Plug-In . SVG Version: 6.00 Build 0)  -->
<!DOCTYPE svg PUBLIC "-//W3C//DTD SVG 1.1//EN" "http://www.w3.org/Graphics/SVG/1.1/DTD/svg11.dtd">
<svg version="1.1" id="Layer_1" xmlns="http://www.w3.org/2000/svg" xmlns:xlink="http://www.w3.org/1999/xlink" x="0px" y="0px"
	 width="60px" height="60px" viewBox="0 0 60 60" enable-background="new 0 0 60 60" xml:space="preserve">
<g>
	<g>
		<path fill="#231F20" d="M52.111,58.671H7.887C3.538,58.671,0,55.133,0,50.782v-3.929c0-4.351,3.539-7.89,7.888-7.89h44.224
			c4.35,0,7.889,3.539,7.889,7.89v3.929C60,55.133,56.461,58.671,52.111,58.671z M7.887,42.947c-2.153,0-3.905,1.752-3.905,3.906
			v3.929c0,2.154,1.751,3.906,3.905,3.906h44.224c2.154,0,3.906-1.752,3.906-3.906v-3.929c0-2.154-1.752-3.906-3.906-3.906H7.887z"
			/>
	</g>
	<g>
		<path fill="#D2D3D4" d="M47.256,20.706c0,13.119-7.783,24.272-17.385,24.272c-9.601,0-17.384-11.153-17.384-24.272
			c0-9.602,7.783-17.385,17.384-17.385C39.473,3.321,47.256,11.104,47.256,20.706z"/>
		<path fill="#231F20" d="M29.871,46.97c-10.683,0-19.375-11.782-19.375-26.264c0-10.685,8.692-19.377,19.375-19.377
			c10.684,0,19.377,8.692,19.377,19.377C49.248,35.188,40.555,46.97,29.871,46.97z M29.871,5.313
			c-8.487,0-15.393,6.905-15.393,15.394c0,12.078,7.049,22.281,15.393,22.281c8.344,0,15.395-10.203,15.395-22.281
			C45.266,12.218,38.359,5.313,29.871,5.313z"/>
	</g>
</g>
</svg>
