<?xml version="1.0" encoding="utf-8"?>
<!-- Generator: Adobe Illustrator 19.2.1, SVG Export Plug-In . SVG Version: 6.00 Build 0)  -->
<svg version="1.1" id="Layer_1" xmlns="http://www.w3.org/2000/svg" xmlns:xlink="http://www.w3.org/1999/xlink" x="0px" y="0px"
	 viewBox="0 0 60 60" style="enable-background:new 0 0 60 60;" xml:space="preserve">
<style type="text/css">
	.st0{fill:#FFFFFF;}
	.st1{fill:#231F20;}
	.st2{fill:#D1D2D3;}
</style>
<g>
	<g>
		<rect x="1.7" y="5.1" class="st0" width="56.6" height="49.8"/>
		<path class="st1" d="M58.3,56.6H1.7c-0.9,0-1.7-0.8-1.7-1.7V5.1c0-0.9,0.8-1.7,1.7-1.7h56.6c0.9,0,1.7,0.8,1.7,1.7v49.8
			C60,55.8,59.2,56.6,58.3,56.6z M3.4,53.2h53.3V6.8H3.4V53.2z"/>
	</g>
	<g>
		<g>
			<rect x="1.7" y="5.1" class="st2" width="12.7" height="10.8"/>
			<path class="st1" d="M14.4,17.5H1.7c-0.9,0-1.7-0.8-1.7-1.7V5.1c0-0.9,0.8-1.7,1.7-1.7h12.7c0.9,0,1.7,0.8,1.7,1.7v10.8
				C16,16.8,15.3,17.5,14.4,17.5z M3.4,14.2h9.3V6.8H3.4V14.2z"/>
		</g>
		<g>
			<rect x="1.7" y="14.8" class="st2" width="12.7" height="10.8"/>
			<path class="st1" d="M14.4,27.3H1.7c-0.9,0-1.7-0.8-1.7-1.7V14.8c0-0.9,0.8-1.7,1.7-1.7h12.7c0.9,0,1.7,0.8,1.7,1.7v10.8
				C16,26.5,15.3,27.3,14.4,27.3z M3.4,23.9h9.3v-7.4H3.4V23.9z"/>
		</g>
		<g>
			<rect x="1.7" y="24.6" class="st2" width="12.7" height="10.8"/>
			<path class="st1" d="M14.4,37.1H1.7c-0.9,0-1.7-0.8-1.7-1.7V24.6c0-0.9,0.8-1.7,1.7-1.7h12.7c0.9,0,1.7,0.8,1.7,1.7v10.8
				C16,36.3,15.3,37.1,14.4,37.1z M3.4,33.7h9.3v-7.4H3.4V33.7z"/>
		</g>
		<g>
			<rect x="1.7" y="34.4" class="st2" width="12.7" height="10.8"/>
			<path class="st1" d="M14.4,46.8H1.7c-0.9,0-1.7-0.8-1.7-1.7V34.4c0-0.9,0.8-1.7,1.7-1.7h12.7c0.9,0,1.7,0.8,1.7,1.7v10.8
				C16,46.1,15.3,46.8,14.4,46.8z M3.4,43.5h9.3v-7.4H3.4V43.5z"/>
		</g>
		<g>
			<rect x="1.7" y="44.1" class="st2" width="12.7" height="10.8"/>
			<path class="st1" d="M14.4,56.6H1.7c-0.9,0-1.7-0.8-1.7-1.7V44.1c0-0.9,0.8-1.7,1.7-1.7h12.7c0.9,0,1.7,0.8,1.7,1.7v10.8
				C16,55.8,15.3,56.6,14.4,56.6z M3.4,53.2h9.3v-7.4H3.4V53.2z"/>
		</g>
	</g>
	<g>
		<g>
			<rect x="45.6" y="5.1" class="st2" width="12.7" height="10.8"/>
			<path class="st1" d="M58.3,17.5H45.6c-0.9,0-1.7-0.8-1.7-1.7V5.1c0-0.9,0.8-1.7,1.7-1.7h12.7c0.9,0,1.7,0.8,1.7,1.7v10.8
				C60,16.8,59.2,17.5,58.3,17.5z M47.3,14.2h9.3V6.8h-9.3V14.2z"/>
		</g>
		<g>
			<rect x="45.6" y="14.8" class="st2" width="12.7" height="10.8"/>
			<path class="st1" d="M58.3,27.3H45.6c-0.9,0-1.7-0.8-1.7-1.7V14.8c0-0.9,0.8-1.7,1.7-1.7h12.7c0.9,0,1.7,0.8,1.7,1.7v10.8
				C60,26.5,59.2,27.3,58.3,27.3z M47.3,23.9h9.3v-7.4h-9.3V23.9z"/>
		</g>
		<g>
			<rect x="45.6" y="24.6" class="st2" width="12.7" height="10.8"/>
			<path class="st1" d="M58.3,37.1H45.6c-0.9,0-1.7-0.8-1.7-1.7V24.6c0-0.9,0.8-1.7,1.7-1.7h12.7c0.9,0,1.7,0.8,1.7,1.7v10.8
				C60,36.3,59.2,37.1,58.3,37.1z M47.3,33.7h9.3v-7.4h-9.3V33.7z"/>
		</g>
		<g>
			<rect x="45.6" y="34.4" class="st2" width="12.7" height="10.8"/>
			<path class="st1" d="M58.3,46.8H45.6c-0.9,0-1.7-0.8-1.7-1.7V34.4c0-0.9,0.8-1.7,1.7-1.7h12.7c0.9,0,1.7,0.8,1.7,1.7v10.8
				C60,46.1,59.2,46.8,58.3,46.8z M47.3,43.5h9.3v-7.4h-9.3V43.5z"/>
		</g>
		<g>
			<rect x="45.6" y="44.1" class="st2" width="12.7" height="10.8"/>
			<path class="st1" d="M58.3,56.6H45.6c-0.9,0-1.7-0.8-1.7-1.7V44.1c0-0.9,0.8-1.7,1.7-1.7h12.7c0.9,0,1.7,0.8,1.7,1.7v10.8
				C60,55.8,59.2,56.6,58.3,56.6z M47.3,53.2h9.3v-7.4h-9.3V53.2z"/>
		</g>
	</g>
	<g>
		<polygon class="st0" points="26.4,24.6 26.4,38.3 35.9,31.3 		"/>
		<path class="st1" d="M26.4,40c-0.3,0-0.5-0.1-0.8-0.2c-0.6-0.3-0.9-0.9-0.9-1.5V24.6c0-0.6,0.3-1.2,0.9-1.5
			c0.6-0.3,1.2-0.2,1.7,0.1l9.4,6.7c0.4,0.3,0.7,0.8,0.7,1.3c0,0.5-0.2,1-0.7,1.4l-9.4,7.1C27.1,39.9,26.8,40,26.4,40z M28.1,27.8
			V35l4.9-3.7L28.1,27.8z"/>
	</g>
</g>
</svg>
