<?xml version="1.0" encoding="utf-8"?>
<!-- Generator: Adobe Illustrator 19.2.1, SVG Export Plug-In . SVG Version: 6.00 Build 0)  -->
<svg version="1.1" id="Layer_1" xmlns="http://www.w3.org/2000/svg" xmlns:xlink="http://www.w3.org/1999/xlink" x="0px" y="0px"
	 viewBox="0 0 60 60" style="enable-background:new 0 0 60 60;" xml:space="preserve">
<style type="text/css">
	.st0{fill:#FFFFFF;}
	.st1{fill:#231F20;}
	.st2{fill:#D2D3D4;}
</style>
<g>
	<g>
		<rect x="2.5" y="18.6" class="st0" width="55.1" height="38.4"/>
		<path class="st1" d="M57.5,59.5H2.5C1.1,59.5,0,58.4,0,57V18.6c0-1.4,1.1-2.5,2.5-2.5h55.1c1.4,0,2.5,1.1,2.5,2.5V57
			C60,58.4,58.9,59.5,57.5,59.5z M4.9,54.5h50.1V21H4.9V54.5z"/>
	</g>
	<g>
		<rect x="2.5" y="30.5" class="st0" width="24.9" height="14.6"/>
		<path class="st1" d="M27.4,47.6H2.5c-1.4,0-2.5-1.1-2.5-2.5V30.5C0,29.1,1.1,28,2.5,28h24.9c1.4,0,2.5,1.1,2.5,2.5v14.6
			C29.8,46.5,28.7,47.6,27.4,47.6z M4.9,42.6h20v-9.7h-20V42.6z"/>
	</g>
	<g>
		<circle class="st2" cx="19.5" cy="37.8" r="2.2"/>
	</g>
	<g>
		<polygon class="st2" points="57.5,18.6 17.3,3 17.3,18.6 		"/>
		<path class="st1" d="M57.5,21H17.3c-1.4,0-2.5-1.1-2.5-2.5V3c0-0.8,0.4-1.6,1.1-2c0.7-0.5,1.5-0.6,2.3-0.3l40.2,15.6
			c1.1,0.4,1.8,1.6,1.5,2.8C59.7,20.2,58.7,21,57.5,21z M19.8,16.1h24.5L19.8,6.6V16.1z"/>
	</g>
</g>
</svg>
