<?xml version="1.0" encoding="utf-8"?>
<!-- Generator: Adobe Illustrator 16.0.0, SVG Export Plug-In . SVG Version: 6.00 Build 0)  -->
<!DOCTYPE svg PUBLIC "-//W3C//DTD SVG 1.1//EN" "http://www.w3.org/Graphics/SVG/1.1/DTD/svg11.dtd">
<svg version="1.1" id="Layer_1" xmlns="http://www.w3.org/2000/svg" xmlns:xlink="http://www.w3.org/1999/xlink" x="0px" y="0px"
	 width="60px" height="60px" viewBox="0 0 60 60" enable-background="new 0 0 60 60" xml:space="preserve">
<g>
	<g>
		<rect x="13.817" y="1.992" fill="#D2D3D4" width="32.365" height="28.133"/>
		<path fill="#231F20" d="M46.183,32.116H13.817c-1.101,0-1.992-0.891-1.992-1.991V1.992C11.825,0.892,12.717,0,13.817,0h32.365
			c1.101,0,1.992,0.892,1.992,1.992v28.133C48.175,31.226,47.283,32.116,46.183,32.116z M15.809,28.133h28.383V3.983H15.809V28.133z
			"/>
	</g>
	<g>
		<rect x="13.817" y="29.876" fill="#D2D3D4" width="32.365" height="28.133"/>
		<path fill="#231F20" d="M46.183,60H13.817c-1.101,0-1.992-0.892-1.992-1.991V29.876c0-1.1,0.892-1.991,1.992-1.991h32.365
			c1.101,0,1.992,0.892,1.992,1.991v28.133C48.175,59.108,47.283,60,46.183,60z M15.809,56.017h28.383V31.868H15.809V56.017z"/>
	</g>
	<g>
		<circle fill="#FFFFFF" cx="30" cy="30.125" r="21.162"/>
		<path fill="#231F20" d="M30,53.278c-12.768,0-23.154-10.387-23.154-23.153C6.846,17.357,17.232,6.971,30,6.971
			s23.154,10.387,23.154,23.154C53.154,42.892,42.768,53.278,30,53.278z M30,10.954c-10.57,0-19.171,8.601-19.171,19.171
			S19.43,49.295,30,49.295s19.171-8.6,19.171-19.17S40.57,10.954,30,10.954z"/>
	</g>
	<g>
		<path fill="#231F20" d="M39.71,32.116H30c-1.101,0-1.992-0.891-1.992-1.991V19.046c0-1.1,0.892-1.991,1.992-1.991
			c1.1,0,1.992,0.892,1.992,1.991v9.087h7.718c1.1,0,1.991,0.892,1.991,1.992S40.81,32.116,39.71,32.116z"/>
	</g>
</g>
</svg>
