<?xml version="1.0" encoding="utf-8"?>
<!-- Generator: Adobe Illustrator 19.2.1, SVG Export Plug-In . SVG Version: 6.00 Build 0)  -->
<svg version="1.1" id="Layer_1" xmlns="http://www.w3.org/2000/svg" xmlns:xlink="http://www.w3.org/1999/xlink" x="0px" y="0px"
	 viewBox="0 0 60 60" style="enable-background:new 0 0 60 60;" xml:space="preserve">
<style type="text/css">
	.st0{fill:#D2D3D4;}
	.st1{fill:#231F20;}
	.st2{fill:#FFFFFF;}
</style>
<g>
	<g>
		<path class="st0" d="M30,44c15.5,0,28-12.5,28-28H2C2,31.5,14.5,44,30,44z"/>
		<path class="st1" d="M30,46C13.5,46,0,32.6,0,16c0-1.1,0.9-2,2-2h56c1.1,0,2,0.9,2,2C60,32.6,46.5,46,30,46z M4.1,18
			C5.2,31.4,16.4,42,30,42C43.6,42,54.8,31.4,55.9,18H4.1z"/>
	</g>
	<g>
		<path class="st2" d="M30,34.9c12.3,0,24.2-4.9,28-18.9H2C6.7,31.5,19,34.9,30,34.9z"/>
		<path class="st1" d="M30,36.9c-15.8,0-25.8-6.8-29.9-20.3C-0.1,16,0,15.3,0.4,14.8C0.8,14.3,1.4,14,2,14h56c0.6,0,1.2,0.3,1.6,0.8
			c0.4,0.5,0.5,1.1,0.3,1.8C56.5,29.5,45.6,36.9,30,36.9z M4.9,18c4,10,12.2,14.8,25.1,14.8c7.5,0,20.3-2,25.2-14.8H4.9z"/>
	</g>
	<g>
		<circle class="st0" cx="18.1" cy="25.2" r="1.8"/>
	</g>
	<g>
		<circle class="st0" cx="45.7" cy="22.9" r="1.8"/>
	</g>
	<g>
		<circle class="st0" cx="26.3" cy="21.5" r="1.3"/>
	</g>
	<g>
		<circle class="st0" cx="24.9" cy="27" r="1.2"/>
	</g>
</g>
</svg>
