<?xml version="1.0" encoding="utf-8"?>
<!-- Generator: Adobe Illustrator 19.2.1, SVG Export Plug-In . SVG Version: 6.00 Build 0)  -->
<svg version="1.1" id="Layer_1" xmlns="http://www.w3.org/2000/svg" xmlns:xlink="http://www.w3.org/1999/xlink" x="0px" y="0px"
	 viewBox="0 0 60 60" style="enable-background:new 0 0 60 60;" xml:space="preserve">
<style type="text/css">
	.st0{fill:#231F20;}
	.st1{fill:#D1D2D3;}
	.st2{fill:#FFFFFF;}
</style>
<g>
	<g>
		<line class="st0" x1="12.1" y1="14.1" x2="48.5" y2="14.1"/>
		<path class="st1" d="M48.5,15.7H12.1c-0.9,0-1.7-0.7-1.7-1.7c0-0.9,0.7-1.7,1.7-1.7h36.3c0.9,0,1.7,0.7,1.7,1.7
			C50.1,15,49.4,15.7,48.5,15.7z"/>
	</g>
	<g>
		<line class="st0" x1="12.1" y1="34.1" x2="48.5" y2="34.1"/>
		<path class="st1" d="M48.5,35.8H12.1c-0.9,0-1.7-0.7-1.7-1.7c0-0.9,0.7-1.7,1.7-1.7h36.3c0.9,0,1.7,0.7,1.7,1.7
			C50.1,35.1,49.4,35.8,48.5,35.8z"/>
	</g>
	<g>
		<line class="st0" x1="12.1" y1="51.3" x2="48.5" y2="51.3"/>
		<path class="st1" d="M48.5,53H12.1c-0.9,0-1.7-0.7-1.7-1.7c0-0.9,0.7-1.7,1.7-1.7h36.3c0.9,0,1.7,0.7,1.7,1.7
			C50.1,52.3,49.4,53,48.5,53z"/>
	</g>
	<g>
		<path class="st0" d="M49.7,60H11.4c-0.9,0-1.7-0.7-1.7-1.7V20.8C9.7,9.3,19,0,30.5,0C42,0,51.4,9.3,51.4,20.8v37.5
			C51.4,59.3,50.6,60,49.7,60z M13,56.7h35V20.8c0-9.7-7.9-17.5-17.5-17.5C20.9,3.3,13,11.2,13,20.8V56.7z"/>
	</g>
	<g>
		<line class="st2" x1="2" y1="58.3" x2="58" y2="58.3"/>
		<path class="st0" d="M58,60H2c-0.9,0-1.7-0.7-1.7-1.7s0.7-1.7,1.7-1.7H58c0.9,0,1.7,0.7,1.7,1.7S58.9,60,58,60z"/>
	</g>
	<g>
		<circle class="st0" cx="22.5" cy="19" r="2"/>
	</g>
	<g>
		<circle class="st0" cx="29.6" cy="19" r="2"/>
	</g>
	<g>
		<path class="st2" d="M28.1,24.7c0,2.4-1.3,4.3-2.8,4.3c-1.5,0-2.8-1.9-2.8-4.3"/>
		<path class="st0" d="M25.3,30.7c-2.5,0-4.5-2.6-4.5-6c0-0.9,0.7-1.7,1.7-1.7s1.7,0.7,1.7,1.7c0,1.6,0.8,2.7,1.1,2.7s1.1-1,1.1-2.7
			c0-0.9,0.7-1.7,1.7-1.7c0.9,0,1.7,0.7,1.7,1.7C29.7,28.1,27.8,30.7,25.3,30.7z"/>
	</g>
</g>
</svg>
